<?xml version="1.0" encoding="utf-8"?>
<!-- Generator: Adobe Illustrator 17.0.0, SVG Export Plug-In . SVG Version: 6.00 Build 0)  -->
<!DOCTYPE svg PUBLIC "-//W3C//DTD SVG 1.1//EN" "http://www.w3.org/Graphics/SVG/1.1/DTD/svg11.dtd">
<svg version="1.1" id="Layer_1" xmlns="http://www.w3.org/2000/svg" xmlns:xlink="http://www.w3.org/1999/xlink" x="0px" y="0px"
	 width="1025px" height="1024px" viewBox="0 0 1025 1024" enable-background="new 0 0 1025 1024" xml:space="preserve">
<g>
	<path d="M1008.6 454.6l-205 196.8 49.2 278.8c8.2 49.2-41 90.2-90.2 65.6l-254.2-131.2-254.2 131.2c-41 24.6-98.4-16.4-90.2-65.6l49.2-278.8-196.8-196.8c-32.8-32.8-16.4-98.4 32.8-106.6l278.8-41 123-254.2c24.6-49.2 90.2-49.2 106.6 0l123 254.2 295.2 41c49.2 8.2 73.8 73.8 32.8 106.6zM902 430l-270.6-41-123-246-123 246-254.2 41 196.8 188.6-49.2 262.4 237.8-123 237.8 123-49.2-262.4 196.8-188.6z"/>
</g>
</svg>
