<?xml version="1.0" encoding="utf-8"?>
<!-- Generator: Adobe Illustrator 17.0.0, SVG Export Plug-In . SVG Version: 6.00 Build 0)  -->
<!DOCTYPE svg PUBLIC "-//W3C//DTD SVG 1.1//EN" "http://www.w3.org/Graphics/SVG/1.1/DTD/svg11.dtd">
<svg version="1.1" id="Layer_1" xmlns="http://www.w3.org/2000/svg" xmlns:xlink="http://www.w3.org/1999/xlink" x="0px" y="0px"
	 width="1025px" height="1024px" viewBox="0 0 1025 1024" enable-background="new 0 0 1025 1024" xml:space="preserve">
<g>
	<path d="M1025 896.375v64.063c0 34.167-29.896 64.063-64.063 64.063h-896.875c-34.167 0-64.063-29.896-64.063-64.063v-64.063c0-140.938 115.313-256.25 256.25-256.25 183.646 0 140.938 34.167 256.25 34.167s72.604-34.167 256.25-34.167c140.938 0 256.25 115.313 256.25 256.25zM512.5 738.354c-119.583 0-85.417-34.167-256.25-34.167-106.771 0-192.188 85.417-192.188 192.188v64.063h896.875v-64.063c0-106.771-85.417-192.188-192.188-192.188-170.833 0-132.396 34.167-256.25 34.167zM802.917 289.917c0 158.021-128.125 290.417-290.417 290.417s-290.417-128.125-290.417-290.417 132.396-290.417 290.417-290.417 290.417 128.125 290.417 290.417zM290.417 289.917c0 119.583 98.229 222.083 222.083 222.083s226.354-102.5 226.354-226.354-102.5-222.083-226.354-222.083-222.083 102.5-222.083 226.354z"/>
</g>
</svg>
