<?xml version="1.0" encoding="utf-8"?>
<!-- Generator: Adobe Illustrator 17.0.0, SVG Export Plug-In . SVG Version: 6.00 Build 0)  -->
<!DOCTYPE svg PUBLIC "-//W3C//DTD SVG 1.1//EN" "http://www.w3.org/Graphics/SVG/1.1/DTD/svg11.dtd">
<svg version="1.1" id="Layer_1" xmlns="http://www.w3.org/2000/svg" xmlns:xlink="http://www.w3.org/1999/xlink" x="0px" y="0px"
	 width="1025px" height="1024px" viewBox="0 0 1025 1024" enable-background="new 0 0 1025 1024" xml:space="preserve">
<g>
	<path d="M991 519.5l-307.5-307c-5-5-11-7.5-18-7.5s-13 2.5-18 7.5-7.5 11-7.5 18 2.5 13 7.5 18l263.5 263.5h-834c-7.334 0-13.5 2.5-18.5 7.5s-7.5 11.167-7.5 18.5c0 7 2.5 13 7.5 18s11.166 7.5 18.5 7.5h834l-263.5 263.5c-5 5-7.5 11-7.5 18s2.5 13 7.5 18c2.333 2.667 5.083 4.583 8.25 5.75s6.417 1.75 9.75 1.75 6.583-0.583 9.75-1.75 5.917-3.083 8.25-5.75l307.5-307c5-5 7.5-11.083 7.5-18.25s-2.5-13.25-7.5-18.25v0z"/>
</g>
</svg>
