<?xml version="1.0" encoding="utf-8"?>
<!-- Generator: Adobe Illustrator 17.0.0, SVG Export Plug-In . SVG Version: 6.00 Build 0)  -->
<!DOCTYPE svg PUBLIC "-//W3C//DTD SVG 1.1//EN" "http://www.w3.org/Graphics/SVG/1.1/DTD/svg11.dtd">
<svg version="1.1" id="Layer_1" xmlns="http://www.w3.org/2000/svg" xmlns:xlink="http://www.w3.org/1999/xlink" x="0px" y="0px"
	 width="1025px" height="1024px" viewBox="0 0 1025 1024" enable-background="new 0 0 1025 1024" xml:space="preserve">
<g>
	<path d="M998.5 922v0.002c-17.333 0-34.5-2.417-51.5-7.25s-32.917-10.5-47.75-17-28.083-13.25-39.75-20.25-20.833-12.833-27.5-17.5c-14.333 3.667-29 6.333-44 8s-30.167 2.5-45.5 2.5c-18.333 0-36.417-1.25-54.25-3.75s-35-6.167-51.5-11-32.333-10.75-47.5-17.75-29.417-15.166-42.75-24.5c-13.667-9.666-25.833-20.166-36.5-31.5s-19.666-23.25-27-35.75-12.834-25.5-16.5-39-5.5-27.25-5.5-41.25c0-14.334 1.833-28.25 5.5-41.75s9.166-26.5 16.5-39 16.334-24.416 27-35.75 22.833-21.834 36.5-31.5c13.333-9 27.583-17.084 42.75-24.25s31-13.166 47.5-18 33.667-8.5 51.5-11 35.917-3.75 54.25-3.75 36.417 1.25 54.25 3.75 35 6.166 51.5 11 32.333 10.834 47.5 18 29.25 15.25 42.25 24.25c14 9.666 26.333 20.166 37 31.5s19.583 23.25 26.75 35.75 12.667 25.5 16.5 39 5.75 27.416 5.75 41.75c0 24.666-5.75 48.333-17.25 71s-28.083 43.333-49.75 62c2.333 5.667 7.583 15 15.75 28s22.583 29.833 43.25 50.5c2.333 2.333 4.25 5.083 5.75 8.25s2.25 6.583 2.25 10.25c0 7.333-2.5 13.5-7.5 18.5s-11 7.5-18 7.5v0zM837.5 806.502c2.667 0 5.332 0.5 7.999 1.5s5 2.333 7 4c0.333 0 8 5 23 15s33 19.333 54 28c-13.667-20.334-21.5-36.5-23.5-48.5s-2.333-20.334-1-25c0.667-3 1.833-5.667 3.5-8s3.667-4.333 6-6c18.667-14.334 33.083-30.25 43.25-47.75s15.25-35.417 15.25-53.75c0-19.667-5.583-38.667-16.75-57s-27.083-34.667-47.75-49.001c-11-7.666-22.833-14.5-35.5-20.5s-26.083-11-40.25-15-28.833-7.083-44-9.25-30.583-3.25-46.25-3.25c-16 0-31.583 1.083-46.75 3.25s-29.75 5.25-43.75 9.25-27.417 9-40.25 15-24.75 12.834-35.75 20.5c-20.667 14.334-36.5 30.667-47.5 49.001s-16.5 37.333-16.5 57 5.5 38.583 16.5 56.749 26.833 34.417 47.5 48.75c11 7.667 22.917 14.5 35.75 20.5s26.25 11 40.25 15 28.583 7.084 43.75 9.25 30.75 3.25 46.75 3.25c15 0 29.917-1 44.75-3s29.25-5 43.25-9c1-0.333 2.083-0.583 3.25-0.75s2.417-0.25 3.75-0.25v0zM25.5 973.002c-5.666 0-10.835-1.749-15.502-5.249s-7.667-8.083-9-13.75c-1.667-5.333-1.417-10.667 0.75-16s5.75-9.5 10.75-12.5c21.667-13 40.25-27.167 55.75-42.5s28.666-30.417 39.5-45.25 19.417-28.834 25.751-42 11-24.25 14-33.25c-23.334-18-44.167-37.584-62.501-58.75s-33.834-43.5-46.5-67-22.25-47.916-28.75-73.25-9.75-51-9.75-77c0-26.333 3.333-52.167 10-77.5s16.5-50 29.5-74c6-11.667 12.834-22.917 20.5-33.75s15.833-21.333 24.499-31.5 18.083-20 28.249-29.5 20.916-18.583 32.25-27.25c22.666-17.667 47.25-33.417 73.75-47.25s54.166-25.417 83-34.75 58.75-16.417 89.75-21.25 62.666-7.25 95-7.25c29 0 57.75 2.083 86.25 6.25s56.167 10.167 83 18 52.75 17.5 77.75 29 48.5 24.75 70.5 39.75 42.167 31.417 60.5 49.25 34.417 36.75 48.25 56.75 25.417 40.833 34.75 62.5 16 44 20 67c1.333 6.667 0 12.917-4 18.75s-9.5 9.417-16.5 10.75-13.333 0-19-4-9.167-9.5-10.5-16.5c-3.667-19.333-9.5-38.333-17.5-57s-18-36.5-30-53.5-26-33.25-42-48.75-33.667-29.75-53-42.75c-19.667-13.667-40.833-25.75-63.5-36.25s-46.25-19.25-70.75-26.25-49.667-12.333-75.5-16-52.083-5.5-78.75-5.5c-60 0-116.416 8.667-169.25 26s-99 41.083-138.5 71.25-70.666 65.5-93.5 106-34.25 83.583-34.25 129.25c0 23.334 3.167 46.25 9.5 68.75s15.5 44.25 27.5 65.25 26.75 40.916 44.25 59.75 37.584 36.084 60.25 51.75c4.333 3 7.417 7.083 9.25 12.25s2.083 10.25 0.75 15.25c-1.667 5.667-4.25 13.5-7.75 23.5s-8.416 21.334-14.75 34-14.25 26.333-23.75 41-21.084 29.5-34.75 44.5c16.666-6 33.5-12.833 50.5-20.5s33.75-15.917 50.25-24.75 32.416-18 47.75-27.5l43-27.75c3-2.333 6.416-3.75 10.25-4.25s7.584-0.25 11.25 0.75c24.334 7 49.167 12.25 74.5 15.75s51.167 5.25 77.5 5.25c7 0 13 2.5 18 7.5s7.5 11 7.5 18-2.5 13-7.5 18-11 7.5-18 7.5c-26.666 0-52.916-1.667-78.75-5s-51.084-8.167-75.75-14.5c-11 7.333-26.334 16.917-46 28.75s-41.666 23.917-66 36.25c-19 9.334-37.334 17.584-55 24.75s-34.666 13.167-51 18-31.834 8.417-46.5 10.75-28.666 3.5-42 3.5v0z"/>
</g>
</svg>
