<?xml version="1.0" encoding="utf-8"?>
<!-- Generator: Adobe Illustrator 17.0.0, SVG Export Plug-In . SVG Version: 6.00 Build 0)  -->
<!DOCTYPE svg PUBLIC "-//W3C//DTD SVG 1.1//EN" "http://www.w3.org/Graphics/SVG/1.1/DTD/svg11.dtd">
<svg version="1.1" id="Layer_1" xmlns="http://www.w3.org/2000/svg" xmlns:xlink="http://www.w3.org/1999/xlink" x="0px" y="0px"
	 width="1025px" height="1024px" viewBox="0 0 1025 1024" enable-background="new 0 0 1025 1024" xml:space="preserve">
<g>
	<path d="M1025 506.716c0 285.309-232.474 507.216-507.216 507.216s-517.784-221.907-517.784-507.216 232.474-507.216 507.216-507.216 517.784 232.474 517.784 507.216zM95.103 506.716c0 232.474 179.639 412.113 412.113 412.113 232.474 10.567 422.68-179.639 422.68-412.113s-179.639-412.113-412.113-412.113c-232.474 0-422.68 190.206-422.68 412.113zM676.289 506.716c0 95.103-73.969 169.072-169.072 169.072s-158.505-73.969-158.505-169.072 73.969-158.505 158.505-158.505 169.072 73.969 169.072 158.505z"/>
</g>
</svg>
