<?xml version="1.0" encoding="utf-8"?>
<!-- Generator: Adobe Illustrator 17.0.0, SVG Export Plug-In . SVG Version: 6.00 Build 0)  -->
<!DOCTYPE svg PUBLIC "-//W3C//DTD SVG 1.1//EN" "http://www.w3.org/Graphics/SVG/1.1/DTD/svg11.dtd">
<svg version="1.1" id="Layer_1" xmlns="http://www.w3.org/2000/svg" xmlns:xlink="http://www.w3.org/1999/xlink" x="0px" y="0px"
	 width="1025px" height="1024px" viewBox="0 0 1025 1024" enable-background="new 0 0 1025 1024" xml:space="preserve">
<g>
	<path d="M947 102.5h-128v-25.5c0-7-2.5-13-7.5-18s-11-7.5-18-7.5-13 2.5-18 7.5-7.5 11-7.5 18v25.5h-512v-25.5c0-7-2.5-13-7.5-18s-11-7.5-18-7.5-13 2.5-18 7.5-7.5 11-7.5 18v25.5h-128c-21.334 0-39.5 7.5-54.5 22.5s-22.5 33.167-22.5 54.5v716.5c0 21.333 7.5 39.5 22.5 54.5s33.166 22.5 54.5 22.5h870c21.333 0 39.5-7.5 54.5-22.5s22.5-33.167 22.5-54.5v-716.5c0-21.333-7.5-39.5-22.5-54.5s-33.167-22.5-54.5-22.5v0zM77 154h128v76.5c0 7 2.5 13 7.5 18s11 7.5 18 7.5 13-2.5 18-7.5 7.5-11 7.5-18v-76.5h512v76.5c0 7 2.5 13 7.5 18s11 7.5 18 7.5 13-2.5 18-7.5 7.5-11 7.5-18v-76.5h128c7.333 0 13.5 2.5 18.5 7.5s7.5 11 7.5 18v128h-922v-128c0-7 2.5-13 7.5-18s11.166-7.5 18.5-7.5v0zM947 922h-870c-7.334 0-13.5-2.5-18.5-7.5s-7.5-11.167-7.5-18.5v-537.5h922v537.5c0 7.333-2.5 13.5-7.5 18.5s-11.167 7.5-18.5 7.5v0zM486.5 819.5h-153.5c-7.334 0-13.5-2.5-18.5-7.5s-7.5-11-7.5-18c0-7.333 2.5-13.5 7.5-18.5s11.166-7.5 18.5-7.5h128v-102h-77c-7 0-13-2.5-18-7.5s-7.5-11.167-7.5-18.5c0-7 2.5-13 7.5-18s11-7.5 18-7.5h77v-102.5h-128c-7.334 0-13.5-2.5-18.5-7.5s-7.5-11-7.5-18 2.5-13 7.5-18 11.166-7.5 18.5-7.5h153.5c7 0 13 2.5 18 7.5s7.5 11 7.5 18v307.5c0 7-2.5 13-7.5 18s-11 7.5-18 7.5v0zM691 819.5c-7 0-13-2.5-18-7.5s-7.5-11-7.5-18v-307.5c0-7 2.5-13 7.5-18s11-7.5 18-7.5c7.333 0 13.5 2.5 18.5 7.5s7.5 11 7.5 18v307.5c0 7-2.5 13-7.5 18s-11.167 7.5-18.5 7.5v0z"/>
</g>
</svg>
