<?xml version="1.0" encoding="utf-8"?>
<!-- Generator: Adobe Illustrator 17.0.0, SVG Export Plug-In . SVG Version: 6.00 Build 0)  -->
<!DOCTYPE svg PUBLIC "-//W3C//DTD SVG 1.1//EN" "http://www.w3.org/Graphics/SVG/1.1/DTD/svg11.dtd">
<svg version="1.1" id="Layer_1" xmlns="http://www.w3.org/2000/svg" xmlns:xlink="http://www.w3.org/1999/xlink" x="0px" y="0px"
	 width="1025px" height="1024px" viewBox="0 0 1025 1024" enable-background="new 0 0 1025 1024" xml:space="preserve">
<g>
	<path d="M409.5 1024c-14 0-27.25-2.667-39.75-8s-23.334-12.583-32.5-21.75-16.5-20-22-32.5-8.25-25.75-8.25-39.75c0-14.333 2.75-27.667 8.25-40s12.834-23.167 22-32.5 20-16.667 32.5-22 25.75-8 39.75-8c14.334 0 27.667 2.667 40 8s23.167 12.667 32.5 22 16.667 20.167 22 32.5 8 25.667 8 40c0 14-2.667 27.25-8 39.75s-12.667 23.333-22 32.5-20.167 16.417-32.5 21.75-25.667 8-40 8v0zM409.5 870.5c-14 0-26 5-36 15s-15 22.167-15 36.5c0 14 5 26 15 36s22 15 36 15c14.334 0 26.5-5 36.5-15s15-22 15-36c0-14.333-5-26.5-15-36.5s-22.166-15-36.5-15v0zM768 1024c-14 0-27.25-2.667-39.75-8s-23.417-12.583-32.75-21.75-16.667-20-22-32.5-8-25.75-8-39.75c0-14.333 2.667-27.667 8-40s12.667-23.167 22-32.5 20.25-16.667 32.75-22 25.75-8 39.75-8 27.25 2.667 39.75 8 23.417 12.667 32.75 22 16.667 20.167 22 32.5 8 25.667 8 40c0 14-2.667 27.25-8 39.75s-12.667 23.333-22 32.5-20.25 16.417-32.75 21.75-25.75 8-39.75 8v0zM768 870.5c-14 0-26 5-36 15s-15 22.167-15 36.5c0 14 5 26 15 36s22 15 36 15 26-5 36-15 15-22 15-36c0-14.333-5-26.5-15-36.5s-22-15-36-15v0zM898 229c-6.333-7.667-14.167-13.584-23.5-17.75s-19.167-6.25-29.5-6.25h-15l-146.5-146c-5-5-11-7.5-18-7.5s-13 2.5-18 7.5l-51 51c-5 5-7.5 11.083-7.5 18.25s2.5 13.25 7.5 18.25 11 7.5 18 7.5 13-2.5 18-7.5l33-33.5 92 92h-132.5l-171.5-171.5c-5-5-11.084-7.5-18.25-7.5s-13.25 2.5-18.25 7.5l-171.5 171.5h-27.5l-5-30.5c-3.333-20-13.25-37-29.75-51s-34.916-21-55.25-21h-51c-7.334 0-13.5 2.5-18.5 7.5s-7.5 11-7.5 18c0 7.333 2.5 13.5 7.5 18.5s11.166 7.5 18.5 7.5h51c8 0 15.416 2.917 22.25 8.75s10.917 12.583 12.25 20.25l85.5 513.5c3.333 20 13.167 36.916 29.5 50.75s34.834 20.75 55.5 20.75h512c7 0 13-2.5 18-7.5s7.5-11 7.5-18-2.5-13-7.5-18-11-7.5-18-7.5h-512c-8 0-15.416-2.917-22.25-8.75s-10.917-12.584-12.25-20.25l-12.5-76 510-44.5c20-1.667 37.917-9.833 53.75-24.5s25.417-31.833 28.75-51.5l34.5-206c1.667-10.333 1.167-20.417-1.5-30.25s-7.167-18.583-13.5-26.25v0zM435 87.5l117.5 117.5h-234.5l117-117.5zM862.5 277l-34.499 206c-1.333 8-5.667 15.416-13 22.25s-15.167 10.583-23.5 11.25l-514 45-51-305.5h618.5c3 0 5.667 0.5 8 1.5s4.333 2.5 6 4.5 2.75 4.25 3.25 6.75 0.583 5.25 0.25 8.25v0z"/>
</g>
</svg>
