<?xml version="1.0" encoding="utf-8"?>
<!-- Generator: Adobe Illustrator 17.0.0, SVG Export Plug-In . SVG Version: 6.00 Build 0)  -->
<!DOCTYPE svg PUBLIC "-//W3C//DTD SVG 1.1//EN" "http://www.w3.org/Graphics/SVG/1.1/DTD/svg11.dtd">
<svg version="1.1" id="Layer_1" xmlns="http://www.w3.org/2000/svg" xmlns:xlink="http://www.w3.org/1999/xlink" x="0px" y="0px"
	 width="1025px" height="1024px" viewBox="0 0 1025 1024" enable-background="new 0 0 1025 1024" xml:space="preserve">
<g>
	<path d="M281.5 896c-3.333 0-6.584-0.583-9.75-1.75s-5.916-3.083-8.25-5.75l-256-256c-5-5-7.5-11-7.5-18s2.5-13 7.5-18 11-7.5 18-7.5 13 2.5 18 7.5l238 238 699-699c5-5 11-7.5 18-7.5s13 2.5 18 7.5 7.5 11.083 7.5 18.25-2.5 13.25-7.5 18.25l-717 716.5c-2.333 2.667-5.084 4.583-8.25 5.75s-6.416 1.75-9.75 1.75v0z"/>
</g>
</svg>
