<?xml version="1.0" encoding="utf-8"?>
<!-- Generator: Adobe Illustrator 17.0.0, SVG Export Plug-In . SVG Version: 6.00 Build 0)  -->
<!DOCTYPE svg PUBLIC "-//W3C//DTD SVG 1.1//EN" "http://www.w3.org/Graphics/SVG/1.1/DTD/svg11.dtd">
<svg version="1.1" id="Layer_1" xmlns="http://www.w3.org/2000/svg" xmlns:xlink="http://www.w3.org/1999/xlink" x="0px" y="0px"
	 width="1025px" height="1024px" viewBox="0 0 1025 1024" enable-background="new 0 0 1025 1024" xml:space="preserve">
<g>
	<path d="M0 307.5c0-3.333 0.583-6.583 1.75-9.75s3.083-5.917 5.75-8.25c5-5 11-7.5 18-7.5s13 2.5 18 7.5l443 442.5 442.5-442.5c5-5 11.083-7.5 18.25-7.5s13.25 2.5 18.25 7.5 7.5 11 7.5 18-2.5 13-7.5 18l-461 461c-5 5-11 7.5-18 7.5s-13-2.5-18-7.5l-461-461c-2.667-2.333-4.583-5.083-5.75-8.25s-1.75-6.417-1.75-9.75v0z"/>
</g>
</svg>
