<?xml version="1.0" encoding="utf-8"?>
<!-- Generator: Adobe Illustrator 17.0.0, SVG Export Plug-In . SVG Version: 6.00 Build 0)  -->
<!DOCTYPE svg PUBLIC "-//W3C//DTD SVG 1.1//EN" "http://www.w3.org/Graphics/SVG/1.1/DTD/svg11.dtd">
<svg version="1.1" id="Layer_1" xmlns="http://www.w3.org/2000/svg" xmlns:xlink="http://www.w3.org/1999/xlink" x="0px" y="0px"
	 width="1025px" height="1024px" viewBox="0 0 1025 1024" enable-background="new 0 0 1025 1024" xml:space="preserve">
<g>
	<path d="M896 102.5h-819c-21.334 0-39.5 7.5-54.5 22.5s-22.5 33.167-22.5 54.5v665.5c0 21.333 7.5 39.5 22.5 54.5s33.166 22.5 54.5 22.5h819c21.333 0 39.5-7.5 54.5-22.5s22.5-33.167 22.5-54.5v-665.5c0-21.333-7.5-39.5-22.5-54.5s-33.167-22.5-54.5-22.5v0zM921.5 179.5v76.5h-131.5l68.5-102h37.5c7 0 13 2.5 18 7.5s7.5 11 7.5 18v0zM585.5 256l68-102h143.5l-68.5 102h-143zM380.5 256l68.5-102h143l-68 102h-143.5zM176 256l68-102h143.5l-68.5 102h-143zM77 154h105.5l-68 102h-63.5v-76.5c0-7 2.5-13 7.5-18s11.166-7.5 18.5-7.5v0zM896 870.5h-819c-7.334 0-13.5-2.5-18.5-7.5s-7.5-11-7.5-18v-537.5h870.5v537.5c0 7-2.5 13-7.5 18s-11 7.5-18 7.5v0zM384 768c-2.333 0-4.5-0.25-6.5-0.75s-4-1.25-6-2.25c-4-2.333-7.166-5.5-9.5-9.5s-3.5-8.334-3.5-13v-307c0-4.667 1.167-9 3.5-13s5.5-7.167 9.5-9.5 8.25-3.417 12.75-3.25 8.75 1.417 12.75 3.75l256 153.5c4 2.333 7.083 5.5 9.25 9.5s3.25 8.167 3.25 12.5-1.083 8.5-3.25 12.5-5.25 7.167-9.25 9.5l-256 153.5c-2 1.333-4.083 2.25-6.25 2.75s-4.417 0.75-6.75 0.75v0zM409.5 480.5v217l180.5-108.5-180.5-108.5z"/>
</g>
</svg>
