<?xml version="1.0" encoding="utf-8"?>
<!-- Generator: Adobe Illustrator 17.0.0, SVG Export Plug-In . SVG Version: 6.00 Build 0)  -->
<!DOCTYPE svg PUBLIC "-//W3C//DTD SVG 1.1//EN" "http://www.w3.org/Graphics/SVG/1.1/DTD/svg11.dtd">
<svg version="1.1" id="Layer_1" xmlns="http://www.w3.org/2000/svg" xmlns:xlink="http://www.w3.org/1999/xlink" x="0px" y="0px"
	 width="1025px" height="1024px" viewBox="0 0 1025 1024" enable-background="new 0 0 1025 1024" xml:space="preserve">
<g>
	<path d="M1014.75 860.5c20.5 20.5 20.5 51.25 0 71.75l-82 82c-20.5 10.25-51.25 10.25-71.75 0l-348.5-348.5-348.5 348.5c-20.5 10.25-51.25 10.25-71.75 0l-82-82c-10.25-20.5-10.25-51.25 0-71.75l348.5-348.5-348.5-348.5c-10.25-20.5-10.25-51.25 0-71.75l82-82c20.5-10.25 51.25-10.25 71.75 0l348.5 348.5 348.5-348.5c20.5-10.25 51.25-10.25 71.75-0l82 82c20.5 20.5 20.5 51.25 0 71.75l-348.5 348.5 348.5 348.5z"/>
</g>
</svg>
