<?xml version="1.0" encoding="utf-8"?>
<!-- Generator: Adobe Illustrator 17.0.0, SVG Export Plug-In . SVG Version: 6.00 Build 0)  -->
<!DOCTYPE svg PUBLIC "-//W3C//DTD SVG 1.1//EN" "http://www.w3.org/Graphics/SVG/1.1/DTD/svg11.dtd">
<svg version="1.1" id="Layer_1" xmlns="http://www.w3.org/2000/svg" xmlns:xlink="http://www.w3.org/1999/xlink" x="0px" y="0px"
	 width="1025px" height="1024px" viewBox="0 0 1025 1024" enable-background="new 0 0 1025 1024" xml:space="preserve">
<g>
	<path d="M390.5 1009c-1 0-2-0.083-3-0.25s-2-0.417-3-0.75c-23-5.667-45.5-13.083-67.5-22.25s-43.334-19.75-64-31.75c-6-3.667-9.916-8.833-11.75-15.5s-1.083-13 2.25-19c4-7.333 7.083-15.167 9.25-23.5s3.25-16.833 3.25-25.5c0-14-2.667-27.25-8-39.75s-12.667-23.334-22-32.5-20.167-16.5-32.5-22-25.667-8.25-40-8.25c-8.334 0-16.667 1.083-25 3.25s-16.334 5.25-24 9.25c-6 3.333-12.334 4.083-19 2.25s-11.666-5.75-15-11.75c-12.334-20.334-23-41.5-32-63.5s-16.5-44.5-22.5-67.5c-1.667-6.666-0.917-12.916 2.25-18.75s7.916-9.917 14.25-12.25c21-7 37.916-19.417 50.75-37.25s19.25-37.75 19.25-59.75-6.416-41.916-19.25-59.75-29.75-30.25-50.75-37.25c-6.334-2-11.084-5.917-14.25-11.75s-3.917-12.083-2.25-18.75c6-23 13.5-45.5 22.5-67.5s19.666-43.333 32-64c3.333-5.667 8.334-9.417 15-11.25s13-1.25 19 1.75c7.666 4.333 15.666 7.5 24 9.5s16.667 3 25 3c14.334 0 27.667-2.667 40-8s23.167-12.583 32.5-21.75 16.667-20 22-32.5 8-25.75 8-39.75c0-8.667-1.083-17.167-3.25-25.5s-5.25-16.167-9.25-23.5c-3.333-6.333-4.083-12.833-2.25-19.5s5.75-11.667 11.75-15c20.666-12 42-22.583 64-31.75s44.5-16.583 67.5-22.25c6.334-1.667 12.5-0.917 18.5 2.25s10 7.917 12 14.25c7 20.667 19.416 37.417 37.25 50.25s37.75 19.25 59.75 19.25 41.917-6.417 59.75-19.25 30.25-29.583 37.25-50.25c2-6.333 6-11.083 12-14.25s12.167-3.917 18.5-2.25c23 5.667 45.5 13.083 67.5 22.25s43.333 19.75 64 31.75c6 3.333 9.917 8.333 11.75 15s1.083 13.167-2.25 19.5c-4 7.333-7.083 15.167-9.25 23.5s-3.25 16.833-3.25 25.5c0 14 2.667 27.25 8 39.75s12.667 23.333 22 32.5 20.167 16.417 32.5 21.75 25.667 8 40 8c8.333 0 16.667-1 25-3s16.333-5.167 24-9.5c6-3 12.333-3.583 19-1.75s11.667 5.583 15 11.25c12.333 20.667 23 42 32 64s16.5 44.5 22.5 67.5c1.667 6.667 0.917 12.917-2.25 18.75s-7.917 9.75-14.25 11.75c-21 7-37.917 19.417-50.75 37.25s-19.25 37.75-19.25 59.75 6.417 41.917 19.25 59.75 29.75 30.25 50.75 37.25c6.333 2.333 11.083 6.417 14.25 12.25s3.917 12.084 2.25 18.75c-6 23-13.5 45.5-22.5 67.5s-19.667 43.166-32 63.5c-3.333 6-8.333 9.916-15 11.75s-13 1.083-19-2.25c-7.667-4-15.667-7.083-24-9.25s-16.667-3.25-25-3.25c-14.333 0-27.667 2.75-40 8.25s-23.167 12.834-32.5 22-16.667 20-22 32.5-8 25.75-8 39.75c0 8.667 1.083 17.167 3.25 25.5s5.25 16.167 9.25 23.5c3.333 6 4.083 12.333 2.25 19s-5.75 11.833-11.75 15.5c-20.667 12-42 22.583-64 31.75s-44.5 16.583-67.5 22.25c-6.333 1.667-12.5 0.917-18.5-2.25s-10-7.917-12-14.25c-7-21-19.417-37.833-37.25-50.5s-37.75-19-59.75-19-41.916 6.333-59.75 19-30.25 29.5-37.25 50.5c-1.667 5.333-4.75 9.583-9.25 12.75s-9.584 4.75-15.25 4.75v0zM512 870.5c14.333 0 28.25 1.917 41.75 5.75s26.167 9.333 38 16.5 22.5 15.833 32 26 17.583 21.416 24.25 33.75c13.333-4 26.417-8.667 39.25-14s25.417-11.167 37.75-17.5c-2.667-8.334-4.667-16.667-6-25s-2-16.834-2-25.5c0-21 4-40.834 12-59.5s18.917-35 32.75-49 30.083-25 48.75-33 38.667-12 60-12c8.333 0 16.75 0.75 25.25 2.25s16.75 3.583 24.75 6.25c6.667-12.333 12.667-25 18-38s10-26.166 14-39.5c-12.667-6.333-24-14.333-34-24s-18.583-20.333-25.75-31.999-12.667-24.25-16.5-37.75-5.75-27.584-5.75-42.25c0-14.334 1.917-28.25 5.75-41.75s9.333-26.084 16.5-37.75 15.75-22.333 25.75-32 21.333-17.667 34-24c-4-13.333-8.667-26.5-14-39.5s-11.333-25.667-18-38c-8 2.667-16.25 4.75-24.75 6.25s-16.917 2.25-25.25 2.25c-21.333 0-41.333-4.083-60-12.25s-34.917-19.167-48.75-33-24.75-30.083-32.75-48.75-12-38.5-12-59.5c0-8.667 0.667-17.25 2-25.75s3.333-16.75 6-24.75c-12.333-6.333-24.917-12.167-37.75-17.5s-25.917-10-39.25-14c-6.667 12.333-14.75 23.583-24.25 33.75s-20.167 18.75-32 25.75-24.5 12.5-38 16.5-27.417 6-41.75 6-28.25-2-41.75-6-26.166-9.5-38-16.5-22.5-15.583-32-25.75-17.584-21.417-24.25-33.75c-13.334 4-26.417 8.667-39.25 14s-25.417 11.167-37.75 17.5c2.667 8 4.667 16.25 6 24.75s2 17.083 2 25.75c0 21-4 40.833-12 59.5s-18.916 34.917-32.75 48.75-30.084 24.833-48.75 33-38.666 12.25-60 12.25c-8.334 0-16.75-0.75-25.25-2.25s-16.75-3.583-24.75-6.25c-6.666 12.333-12.666 25-18 38s-10 26.167-14 39.5c12.666 6.333 24 14.333 34 24s18.584 20.333 25.75 32 12.666 24.25 16.5 37.75 5.75 27.416 5.75 41.75c0 14.667-1.917 28.75-5.75 42.25s-9.334 26.083-16.5 37.75-15.75 22.333-25.75 32-21.334 17.666-34 24c4 13.334 8.666 26.5 14 39.5s11.334 25.666 18 38c8-2.667 16.25-4.75 24.75-6.25s16.916-2.25 25.25-2.25c21.334 0 41.334 4 60 12s34.916 19 48.75 33 24.75 30.334 32.75 49 12 38.5 12 59.5c0 8.667-0.667 17.167-2 25.5s-3.333 16.667-6 25c12.334 6.333 24.917 12.167 37.75 17.5s25.917 10 39.25 14c6.666-12.333 14.75-23.583 24.25-33.75s20.166-18.833 32-26 24.5-12.666 38-16.5 27.416-5.75 41.75-5.75v0zM512 666c-21.334 0-41.25-4.083-59.75-12.25s-34.75-19.167-48.75-33-25-30.083-33-48.75-12-38.667-12-60c0-21 4-40.834 12-59.5s19-34.917 33-48.75 30.25-24.833 48.75-33 38.416-12.25 59.75-12.25 41.25 4.083 59.75 12.25 34.75 19.167 48.75 33 25 30.083 33 48.75 12 38.5 12 59.5c0 21.333-4 41.333-12 60s-19 34.917-33 48.75-30.25 24.833-48.75 33-38.417 12.25-59.75 12.25v0zM512 410c-14 0-27.25 2.667-39.75 8s-23.416 12.583-32.75 21.75-16.667 20-22 32.5-8 25.75-8 39.75c0 14.333 2.667 27.667 8 40s12.667 23.167 22 32.5 20.25 16.667 32.75 22 25.75 8 39.75 8 27.25-2.667 39.75-8 23.417-12.667 32.75-22 16.667-20.167 22-32.5 8-25.667 8-40c0-14-2.667-27.25-8-39.75s-12.667-23.333-22-32.5-20.25-16.417-32.75-21.75-25.75-8-39.75-8v0z"/>
</g>
</svg>
