<?xml version="1.0" encoding="utf-8"?>
<!-- Generator: Adobe Illustrator 17.0.0, SVG Export Plug-In . SVG Version: 6.00 Build 0)  -->
<!DOCTYPE svg PUBLIC "-//W3C//DTD SVG 1.1//EN" "http://www.w3.org/Graphics/SVG/1.1/DTD/svg11.dtd">
<svg version="1.1" id="Layer_1" xmlns="http://www.w3.org/2000/svg" xmlns:xlink="http://www.w3.org/1999/xlink" x="0px" y="0px"
	 width="1025px" height="1024px" viewBox="0 0 1025 1024" enable-background="new 0 0 1025 1024" xml:space="preserve">
<g>
	<path d="M7.321 1002.536c-7.321-7.321-7.321-29.286 0-36.607l380.714-380.714h-139.107c-14.643 0-29.286-14.643-29.286-29.286v-14.643c0-14.643 14.643-29.286 29.286-29.286h226.964c21.964 0 36.607 14.643 36.607 36.607v226.964c0 14.643-14.643 29.286-29.286 29.286h-14.643c-14.643 0-29.286-14.643-29.286-29.286v-139.107l-380.714 380.714c-7.321 7.321-29.286 7.321-36.607 0l-14.643-14.643zM512.5 475.393v-226.964c0-14.643 14.643-29.286 29.286-29.286h21.964c7.321 0 21.964 14.643 21.964 29.286v139.107l380.714-380.714c7.321-7.321 29.286-7.321 36.607 0l14.643 14.643c7.321 7.321 7.321 29.286 0 36.607l-380.714 380.714h139.107c14.643 0 29.286 14.643 29.286 29.286v21.964c0 7.321-14.643 21.964-29.286 21.964h-226.964c-21.964 0-36.607-14.643-36.607-36.607z"/>
</g>
</svg>
