<?xml version="1.0" encoding="utf-8"?>
<!-- Generator: Adobe Illustrator 17.0.0, SVG Export Plug-In . SVG Version: 6.00 Build 0)  -->
<!DOCTYPE svg PUBLIC "-//W3C//DTD SVG 1.1//EN" "http://www.w3.org/Graphics/SVG/1.1/DTD/svg11.dtd">
<svg version="1.1" id="Layer_1" xmlns="http://www.w3.org/2000/svg" xmlns:xlink="http://www.w3.org/1999/xlink" x="0px" y="0px"
	 width="1025px" height="1024px" viewBox="0 0 1025 1024" enable-background="new 0 0 1025 1024" xml:space="preserve">
<g>
	<path d="M548 538l443.002-443c5-5 7.5-11 7.5-18s-2.5-13-7.5-18-11.083-7.5-18.25-7.5-13.25 2.5-18.25 7.5l-442.5 442.5-442.5-442.5c-5-5-11.084-7.5-18.25-7.5s-13.25 2.5-18.25 7.5-7.5 11-7.5 18 2.5 13 7.5 18l443 443-443 442.5c-5 5-7.5 11-7.5 18s2.5 13 7.5 18c2.667 2.667 5.583 4.583 8.749 5.75s6.25 1.75 9.25 1.75c3.333 0 6.584-0.583 9.75-1.75s6.083-3.083 8.749-5.75l442.5-442.5 442.5 442.5c2.667 2.667 5.583 4.583 8.75 5.75s6.417 1.75 9.75 1.75c3 0 6.083-0.583 9.25-1.75s6.083-3.083 8.75-5.75c5-5 7.5-11 7.5-18s-2.5-13-7.5-18l-443-442.5z"/>
</g>
</svg>
