<?xml version="1.0" encoding="utf-8"?>
<!-- Generator: Adobe Illustrator 17.0.0, SVG Export Plug-In . SVG Version: 6.00 Build 0)  -->
<!DOCTYPE svg PUBLIC "-//W3C//DTD SVG 1.1//EN" "http://www.w3.org/Graphics/SVG/1.1/DTD/svg11.dtd">
<svg version="1.1" id="Layer_1" xmlns="http://www.w3.org/2000/svg" xmlns:xlink="http://www.w3.org/1999/xlink" x="0px" y="0px"
	 width="1025px" height="1024px" viewBox="0 0 1025 1024" enable-background="new 0 0 1025 1024" xml:space="preserve">
<g>
	<path d="M972.5 228.5l-0.001-0.75v-2c0-0.167-0.167-0.417-0.5-0.75v-1c0-0.333-0.167-0.667-0.5-1v-0.5c0-0.333-0.083-0.583-0.25-0.75s-0.25-0.417-0.25-0.75l-0.25-0.25c-0.167-0.167-0.25-0.417-0.25-0.75l-0.5-1c0-0.333-0.083-0.5-0.25-0.5h-0.25c0-0.333-0.083-0.667-0.25-1s-0.417-0.667-0.75-1l-0.5-0.5c0-0.333-0.083-0.583-0.25-0.75l-0.75-0.75v-0.5l-1.5-1.5c-0.333-0.333-0.667-0.583-1-0.75s-0.667-0.417-1-0.75v-0.25c0-0.167-0.167-0.25-0.5-0.25l-0.5-0.25c-0.333-0.167-0.5-0.417-0.5-0.75h-0.5l-0.5-0.5-1-0.5c-0.333 0-0.5-0.083-0.5-0.25v-0.25c-0.333 0-0.667-0.083-1-0.25s-0.667-0.417-1-0.75h-0.5l-460-204.5c-3.333-1.667-6.834-2.5-10.5-2.5s-7.166 0.833-10.5 2.5l-461 204.5c0 0.333-0.167 0.583-0.5 0.75s-0.667 0.25-1 0.25l-0.5 0.5c-0.333 0-0.583 0.083-0.75 0.25s-0.417 0.25-0.75 0.25c0 0.333-0.083 0.5-0.25 0.5h-0.25l-0.75 0.75c-0.167 0.167-0.417 0.25-0.75 0.25v0.25c0 0.167-0.167 0.25-0.5 0.25l-3.5 3.5c0 0.333-0.083 0.583-0.25 0.75l-0.75 0.75v0.5c-0.333 0.333-0.583 0.667-0.75 1s-0.417 0.667-0.75 1v0 0.5c-0.333 0-0.5 0.167-0.5 0.5s-0.167 0.5-0.5 0.5v1c-0.333 0.333-0.5 0.583-0.5 0.75v0.75l-0.5 0.5c0 0.333-0.083 0.667-0.25 1s-0.25 0.667-0.25 1v1c0 0.333-0.083 0.583-0.25 0.75s-0.25 0.417-0.25 0.75v566.5c0 5 1.417 9.583 4.25 13.75s6.417 7.25 10.751 9.25l461 205c0.333 0.333 0.667 0.5 1 0.5s0.667 0.167 1 0.5h0.5c0.333 0 0.75 0.083 1.25 0.25s0.917 0.25 1.25 0.25v0 0c1 0.333 1.917 0.5 2.75 0.5h5.5c0.833 0 1.583-0.167 2.25-0.5h0.5c0.333 0 0.667-0.083 1-0.25s0.667-0.25 1-0.25h0.5c0.333-0.333 0.667-0.5 1-0.5s0.667-0.167 1-0.5h0.5l460.5-205c4.667-2 8.417-5.083 11.25-9.25s4.25-8.75 4.25-13.75v-563.5c0-0.333-0.083-0.667-0.25-1s-0.25-0.667-0.25-1v0zM486.499 54l397.5 176.5-397.5 177-398-177 398-176.5zM50.999 270l410 182v507l-410-182v-507zM512 959v-507l409.5-182v507l-409.5 182z"/>
</g>
</svg>
