<?xml version="1.0" encoding="utf-8"?>
<!-- Generator: Adobe Illustrator 17.0.0, SVG Export Plug-In . SVG Version: 6.00 Build 0)  -->
<!DOCTYPE svg PUBLIC "-//W3C//DTD SVG 1.1//EN" "http://www.w3.org/Graphics/SVG/1.1/DTD/svg11.dtd">
<svg version="1.1" id="Layer_1" xmlns="http://www.w3.org/2000/svg" xmlns:xlink="http://www.w3.org/1999/xlink" x="0px" y="0px"
	 width="1025px" height="1024px" viewBox="0 0 1025 1024" enable-background="new 0 0 1025 1024" xml:space="preserve">
<g>
	<path d="M969.654 315.948h-173.65c-29.966 0-54.346 24.392-54.346 54.376v199.868h-64.952c3.61-13.122 4.948-28.6 4.070-46.612v-0.002c-1.41-76.118-15.222-140.27-41.056-190.674-20.060-39.134-43.47-62.596-63.558-76.622 23.578-24.242 37.21-58.728 37.21-98.502 0-71.562-57.086-129.78-127.252-129.78s-127.252 58.218-127.252 129.78c0 8.286 6.716 15 15 15h10.192c-0.938 5.66-1.438 11.428-1.438 17.286 0 50.432 36.036 92.582 83.68 102.028-4.994 18.544-7.476 40.41-7.466 65.25l-37.412 32.178-91.030 7.362-105.006-34.712c-9.624-3.2-20.532-6.816-29.996 0.008-9.326 6.73-9.326 18.512-9.326 22.382v78.070c0 8.286 6.716 15 15 15h17.858l-27.39 94.648c-2.302 7.956 2.282 16.276 10.24 18.578 7.962 2.314 16.276-2.282 18.58-10.238l29.804-102.988h42.644c-53.040 161.744-22.776 269.708 23.742 378.97h-26.964l-112.306-125.572 23.748-82.040c2.304-7.958-2.28-16.276-10.238-18.578s-16.276 2.282-18.58 10.238l-22.714 78.474c-70.252-1.172-133.092 47.264-149.106 116.95-1.854 8.072 3.184 16.12 11.254 17.976l21.294 4.9c-5.44 56.504 31.77 109.814 88.518 122.876 8.618 1.986 17.31 2.966 25.942 2.966 21.288 0 42.202-5.968 60.7-17.562 21.71-13.604 37.886-33.604 46.64-57.24l16.802 3.866c5.006 1.158 9.754 1.744 14.498-0.81 4.414-2.376 7.348-6.666 8.448-11.508 1.056-4.91 1.86-9.9 2.418-14.936h313.716c10.032 62.374 63.102 109.392 126.484 109.392s116.454-47.018 126.486-109.392h11.448s2.272 0.026 2.79 0.026c4.29 0 10.486-0.476 15.574-5.652 2.546-2.59 5.534-7.224 5.304-14.586-0.422-14.086-2.536-27.696-6.144-40.632 11.948-72.536 0.452-116.714-16.59-151.288 10.774-7.062 17.918-19.23 17.918-33.054v-41.226h75.766c29.966 0 54.346-24.392 54.346-54.376v-175.492c0.004-29.982-24.374-54.374-54.342-54.374zM192.162 941.814c-19.202 12.034-41.922 15.86-63.978 10.782h-0.002c-40.596-9.344-67.68-46.57-65.706-86.822l162.706 37.448c-6.732 15.85-18.122 29.256-33.020 38.592zM267.218 882.082l-233.33-53.692c18.006-49.308 66.462-81.948 119.428-79.14l114.302 127.802c-0.1 1.686-0.232 3.362-0.4 5.030zM493.788 620.692c-4.354 11.484-4.354 25.642-4.354 45.24v56.604h-54.926v-77.656c0-87.796 47.916-103.442 69.42-106.024h147.058c-0.592 19.926-5.088 34.090-13.624 43.080-9.948 10.476-26.97 15.58-52.042 15.604l-53.842 0.056c-19.2 0.002-31.88 7.77-37.69 23.096zM489.434 752.534v35.816c-0.136 0-0.276 0-0.42 0h-106.546c1.198-11.108 4.658-19.704 10.34-25.652 8.452-8.844 20.356-10.164 26.7-10.164zM650.324 508.858h-136.414c-5.478-17.238-10.362-36.114-14.378-55.514l41.474-26.92c22.64-14.702 34.418-35.476 32.314-56.998-1.864-19.078-14.834-36.12-33.042-43.414-16.628-6.66-34.526-4.568-50.344 5.546 1.304-14.348 3.732-27.156 7.244-38.028 6.394-0.66 12.744-1.91 18.98-3.744 12.694-2.948 24.424-7.646 35.014-13.876 28.89 17.26 92.43 73.244 99.152 232.948zM389.966 142.782c7.074-47.928 47.498-84.78 96.154-84.78 53.624 0 97.252 44.762 97.252 99.78 0 44.748-21.458 80.814-56.058 96.686v-78.926c0-13.666-5.23-30.43-30.138-32.698-0.452-0.042-0.906-0.062-1.36-0.062zM412.624 190.068c0-5.92 0.674-11.702 2-17.286h80.456c0.926 0.1 1.602 0.208 2.086 0.306 0.078 0.556 0.146 1.356 0.146 2.454v87.752c-3.574 0.526-7.17 0.792-10.764 0.794-0.034 0-0.068 0-0.1 0-40.712-0.038-73.824-33.228-73.824-74.020zM393.178 421.908l35.528-2.874c3.166-0.254 6.168-1.508 8.578-3.578l64.13-55.16c6.2-5.342 12.818-8.082 19.262-8.082 2.868 0 5.702 0.544 8.448 1.644 7.926 3.174 13.554 10.43 14.342 18.482 0.99 10.134-5.686 20.406-18.792 28.918l-71.45 46.376h-60.042v-25.726zM329.786 427.036l33.392-2.7v23.302h-38.802c-5.030 0-6.256-4.18-6.4-7.686-0.082-1.988 0.106-11.956 11.81-12.916zM294.284 416.68c-4.518 7.408-6.628 16.074-6.282 24.5 0.090 2.182 0.368 4.284 0.756 6.332 0 0.042-0.024 0.084-0.016 0.124h-72.672v-56.946l78.272 25.874c-0.024 0.040-0.036 0.078-0.058 0.116zM324.46 477.636h133.202c2.898 0 5.736-0.84 8.166-2.418l6.79-4.408c3.266 14.436 6.986 28.484 11.038 41.752-30.592 9.030-79.15 38.212-79.15 132.316v79.162c-10.524 2.124-22.974 7.032-33.388 17.93-10.978 11.488-17.248 27.054-18.752 46.378h-30.26c-30.492-87.876-42.088-181.388 2.354-310.712zM349.184 856.552c-5.544-12.75-10.888-25.452-15.92-38.202h155.748c20.186 0 30.42-9.19 30.42-27.312v-110.108h118.398c8.286 0 15-6.714 15-15s-6.714-15-15-15h-118.29c0.192-8.52 0.738-15.488 2.3-19.604 0.758-2.002 1.414-3.73 9.652-3.73l53.856-0.056c33.73-0.032 57.86-8.192 73.77-24.948 0.736-0.776 1.432-1.59 2.13-2.4h202.642v41.226c0 5.156-4.346 9.512-9.49 9.512h-149.33c-8.286 0-15 6.714-15 15s6.714 15 15 15h140.516c11.856 22.006 22.52 49.388 21.886 92.65-29.676-41.222-77.718-67.728-132.242-67.728-43.788 0-84.876 17.176-115.698 48.366-27.35 27.674-43.776 63.592-47.156 102.384zM737.1 965.998c-46.892 0-86.44-33.786-96.008-79.392h192.016c-9.57 45.602-49.118 79.392-96.008 79.392zM850.148 856.606h-247.642c7.364-67.826 64.076-120.754 132.724-120.754 60.27 0 110.884 39.742 127.646 95.376 0.054 0.176 0.108 0.352 0.168 0.526 2.37 7.982 4.044 16.29 4.95 24.852zM994 545.816c0 13.442-10.922 24.376-24.346 24.376h-197.996v-77.462h222.342zM994 462.73h-222.342v-31.902h222.342zM994 400.828h-222.342v-30.504c0-13.442 10.922-24.376 24.346-24.376h173.65c13.424 0 24.346 10.936 24.346 24.376z"/>
</g>
</svg>
