<?xml version="1.0" encoding="utf-8"?>
<!-- Generator: Adobe Illustrator 17.0.0, SVG Export Plug-In . SVG Version: 6.00 Build 0)  -->
<!DOCTYPE svg PUBLIC "-//W3C//DTD SVG 1.1//EN" "http://www.w3.org/Graphics/SVG/1.1/DTD/svg11.dtd">
<svg version="1.1" id="Layer_1" xmlns="http://www.w3.org/2000/svg" xmlns:xlink="http://www.w3.org/1999/xlink" x="0px" y="0px"
	 width="1025px" height="1024px" viewBox="0 0 1025 1024" enable-background="new 0 0 1025 1024" xml:space="preserve">
<g>
	<path d="M845 1024h-666c-21 0-39-7.5-54-22.5s-22.5-33-22.5-54v-819.5c0-21 7.5-39 22.5-54s33-22.5 54-22.5h666c21 0 39 7.5 54 22.5s22.5 33 22.5 54v819.5c0 21-7.5 39-22.5 54s-33 22.5-54 22.5v0zM179 102.5c-7 0-13 2.5-18 7.5s-7.5 11-7.5 18v819.5c0 7 2.5 13 7.5 18s11 7.5 18 7.5h666c7 0 13-2.5 18-7.5s7.5-11 7.5-18v-819.5c0-7-2.5-13-7.5-18s-11-7.5-18-7.5h-666zM640 256h-358.5c-7 0-13-2.5-18-7.5s-7.5-11-7.5-18 2.5-13 7.5-18 11-7.5 18-7.5h358.5c7 0 13 2.5 18 7.5s7.5 11 7.5 18-2.5 13-7.5 18-11 7.5-18 7.5v0zM742.5 358.5h-461c-7 0-13-2.5-18-7.5s-7.5-11-7.5-18 2.5-13 7.5-18 11-7.5 18-7.5h461c7 0 13 2.5 18 7.5s7.5 11 7.5 18-2.5 13-7.5 18-11 7.5-18 7.5v0zM742.5 461h-461c-7 0-13-2.5-18-7.5s-7.5-11-7.5-18 2.5-13 7.5-18 11-7.5 18-7.5h461c7 0 13 2.5 18 7.5s7.5 11 7.5 18-2.5 13-7.5 18-11 7.5-18 7.5v0zM537.5 563.5h-256c-7 0-13-2.5-18-7.5s-7.5-11-7.5-18c0-7.333 2.5-13.5 7.5-18.5s11-7.5 18-7.5h256c7 0 13 2.5 18 7.5s7.5 11.167 7.5 18.5c0 7-2.5 13-7.5 18s-11 7.5-18 7.5v0zM742.5 768h-461c-7 0-13-2.5-18-7.5s-7.5-11-7.5-18 2.5-13 7.5-18 11-7.5 18-7.5h461c7 0 13 2.5 18 7.5s7.5 11 7.5 18-2.5 13-7.5 18-11 7.5-18 7.5v0zM640 870.5h-358.5c-7 0-13-2.5-18-7.5s-7.5-11-7.5-18 2.5-13 7.5-18 11-7.5 18-7.5h358.5c7 0 13 2.5 18 7.5s7.5 11 7.5 18-2.5 13-7.5 18-11 7.5-18 7.5v0z"/>
</g>
</svg>
