<?xml version="1.0" encoding="utf-8"?>
<!-- Generator: Adobe Illustrator 17.0.0, SVG Export Plug-In . SVG Version: 6.00 Build 0)  -->
<!DOCTYPE svg PUBLIC "-//W3C//DTD SVG 1.1//EN" "http://www.w3.org/Graphics/SVG/1.1/DTD/svg11.dtd">
<svg version="1.1" id="Layer_1" xmlns="http://www.w3.org/2000/svg" xmlns:xlink="http://www.w3.org/1999/xlink" x="0px" y="0px"
	 width="1025px" height="1024px" viewBox="0 0 1025 1024" enable-background="new 0 0 1025 1024" xml:space="preserve">
<g>
	<path d="M992.969 339.031c19.219 12.812 32.031 51.25 32.031 76.875v512.5c0 51.25-44.844 96.094-96.094 96.094h-832.813c-51.25 0-96.094-44.844-96.094-96.094v-512.5c0-25.625 12.813-57.656 32.031-76.875 70.469-57.656 224.219-179.375 288.281-237.031 44.844-32.031 115.313-102.5 185.781-102.5 76.875 0 147.344 70.469 185.781 102.5 76.875 57.656 224.219 179.375 301.094 237.031zM960.938 928.406v-518.906c0-6.406-6.406-19.219-12.813-25.625-51.25-44.844-243.438-198.594-288.281-230.625-38.437-25.625-102.5-89.688-147.344-89.688s-108.906 64.063-147.344 89.688c-44.844 38.438-237.031 192.188-288.281 230.625-6.406 6.406-12.813 12.813-12.813 25.625v518.906c0 19.219 12.813 32.031 32.031 32.031h832.813c19.219 0 32.031-12.813 32.031-32.031zM909.688 556.844c-44.844 38.438-108.906 89.688-211.406 166.563-44.844 32.031-115.313 102.5-185.781 102.5s-147.344-70.469-185.781-102.5c-96.094-76.875-160.156-128.125-211.406-166.563-12.812-6.406-12.812-25.625-6.406-32.031l12.812-12.813c6.406-12.812 25.625-12.812 32.031-6.406 44.844 38.438 108.906 89.688 205 166.563 32.031 25.625 102.5 89.688 147.344 89.688s115.313-64.063 147.344-89.688c96.094-76.875 160.156-128.125 205-166.563 12.813-6.406 25.625-6.406 32.031 6.406l12.813 12.813c19.219 12.813 12.813 25.625 6.406 32.031z"/>
</g>
</svg>
