<?xml version="1.0" encoding="utf-8"?>
<!-- Generator: Adobe Illustrator 17.0.0, SVG Export Plug-In . SVG Version: 6.00 Build 0)  -->
<!DOCTYPE svg PUBLIC "-//W3C//DTD SVG 1.1//EN" "http://www.w3.org/Graphics/SVG/1.1/DTD/svg11.dtd">
<svg version="1.1" id="Layer_1" xmlns="http://www.w3.org/2000/svg" xmlns:xlink="http://www.w3.org/1999/xlink" x="0px" y="0px"
	 width="1025px" height="1024px" viewBox="0 0 1025 1024" enable-background="new 0 0 1025 1024" xml:space="preserve">
<g>
	<path d="M896 307.5h-819c-21.334 0-39.5 7.5-54.5 22.5s-22.5 33-22.5 54v461c0 21.333 7.5 39.5 22.5 54.5s33.166 22.5 54.5 22.5h819c21.333 0 39.5-7.5 54.5-22.5s22.5-33.167 22.5-54.5v-461c0-21-7.5-39-22.5-54s-33.167-22.5-54.5-22.5v0zM896 358.5c0.667 0 1.417 0.083 2.25 0.25s1.583 0.25 2.25 0.25l-385.5 257c-7.666 5-17.25 7.5-28.75 7.5s-20.916-2.5-28.25-7.5l-385.5-257c0.667 0 1.333-0.083 2-0.25s1.5-0.25 2.5-0.25h819zM896 870.5h-819c-7.334 0-13.5-2.5-18.5-7.5s-7.5-11-7.5-18v-438.5l378.5 252c8 5.333 16.916 9.333 26.75 12s19.917 4 30.25 4c10 0 20-1.333 30-4s18.833-6.667 26.5-12l378.5-252v438.5c0 7-2.5 13-7.5 18s-11 7.5-18 7.5v0z"/>
</g>
</svg>
