<?xml version="1.0" encoding="utf-8"?>
<!-- Generator: Adobe Illustrator 17.0.0, SVG Export Plug-In . SVG Version: 6.00 Build 0)  -->
<!DOCTYPE svg PUBLIC "-//W3C//DTD SVG 1.1//EN" "http://www.w3.org/Graphics/SVG/1.1/DTD/svg11.dtd">
<svg version="1.1" id="Layer_1" xmlns="http://www.w3.org/2000/svg" xmlns:xlink="http://www.w3.org/1999/xlink" x="0px" y="0px"
	 width="1025px" height="1024px" viewBox="0 0 1025 1024" enable-background="new 0 0 1025 1024" xml:space="preserve">
<g>
	<path d="M917 284.5l-373.5-228c-8-5-16.833-8.75-26.5-11.25s-19.833-3.75-30.5-3.75-20.916 1.25-30.75 3.75-18.584 6.25-26.25 11.25l-373.5 228c-16 9.667-29.334 24-40 43s-16 37.833-16 56.5v461c0 21.333 7.5 39.5 22.5 54.5s33.166 22.5 54.5 22.5h819c21.333 0 39.5-7.5 54.5-22.5s22.5-33.167 22.5-54.5v-461c0-18.667-5.333-37.5-16-56.5s-24-33.333-40-43v0zM82.499 328l373.5-228c3.667-2.333 8.166-4.167 13.5-5.5s11-2 17-2c5.666 0 11.166 0.667 16.5 2s9.833 3.167 13.5 5.5l373.5 228c4 2.667 7.833 6 11.5 10s7 8.5 10 13.5l-396.5 264.5c-7.666 5-17.25 7.5-28.75 7.5s-20.916-2.5-28.25-7.5l-396.5-264.5c2.667-5 5.833-9.5 9.499-13.5s7.5-7.333 11.5-10v0zM896 870.5h-819c-7.334 0-13.5-2.5-18.5-7.5s-7.5-11-7.5-18v-438.5l378.5 252c8 5.333 16.916 9.333 26.75 12s19.917 4 30.25 4c10 0 20-1.333 30-4s18.833-6.667 26.5-12l378.5-252v438.5c0 7-2.5 13-7.5 18s-11 7.5-18 7.5v0z"/>
</g>
</svg>
