<?xml version="1.0" encoding="utf-8"?>
<!-- Generator: Adobe Illustrator 17.0.0, SVG Export Plug-In . SVG Version: 6.00 Build 0)  -->
<!DOCTYPE svg PUBLIC "-//W3C//DTD SVG 1.1//EN" "http://www.w3.org/Graphics/SVG/1.1/DTD/svg11.dtd">
<svg version="1.1" id="Layer_1" xmlns="http://www.w3.org/2000/svg" xmlns:xlink="http://www.w3.org/1999/xlink" x="0px" y="0px"
	 width="1025px" height="1024px" viewBox="0 0 1025 1024" enable-background="new 0 0 1025 1024" xml:space="preserve">
<g>
	<path d="M128 1024c-7 0-13-2.5-18-7.5s-7.5-11-7.5-18v-409.5c0-7 2.5-13 7.5-18s11-7.5 18-7.5 13 2.5 18 7.5 7.5 11 7.5 18v409.5c0 7-2.5 13-7.5 18s-11 7.5-18 7.5v0zM128 307.5c-7 0-13-2.5-18-7.5s-7.5-11-7.5-18v-256c0-7.333 2.5-13.5 7.5-18.5s11-7.5 18-7.5 13 2.5 18 7.5 7.5 11.167 7.5 18.5v256c0 7-2.5 13-7.5 18s-11 7.5-18 7.5v0zM179 512h-102c-21.334 0-39.5-7.5-54.5-22.5s-22.5-33-22.5-54c0-21.333 7.5-39.5 22.5-54.5s33.166-22.5 54.5-22.5h102c21.334 0 39.5 7.5 54.5 22.5s22.5 33.167 22.5 54.5c0 21-7.5 39-22.5 54s-33.166 22.5-54.5 22.5v0zM77 410c-7.334 0-13.5 2.5-18.5 7.5s-7.5 11-7.5 18 2.5 13 7.5 18 11.166 7.5 18.5 7.5h102c7.333 0 13.5-2.5 18.5-7.5s7.5-11 7.5-18-2.5-13-7.5-18-11.166-7.5-18.5-7.5h-102zM486.5 1024c-7 0-13-2.5-18-7.5s-7.5-11-7.5-18v-204.5c0-7.333 2.5-13.5 7.5-18.5s11-7.5 18-7.5 13 2.5 18 7.5 7.5 11.167 7.5 18.5v204.5c0 7-2.5 13-7.5 18s-11 7.5-18 7.5v0zM486.5 512c-7 0-13-2.5-18-7.5s-7.5-11-7.5-18v-460.5c0-7.333 2.5-13.5 7.5-18.5s11-7.5 18-7.5 13 2.5 18 7.5 7.5 11.167 7.5 18.5v460.5c0 7-2.5 13-7.5 18s-11 7.5-18 7.5v0zM537.5 717h-102.5c-21 0-39-7.5-54-22.5s-22.5-33.167-22.5-54.5c0-21 7.5-39 22.5-54s33-22.5 54-22.5h102.5c21.333 0 39.5 7.5 54.5 22.5s22.5 33 22.5 54c0 21.333-7.5 39.5-22.5 54.5s-33.167 22.5-54.5 22.5v0zM435 614.5c-7 0-13 2.5-18 7.5s-7.5 11-7.5 18c0 7.333 2.5 13.5 7.5 18.5s11 7.5 18 7.5h102.5c7 0 13-2.5 18-7.5s7.5-11.167 7.5-18.5c0-7-2.5-13-7.5-18s-11-7.5-18-7.5h-102.5zM845 1024c-7.333 0-13.5-2.5-18.5-7.5s-7.5-11-7.5-18v-512c0-7 2.5-13 7.5-18s11.167-7.5 18.5-7.5c7 0 13 2.5 18 7.5s7.5 11 7.5 18v512c0 7-2.5 13-7.5 18s-11 7.5-18 7.5v0zM845 205c-7.333 0-13.5-2.5-18.5-7.5s-7.5-11-7.5-18v-153.5c0-7.333 2.5-13.5 7.5-18.5s11.167-7.5 18.5-7.5c7 0 13 2.5 18 7.5s7.5 11.167 7.5 18.5v153.5c0 7-2.5 13-7.5 18s-11 7.5-18 7.5v0zM896 410h-102.5c-21 0-39-7.5-54-22.5s-22.5-33.167-22.5-54.5 7.5-39.5 22.5-54.5 33-22.5 54-22.5h102.5c21.333 0 39.5 7.5 54.5 22.5s22.5 33.167 22.5 54.5-7.5 39.5-22.5 54.5-33.167 22.5-54.5 22.5v0zM793.5 307.5c-7 0-13 2.5-18 7.5s-7.5 11-7.5 18 2.5 13 7.5 18 11 7.5 18 7.5h102.5c7 0 13-2.5 18-7.5s7.5-11 7.5-18-2.5-13-7.5-18-11-7.5-18-7.5h-102.5z"/>
</g>
</svg>
