<?xml version="1.0" encoding="utf-8"?>
<!-- Generator: Adobe Illustrator 17.0.0, SVG Export Plug-In . SVG Version: 6.00 Build 0)  -->
<!DOCTYPE svg PUBLIC "-//W3C//DTD SVG 1.1//EN" "http://www.w3.org/Graphics/SVG/1.1/DTD/svg11.dtd">
<svg version="1.1" id="Layer_1" xmlns="http://www.w3.org/2000/svg" xmlns:xlink="http://www.w3.org/1999/xlink" x="0px" y="0px"
	 width="1025px" height="1024px" viewBox="0 0 1025 1024" enable-background="new 0 0 1025 1024" xml:space="preserve">
<g>
	<path d="M1017.5 520.5l-12-12.5c-7.333-7.666-17.5-17.583-30.5-29.75s-28.75-26-47.25-41.5-39.083-31.417-61.75-47.75c-13.333-9.667-26.75-18.75-40.25-27.25l-40.25-24.25c-13.333-7.667-26.667-14.75-40-21.25s-26.5-12.583-39.5-18.25c-16.667-7-33.25-13.083-49.75-18.25s-32.917-9.5-49.25-13-32.417-6.167-48.25-8-31.417-2.75-46.75-2.75-30.917 0.917-46.75 2.75-31.917 4.5-48.25 8-32.75 7.833-49.25 13-33.084 11.25-49.75 18.25c-13 5.667-26.166 11.75-39.5 18.25s-26.667 13.583-40 21.25l-40.25 24.25c-13.5 8.5-26.916 17.583-40.25 27.25-22.666 16.333-43.25 32.25-61.75 47.75s-34.25 29.334-47.25 41.5-23.166 22.083-30.5 29.75l-12 12.5c-4.333 5-6.5 10.75-6.5 17.25s2.167 12.25 6.5 17.25l12 12.5c7.334 7.667 17.5 17.667 30.5 30s28.75 26.25 47.25 41.75 39.084 31.25 61.75 47.25c13.334 9.667 26.75 18.833 40.25 27.5s26.916 16.75 40.25 24.25 26.667 14.5 40 21 26.5 12.584 39.5 18.25c16.666 7 33.25 13.084 49.75 18.25s32.916 9.5 49.25 13 32.417 6.167 48.25 8 31.417 2.75 46.75 2.75 30.917-0.917 46.75-2.75 31.917-4.5 48.25-8 32.75-7.833 49.25-13 33.083-11.25 49.75-18.25c13-5.667 26.167-11.75 39.5-18.25s26.667-13.5 40-21 26.75-15.584 40.25-24.25 26.917-17.833 40.25-27.5c22.667-16 43.25-31.75 61.75-47.25s34.25-29.417 47.25-41.75 23.167-22.333 30.5-30l12-12.5c4.333-5 6.5-10.75 6.5-17.25s-2.167-12.25-6.5-17.25v0zM644 330c11.333 9.667 21.585 20.417 30.752 32.25s16.833 24.417 23 37.75 10.917 27.333 14.25 42 5 29.5 5 44.5c0 28.334-5.417 54.917-16.25 79.75s-25.5 46.5-44 65-40.167 33.167-65 44-51.417 16.25-79.75 16.25-54.917-5.417-79.75-16.25-46.5-25.5-65-44-33.166-40.167-44-65-16.25-51.417-16.25-79.75c0-15 1.667-29.833 5-44.5s8.084-28.667 14.25-42 13.833-25.917 23-37.75 19.416-22.583 30.75-32.25c21.334-7 43-12.5 65-16.5s44.334-6 67-6 45 2 67 6 43.667 9.5 65 16.5v0zM835.5 645.5c-19.667 14-41.751 28.25-66.251 42.75s-50.583 27.667-78.25 39.5-56.583 21.5-86.75 29-60.917 11.25-92.25 11.25-62.084-3.75-92.25-11.25-59.083-17.167-86.75-29-53.75-25-78.25-39.5-46.584-28.75-66.25-42.75c-14.666-10.333-28.5-20.75-41.5-31.25l-35.75-29.75-29-26-21.25-20.5c5.666-6 12.75-13 21.25-21l29-26 35.75-29.5 41.5-31.5c13.666-9.667 28.416-19.5 44.25-29.5s32.75-19.667 50.75-29c-9 17.667-15.834 36.167-20.5 55.5s-7 39.167-7 59.5c0 35.334 6.75 68.584 20.25 99.75s31.834 58.333 55 81.5 50.25 41.417 81.25 54.75 64.166 20 99.5 20 68.5-6.667 99.5-20 58.083-31.583 81.25-54.75 41.5-50.333 55-81.5 20.25-64.416 20.25-99.75c0-20.334-2.333-40.167-7-59.5s-11.5-37.833-20.5-55.5c18 9.333 34.917 19 50.75 29s30.583 19.833 44.25 29.5l41.5 31.5 35.75 29.5 29 26c8.5 8 15.583 15 21.25 21l-21.25 20.5-29 26-35.75 29.75c-13 10.5-26.833 20.917-41.5 31.25v0z"/>
</g>
</svg>
