<?xml version="1.0" encoding="utf-8"?>
<!-- Generator: Adobe Illustrator 17.0.0, SVG Export Plug-In . SVG Version: 6.00 Build 0)  -->
<!DOCTYPE svg PUBLIC "-//W3C//DTD SVG 1.1//EN" "http://www.w3.org/Graphics/SVG/1.1/DTD/svg11.dtd">
<svg version="1.1" id="Layer_1" xmlns="http://www.w3.org/2000/svg" xmlns:xlink="http://www.w3.org/1999/xlink" x="0px" y="0px"
	 width="1025px" height="1024px" viewBox="0 0 1025 1024" enable-background="new 0 0 1025 1024" xml:space="preserve">
<g>
	<path d="M1024 513.889c0 283.395-230.494 513.889-513.889 513.889s-510.111-230.494-510.111-513.889 230.494-513.889 513.889-513.889 510.111 230.494 510.111 513.889zM921.978 687.705c22.672-56.679 34.007-113.358 34.007-173.815s-11.336-117.137-34.007-173.815c-22.672-52.9-52.9-102.022-94.465-143.587s-90.686-71.793-143.587-94.465c-56.679-22.672-113.358-34.007-173.815-34.007-56.679-3.779-117.137 11.336-170.037 34.007s-102.022 52.9-143.587 94.465c-41.565 41.565-71.793 90.686-94.465 143.587-22.672 56.679-34.007 113.358-34.007 173.815s11.336 117.137 34.007 173.815c22.672 52.9 52.9 102.022 94.465 143.587 41.565 37.786 90.686 68.015 143.587 90.686 56.679 22.672 113.358 34.007 173.815 34.007s117.137-11.336 173.815-34.007c52.9-22.672 102.022-52.9 143.587-94.465 37.786-41.565 71.793-86.908 90.686-139.808zM748.162 699.041c-60.458 71.793-143.587 109.579-238.052 109.579s-177.594-41.565-238.052-109.579c-26.45-34.007 22.672-75.572 49.122-41.565 45.343 56.679 113.358 86.908 185.151 86.908s139.808-30.229 185.151-86.908c34.007-34.007 86.908 7.557 56.679 41.565zM279.616 411.867c0-37.786 30.229-68.015 68.015-68.015s68.015 30.229 68.015 68.015-30.229 68.015-68.015 68.015-68.015-30.229-68.015-68.015zM801.063 442.096c3.779 22.672-22.672 37.786-41.565 22.672l-18.893-18.893c-30.229-26.45-94.465-26.45-124.694 0l-18.893 18.893c-18.893 15.114-45.343 0-41.565-22.672 7.557-52.9 71.793-86.908 124.694-86.908s113.358 34.007 120.915 86.908z"/>
</g>
</svg>
