<?xml version="1.0" encoding="utf-8"?>
<!-- Generator: Adobe Illustrator 17.0.0, SVG Export Plug-In . SVG Version: 6.00 Build 0)  -->
<!DOCTYPE svg PUBLIC "-//W3C//DTD SVG 1.1//EN" "http://www.w3.org/Graphics/SVG/1.1/DTD/svg11.dtd">
<svg version="1.1" id="Layer_1" xmlns="http://www.w3.org/2000/svg" xmlns:xlink="http://www.w3.org/1999/xlink" x="0px" y="0px"
	 width="1025px" height="1024px" viewBox="0 0 1025 1024" enable-background="new 0 0 1025 1024" xml:space="preserve">
<g>
	<path d="M1025 159.656v64.063c0 19.219-12.813 32.031-32.031 32.031h-416.406v32.031c0 19.219-12.813 32.031-32.031 32.031h-64.063c-19.219 0-32.031-12.813-32.031-32.031v-32.031h-416.406c-19.219 0-32.031-12.813-32.031-32.031v-64.063c0-19.219 12.813-32.031 32.031-32.031h416.406v-32.031c0-19.219 12.813-32.031 32.031-32.031h64.063c19.219 0 32.031 12.813 32.031 32.031v32.031h416.406c19.219 0 32.031 12.813 32.031 32.031zM1025 479.969v64.063c0 19.219-12.813 32.031-32.031 32.031h-160.156v32.031c0 19.219-12.813 32.031-32.031 32.031h-64.063c-19.219 0-32.031-12.813-32.031-32.031v-32.031h-672.656c-19.219 0-32.031-12.813-32.031-32.031v-64.063c0-19.219 12.813-32.031 32.031-32.031h672.656v-32.031c0-19.219 12.813-32.031 32.031-32.031h64.063c19.219 0 32.031 12.813 32.031 32.031v32.031h160.156c19.219 0 32.031 12.813 32.031 32.031zM1025 800.281v64.063c0 19.219-12.813 32.031-32.031 32.031h-672.656v32.031c0 19.219-12.813 32.031-32.031 32.031h-64.063c-19.219 0-32.031-12.813-32.031-32.031v-32.031h-160.156c-19.219 0-32.031-12.813-32.031-32.031v-64.063c0-19.219 12.813-32.031 32.031-32.031h160.156v-32.031c0-19.219 12.813-32.031 32.031-32.031h64.063c19.219 0 32.031 12.813 32.031 32.031v32.031h672.656c19.219 0 32.031 12.813 32.031 32.031z"/>
</g>
</svg>
