<?xml version="1.0" encoding="utf-8"?>
<!-- Generator: Adobe Illustrator 17.0.0, SVG Export Plug-In . SVG Version: 6.00 Build 0)  -->
<!DOCTYPE svg PUBLIC "-//W3C//DTD SVG 1.1//EN" "http://www.w3.org/Graphics/SVG/1.1/DTD/svg11.dtd">
<svg version="1.1" id="Layer_1" xmlns="http://www.w3.org/2000/svg" xmlns:xlink="http://www.w3.org/1999/xlink" x="0px" y="0px"
	 width="1025px" height="1024px" viewBox="0 0 1025 1024" enable-background="new 0 0 1025 1024" xml:space="preserve">
<g>
	<path d="M45.343 0c15.114 0 26.45 11.336 26.45 26.45v226.716c86.908-151.144 253.166-253.166 442.096-253.166 283.395 0 510.111 230.494 510.111 513.889s-230.494 510.111-513.889 510.111c-132.251 0-253.166-49.122-343.852-132.251-11.336-11.336-11.336-26.45 0-37.786l15.114-15.114c7.557-7.557 22.672-11.336 34.007 0 79.351 71.793 181.373 113.358 294.731 113.358 241.83 0 442.096-196.487 442.096-442.096 0-241.83-196.487-442.096-442.096-442.096-170.037 3.779-317.402 98.244-389.196 241.83h238.052c15.114 0 26.45 11.336 26.45 26.45v18.893c0 15.114-11.336 26.45-26.45 26.45h-332.517c-15.114 0-26.45-11.336-26.45-26.45v-328.738c0-15.114 11.336-26.45 26.45-26.45h18.893z"/>
</g>
</svg>
