<?xml version="1.0" encoding="utf-8"?>
<!-- Generator: Adobe Illustrator 17.0.0, SVG Export Plug-In . SVG Version: 6.00 Build 0)  -->
<!DOCTYPE svg PUBLIC "-//W3C//DTD SVG 1.1//EN" "http://www.w3.org/Graphics/SVG/1.1/DTD/svg11.dtd">
<svg version="1.1" id="Layer_1" xmlns="http://www.w3.org/2000/svg" xmlns:xlink="http://www.w3.org/1999/xlink" x="0px" y="0px"
	 width="1025px" height="1024px" viewBox="0 0 1025 1024" enable-background="new 0 0 1025 1024" xml:space="preserve">
<g>
	<path d="M995.010 407.21c-3.738-0.446-7.484-0.86-11.222-1.298l-96.751-126.929c-40.336-52.934-100.77-83.292-165.795-83.292-8.297 0-15.015 6.717-15.015 15.015s6.717 15.015 15.015 15.015c55.57 0 107.3 26.049 141.912 71.46l79.366 104.141c-130.807-13.849-263.382-21.443-394.854-22.585-0.047 0-0.086 0-0.133 0-8.235 0-14.944 6.639-15.015 14.89-0.070 8.297 6.592 15.077 14.89 15.148 147.996 1.275 297.392 10.784 444.050 28.262 1.971 0.235 3.511 2.283 3.511 4.669v20.872c0 2.643-1.908 4.919-4.325 4.645-309.536-37.13-631.913-38.921-956.285-0.023-2.463 0.266-4.325-2.041-4.325-4.645v-20.872c0-2.385 1.541-4.434 3.511-4.669 146.667-17.47 296.070-26.972 444.050-28.246 8.289-0.070 14.952-6.85 14.882-15.14-0.070-8.25-6.78-14.89-15.007-14.89-0.047 0-0.094 0-0.133 0-131.456 1.134-264.023 8.719-394.838 22.561l79.351-104.117c34.612-45.411 86.334-71.46 141.912-71.46 8.289 0 15.015-6.717 15.015-15.015 0-8.289-6.725-15.015-15.015-15.015-65.024 0-125.451 30.358-165.795 83.292l-96.735 126.913c-3.746 0.43-7.5 0.852-11.245 1.298-17.103 2.033-29.99 16.86-29.99 34.487v20.872c0 19.66 15.969 35.48 35.433 34.628l10.964 155.495c4.411 62.475 46.272 116.473 104.164 134.373l107.527 33.236c67.558 20.888 140.277-11.144 172.395-76.888 18.057 1.627 35.675-8.25 43.644-25.971l14.154-31.499c4.59-10.205 13.638-16.297 24.211-16.297 10.581 0 19.636 6.092 24.219 16.297l14.162 31.499c8.063 17.947 25.908 27.605 43.66 26.002 31.961 65.4 104.5 97.845 172.379 76.856l107.527-33.236c57.9-17.9 99.754-71.898 104.156-134.373l0.829-11.66c0.579-8.274-5.654-15.453-13.928-16.031-8.242-0.618-15.445 5.646-16.031 13.92l-0.821 11.66c-3.543 50.205-36.927 93.521-83.073 107.793l-107.527 33.236c-54.17 16.743-110.866-8.891-136.438-61.099 12.716-12.981 16.766-33.384 8.915-50.839-15.695-34.933-14.71-32.845-16.586-36.559-19.832-39.304-58.213-63.492-101.443-63.492-45.060 0-84.856 26.268-103.859 68.551-12.45 27.691-31.39 55.539-5.239 82.338-25.572 52.199-82.276 77.842-136.438 61.099l-107.527-33.243c-46.147-14.264-79.531-57.58-83.073-107.785l-11.050-156.708c292.426-33.009 593.219-34.002 894.388 0.023l-5.286 74.948c-0.587 8.274 5.646 15.453 13.92 16.039 8.266 0.547 15.453-5.646 16.031-13.928l5.2-73.705c0.485 0.016 0.97 0.039 1.455 0.039 18.753 0 33.986-15.499 33.986-34.698v-20.872c0-17.627-12.895-32.454-29.99-34.495zM578.267 705.118l-14.162-31.507c-9.431-20.974-29.208-34.010-51.605-34.010s-42.174 13.036-51.605 34.010l-14.162 31.507c-3.339 7.429-11.41 10.385-18.080 7.132-7.179-3.496-10.237-12.583-6.788-20.278l14.162-31.499c14.358-31.937 44.020-50.831 76.457-50.831 33.087 0 62.397 19.48 76.489 50.831l14.162 31.499c3.456 7.687 0.399 16.774-6.78 20.278-0.008 0-0.008 0-0.016 0.008-6.702 3.245-14.741 0.266-18.072-7.14zM578.267 705.118z"/>
</g>
</svg>
