<?xml version="1.0" encoding="utf-8"?>
<!-- Generator: Adobe Illustrator 17.0.0, SVG Export Plug-In . SVG Version: 6.00 Build 0)  -->
<!DOCTYPE svg PUBLIC "-//W3C//DTD SVG 1.1//EN" "http://www.w3.org/Graphics/SVG/1.1/DTD/svg11.dtd">
<svg version="1.1" id="Layer_1" xmlns="http://www.w3.org/2000/svg" xmlns:xlink="http://www.w3.org/1999/xlink" x="0px" y="0px"
	 width="1025px" height="1024px" viewBox="0 0 1025 1024" enable-background="new 0 0 1025 1024" xml:space="preserve">
<g>
	<path d="M979.652 327.388c-5.912-11.488-16.32-19.958-28.838-23.155l-0.31-0.067c-21.045-6.35-41.344 6.839-61.244 40.215 3.732-57.84-0.376-112.109-22.502-139.961-8.981-11.678-22.674-19.35-38.184-20.151l-0.125-0.005c-0.786-0.053-1.704-0.083-2.629-0.083-11.066 0-21.12 4.335-28.555 11.399l0.018-0.017c-4.885 4.685-8.956 10.173-12.009 16.259l-0.155 0.342c-9.105-40.84-27.539-71.27-66.425-71.27-0.132-0.001-0.287-0.002-0.443-0.002-14.032 0-26.658 6.025-35.43 15.628l-0.033 0.037c-15.495 16.304-25.185 45.717-29.357 90.216-12.012-27.283-26.962-45.797-44.139-53.732-5.348-2.654-11.646-4.207-18.306-4.207-9.042 0-17.416 2.862-24.264 7.73l0.129-0.087c-8.6 5.822-34.249 23.223-28.828 141.274q-33.897 13.902-72.519 65.712c25.217-130.327 35.995-280.962-7.343-310.375-6.717-4.779-15.088-7.641-24.127-7.641-6.664 0-12.965 1.555-18.56 4.323l0.245-0.11c-17.177 7.936-32.143 26.426-44.139 53.74-4.172-44.499-13.862-73.912-29.365-90.224-8.802-9.627-21.416-15.642-35.435-15.642-0.169 0-0.337 0.001-0.506 0.003l0.026-0c-38.886 0-57.32 30.39-66.417 71.27-3.215-6.422-7.284-11.906-12.144-16.573l-0.020-0.019c-7.386-7.054-17.415-11.395-28.458-11.395-0.947 0-1.887 0.032-2.819 0.095l0.126-0.007c-15.641 0.801-29.341 8.474-38.236 20.035l-0.089 0.121c-22.11 27.771-26.226 82.040-22.502 139.84-19.835-33.329-39.967-46.549-60.659-40.295-13.067 3.202-23.695 11.756-29.614 23.148l-0.119 0.251c-21.909 42.153 10.899 129.070 37.268 198.938 2.538 6.735 5.005 13.245 7.311 19.467 27.275 73.312 63.822 277.791 66.072 403.418l0.32 8.328c0.245 6.102 4.353 11.181 9.934 12.875l0.099 0.026c27.964 6.887 60.068 10.837 93.095 10.837 3.144 0 6.28-0.036 9.407-0.107l-0.466 0.008c48.255 0 99.777-5.646 132.353-19.259 4.837-2.057 8.238-6.622 8.582-12.019l0.002-0.041q0.376-6.054 0.504-11.627l0.176-5.718c-0.001-0.258-0.002-0.563-0.002-0.869 0-17.696 1.887-34.951 5.472-51.574l-0.289 1.602c0.056-0.184 0.224-0.801 0.272-1.017 7.623-31.895 27.026-66.585 61.004-109.114 24.482 39.568 48.143 73.167 73.554 105.321l-1.772-2.324c34.169 42.722 53.652 77.524 61.308 109.571l0.208 0.801c3.33 15.073 5.238 32.386 5.238 50.145 0 0.259-0 0.518-0.001 0.777l0-0.040 0.168 5.605c0.088 3.876 0.248 7.752 0.504 11.804 0.36 5.418 3.754 9.963 8.485 11.977l0.091 0.035c32.568 13.613 84.082 19.259 132.345 19.259 2.662 0.063 5.798 0.099 8.942 0.099 33.029 0 65.136-3.951 95.873-11.405l-2.771 0.568c5.689-1.718 9.803-6.806 10.041-12.89l0.001-0.027 0.32-8.6c2.218-125.314 38.798-329.818 66.072-403.129 2.306-6.214 4.805-12.74 7.311-19.483 26.37-69.772 59.178-156.713 37.268-198.834zM388.235 770.652c-0.056 0.2-0.232 0.849-0.28 1.065-3.803 16.965-5.982 36.449-5.982 56.441 0 0.053 0 0.105 0 0.158l-0-0.008-0.176 5.798c0 0.553 0 1.105-0.040 1.658-52.355 17.617-150.851 16.888-197.793 6.855-2.691-128.053-39.943-335.151-67.77-409.944-2.33-6.262-4.805-12.813-7.359-19.603-21.805-57.776-54.749-145.094-38.622-176.1 2.454-4.814 6.939-8.293 12.294-9.327l0.11-0.018c7.287-2.25 33.361 14.662 66.465 117.491 1.953 5.542 7.145 9.443 13.247 9.443 7.74 0 14.014-6.274 14.014-14.014 0-0.77-0.062-1.525-0.181-2.261l0.011 0.081c-19.339-110.244-17.849-192.444 4.004-219.887 4.092-5.61 10.53-9.296 17.842-9.608l0.048-0.002c0.325-0.028 0.702-0.044 1.084-0.044 3.678 0 7.011 1.475 9.44 3.865l-0.002-0.002c19.939 18.602 21.029 91.705 21.389 115.729 0.121 7.615 6.294 13.748 13.912 13.805l0.006 0h0.096c7.599-0.001 13.786-6.048 14.013-13.592l0-0.021 0.208-7.495c1.93-69.3 4.332-155.544 48.047-155.544 0.079-0.001 0.173-0.002 0.267-0.002 6.098 0 11.57 2.678 15.305 6.922l0.019 0.023c20.084 21.125 27.683 83.441 22.486 185.213 0 0.424-2.579 43.306-10.41 106.104-0.069 0.523-0.109 1.127-0.109 1.741 0 7.124 5.319 13.006 12.203 13.891l0.070 0.007c0.519 0.071 1.119 0.112 1.728 0.112 0.012 0 0.023-0 0.035-0l-0.002 0c7.12-0.007 12.996-5.325 13.878-12.206l0.007-0.070c7.575-60.635 10.298-103.061 10.57-107.489 10.354-92.763 36.171-135.933 55.15-144.701 1.894-1.027 4.147-1.631 6.541-1.631 3.174 0 6.101 1.061 8.443 2.849l-0.034-0.025c27.595 18.722 24.216 179.271-21.485 358.181-0.278 1.043-0.438 2.241-0.438 3.475 0 7.74 6.274 14.014 14.014 14.014 5.212 0 9.759-2.845 12.173-7.066l0.036-0.069c41.232-73.087 81.007-117.923 109.443-123.617 0.432-0.088 0.881-0.248 1.305-0.312 1.289-0.225 2.774-0.353 4.289-0.353 7.38 0 14.047 3.052 18.807 7.962l0.006 0.007c35.106 32.031-41.561 171.647-113.367 265.931-0.296 0.36-0.585 0.721-0.841 1.097-3.852 5.037-7.688 9.978-11.483 14.726-36.86 46.037-58.017 84.33-66.633 120.365zM916.166 516.452c-2.562 6.791-5.037 13.349-7.367 19.603-27.851 74.865-65.136 282.187-67.77 409.952-46.966 10.034-145.462 10.738-197.793-6.855l-0.048-1.81-0.16-5.734c0-0.065 0-0.141 0-0.218 0-19.989-2.179-39.469-6.312-58.215l0.33 1.786-0.216-0.801c-8.64-36.147-29.829-74.433-66.681-120.502-25.152-31.778-50.036-67.497-72.737-104.695l-2.697-4.756c15.679-21.253 39.334-54.837 61.716-92.314q11.051 17.161 21.877 36.339c2.445 4.312 7.004 7.174 12.231 7.174 7.74 0 14.014-6.274 14.014-14.014 0-1.243-0.162-2.449-0.466-3.596l0.022 0.098c-6.671-25.857-12.676-53.004-17.938-80.655 29.301-60.347 45.108-120.421 13.325-149.426-8.841-8.438-20.498-13.993-33.424-15.12l-0.209-0.015c-2.891-72.695 6.935-106.328 16.728-112.966 2.313-1.774 5.247-2.842 8.431-2.842 2.395 0 4.649 0.605 6.617 1.67l-0.074-0.036c18.987 8.809 44.796 51.947 55.15 144.701 0.264 4.38 2.979 46.822 10.57 107.497 0.893 6.949 6.767 12.266 13.884 12.276l0.001 0c0.010 0 0.022 0 0.033 0 0.607 0 1.204-0.041 1.789-0.12l-0.068 0.008c6.957-0.893 12.279-6.778 12.279-13.906 0-0.611-0.039-1.213-0.115-1.803l0.007 0.070c-7.744-61.996-10.33-104.502-10.41-105.983-5.181-101.835 2.402-164.16 22.422-185.325 3.753-4.271 9.227-6.952 15.328-6.952 0.093 0 0.185 0.001 0.278 0.002l-0.014-0c43.755 0 46.157 86.244 48.047 155.528l0.208 7.511v0.128c1.722 46.221 0 98.824 0 99.353-0.005 0.141-0.008 0.306-0.008 0.472 0 7.575 6.013 13.745 13.526 13.998l0.023 0.001h0.472c7.573-0.005 13.74-6.015 13.997-13.526l0.001-0.024c0-0.529 1.746-53.78 0-100.898 0.368-24.328 1.521-96.895 21.381-115.401 2.415-2.391 5.738-3.868 9.407-3.868 0.398 0 0.793 0.017 1.182 0.052l-0.050-0.004c7.355 0.312 13.789 3.999 17.827 9.543l0.046 0.066c21.829 27.451 23.311 109.643 4.004 219.887-0.138 0.739-0.217 1.588-0.217 2.456 0 7.74 6.274 14.014 14.014 14.014 6.217 0 11.488-4.048 13.322-9.652l0.028-0.099c33.112-102.908 59.258-119.677 67.025-117.322 5.235 1.114 9.505 4.512 11.783 9.078l0.045 0.099c16.152 30.974-16.792 118.283-38.598 176.060z"/>
</g>
</svg>
