<?xml version="1.0" encoding="utf-8"?>
<!-- Generator: Adobe Illustrator 17.0.0, SVG Export Plug-In . SVG Version: 6.00 Build 0)  -->
<!DOCTYPE svg PUBLIC "-//W3C//DTD SVG 1.1//EN" "http://www.w3.org/Graphics/SVG/1.1/DTD/svg11.dtd">
<svg version="1.1" id="Layer_1" xmlns="http://www.w3.org/2000/svg" xmlns:xlink="http://www.w3.org/1999/xlink" x="0px" y="0px"
	 width="1025px" height="1024px" viewBox="0 0 1025 1024" enable-background="new 0 0 1025 1024" xml:space="preserve">
<g>
	<path stroke="null" id="svg_2" d="m944.406413,543.11654l-386.896975,404.763269c-8.502904,8.611646 -25.509585,17.224176 -42.516266,17.224176s-34.013362,-8.611646 -46.767718,-21.529999l-386.896975,-404.763269c-110.542117,-111.955817 -102.039213,-305.725805 21.258133,-417.680738c127.548798,-107.649993 289.110086,-55.977467 369.891166,25.835822l42.516266,43.059997l38.264814,-43.059997c102.039213,-103.34417 263.600501,-120.567463 369.891166,-25.835822c127.548798,111.955817 136.051703,305.725805 21.258133,421.987444l-0.001744,-0.000883zm-59.522947,-370.314918c-110.542117,-94.731641 -238.090916,-25.835822 -284.858634,21.529999l-85.032532,90.425818l-85.032532,-90.425818c-46.767718,-47.36582 -174.316517,-116.26164 -284.858634,-21.529999c-106.290665,94.731641 -93.535437,245.441632 -17.006681,327.25492l386.896975,404.763269l382.645523,-404.763269c80.78108,-81.814172 93.535437,-236.829102 -12.755229,-327.25492l0.001744,0z"/>
</g>
</svg>
