<?xml version="1.0" encoding="utf-8"?>
<!-- Generator: Adobe Illustrator 17.0.0, SVG Export Plug-In . SVG Version: 6.00 Build 0)  -->
<!DOCTYPE svg PUBLIC "-//W3C//DTD SVG 1.1//EN" "http://www.w3.org/Graphics/SVG/1.1/DTD/svg11.dtd">
<svg version="1.1" id="Layer_1" xmlns="http://www.w3.org/2000/svg" xmlns:xlink="http://www.w3.org/1999/xlink" x="0px" y="0px"
	 width="1025px" height="1024px" viewBox="0 0 1025 1024" enable-background="new 0 0 1025 1024" xml:space="preserve">
<g>
	<path d="M512 1024c-47 0-92.75-6.25-137.25-18.75s-86.25-30.333-125.25-53.5-74.584-51.417-106.75-84.75-59.416-70.833-81.75-112.5c-3.333-6-4-12.417-2-19.25s6.166-11.917 12.5-15.25c6-3.333 12.416-4 19.25-2s11.917 6.167 15.251 12.5c20.334 37.334 44.917 71 73.751 101s60.75 55.5 95.75 76.5 72.584 37.083 112.75 48.25 81.416 16.75 123.75 16.75c63.667 0 123.417-12.083 179.25-36.25s104.667-57.083 146.5-98.75 74.833-90.5 99-146.5 36.25-115.833 36.25-179.5c0-63.333-12.083-123-36.25-179s-57.167-104.833-99-146.5-90.667-74.583-146.5-98.75-115.583-36.25-179.25-36.25c-42.334 0-83.417 5.583-123.25 16.75s-77.334 27.167-112.5 48-67.166 46.167-96 76-53.25 63.25-73.25 100.25c-3.333 5.667-7.917 9.583-13.751 11.75s-11.75 2.25-17.75 0.25c-6-2.333-10.5-6.25-13.5-11.75s-3.833-11.417-2.5-17.75l43.5-203.5c1.333-6.667 5-12 11-16s12.5-5.167 19.5-3.5c6.667 1.333 12 5 16 11s5.167 12.5 3.5 19.5l-18 83c24-26 50.334-49.25 79-69.75s59-37.833 91-52 65.416-25 100.25-32.5 70.417-11.25 106.75-11.25c34.333 0 67.917 3.333 100.75 10s64.583 16.333 95.25 29 60 28.333 88 47 54 40 78 64c24.333 24.333 45.75 50.417 64.25 78.25s34.167 57.083 47 87.75 22.5 62.5 29 95.5 9.75 66.5 9.75 100.5c0 34.333-3.25 67.917-9.75 100.75s-16.167 64.584-29 95.25-28.5 60-47 88-39.917 54-64.25 78c-24 24.333-50 45.833-78 64.5s-57.333 34.333-88 47-62.417 22.25-95.25 28.75-66.417 9.75-100.75 9.75v0zM512 538c-2 0-4.083-0.333-6.25-1s-4.25-1.5-6.25-2.5l-230.5-128c-6-3.333-10-8.417-12-15.25s-1.333-13.25 2-19.25c3.667-6.333 8.916-10.5 15.75-12.5s13.25-1.167 19.25 2.5l217 120.5 269-171c6-4 12.417-5.167 19.25-3.5s12.083 5.5 15.75 11.5c4 5.667 5.25 12 3.75 19s-5.25 12.333-11.25 16l-282 179.5c-2 1.333-4.167 2.333-6.5 3s-4.667 1-7 1v0z"/>
</g>
</svg>
