<?xml version="1.0" encoding="utf-8"?>
<!-- Generator: Adobe Illustrator 17.0.0, SVG Export Plug-In . SVG Version: 6.00 Build 0)  -->
<!DOCTYPE svg PUBLIC "-//W3C//DTD SVG 1.1//EN" "http://www.w3.org/Graphics/SVG/1.1/DTD/svg11.dtd">
<svg version="1.1" id="Layer_1" xmlns="http://www.w3.org/2000/svg" xmlns:xlink="http://www.w3.org/1999/xlink" x="0px" y="0px"
	 width="1025px" height="1024px" viewBox="0 0 1025 1024" enable-background="new 0 0 1025 1024" xml:space="preserve">
<g>
	<path d="M25.5 614.5c-3 0-5.998-0.5-8.998-1.5s-5.666-2.667-8-5c-5.333-4.667-8.167-10.583-8.501-17.75s1.833-13.25 6.5-18.25l452-500c7-7.667 15.084-13.583 24.25-17.75s18.916-6.25 29.25-6.25v0 0c10.333 0 20.083 2.083 29.25 6.25s17.25 10.083 24.25 17.75l151.5 168v-60.5c0-3.333 0.583-6.583 1.75-9.75s2.917-5.917 5.25-8.25c2.667-2.667 5.583-4.583 8.75-5.75s6.417-1.75 9.75-1.75h102.5c7 0 13 2.5 18 7.5s7.5 11 7.5 18v230l147 162.5c4.667 5 6.833 11.084 6.5 18.25s-3.167 13.083-8.5 17.75-11.5 6.833-18.5 6.5-12.833-3.167-17.5-8.5l-153.5-169.5c-2.333-2.333-4.083-5-5.25-8s-1.75-6.167-1.75-9.5v-214h-51l0.5 101.5c0 5.333-1.417 10.25-4.25 14.75s-6.75 7.583-11.75 9.25c-5 2-10.083 2.417-15.25 1.25s-9.583-3.75-13.25-7.75l-196.5-217.5c-2.333-2.333-4.75-4.083-7.25-5.25s-5.25-1.75-8.25-1.75-5.75 0.583-8.25 1.75-4.917 2.917-7.25 5.25l-452 499.5c-2.333 3-5.167 5.167-8.501 6.5s-6.834 2-10.5 2v0zM793.5 1024.001h-204.5c-7.333 0-13.5-2.5-18.5-7.5s-7.5-11-7.5-18v-179h-102v179c0 7-2.5 13-7.5 18s-11.166 7.5-18.5 7.5h-204.5c-21.334 0-39.5-7.5-54.5-22.5s-22.5-33-22.5-54v-409.5c0-7.334 2.5-13.5 7.5-18.5s11-7.5 18-7.5c7.333 0 13.5 2.5 18.5 7.5s7.5 11.166 7.5 18.5v409.5c0 7 2.5 13 7.5 18s11 7.5 18 7.5h179v-179c0-7.333 2.5-13.5 7.5-18.5s11-7.5 18-7.5h154c7 0 13 2.5 18 7.5s7.5 11.166 7.5 18.5v179h179c7 0 13-2.5 18-7.5s7.5-11 7.5-18v-409.5c0-7.334 2.5-13.5 7.5-18.5s11.167-7.5 18.5-7.5c7 0 13 2.5 18 7.5s7.5 11.166 7.5 18.5v409.5c0 21-7.5 39-22.5 54s-33.167 22.5-54.5 22.5v0z"/>
</g>
</svg>
