<?xml version="1.0" encoding="utf-8"?>
<!-- Generator: Adobe Illustrator 17.0.0, SVG Export Plug-In . SVG Version: 6.00 Build 0)  -->
<!DOCTYPE svg PUBLIC "-//W3C//DTD SVG 1.1//EN" "http://www.w3.org/Graphics/SVG/1.1/DTD/svg11.dtd">
<svg version="1.1" id="Layer_1" xmlns="http://www.w3.org/2000/svg" xmlns:xlink="http://www.w3.org/1999/xlink" x="0px" y="0px"
	 width="1025px" height="1024px" viewBox="0 0 1025 1024" enable-background="new 0 0 1025 1024" xml:space="preserve">
<g><path d="M833.459 785.849h-34.317c-2.334-14.814-8.108-28.758-16.935-40.884l24.266-24.266c5.864-5.864 5.864-15.371 0-21.233-5.864-5.864-15.371-5.864-21.233 0l-34.043 34.043c-5.864 5.864-5.864 15.371 0 21.233 0.008 0.008 0.016 0.014 0.024 0.020 0.004 0.004 0.008 0.010 0.012 0.014 12.298 12.316 19.069 28.684 19.069 46.087 0 35.965-29.261 65.226-65.226 65.226s-65.226-29.261-65.226-65.226 29.261-65.226 65.226-65.226c8.292 0 15.015-6.723 15.015-15.015v-48.143c0-8.292-6.723-15.015-15.015-15.015s-15.015 6.723-15.015 15.015v34.323c-15.081 2.398-28.984 8.356-40.84 16.973l-24.308-24.308c-5.864-5.864-15.371-5.864-21.233 0-5.864 5.864-5.864 15.369 0 21.233l24.308 24.308c-8.614 11.858-14.572 25.761-16.971 40.842h-34.323c-8.292 0-15.015 6.723-15.015 15.015s6.723 15.015 15.015 15.015h34.323c2.398 15.081 8.356 28.982 16.971 40.84l-24.308 24.308c-5.864 5.864-5.864 15.371 0 21.233 2.931 2.931 6.775 4.398 10.616 4.398s7.685-1.465 10.616-4.398l24.308-24.308c11.858 8.614 25.759 14.572 40.84 16.971v34.323c0 8.292 6.723 15.015 15.015 15.015s15.015-6.723 15.015-15.015v-34.323c15.081-2.398 28.984-8.356 40.842-16.971l24.308 24.308c2.931 2.931 6.775 4.398 10.616 4.398s7.685-1.465 10.616-4.398c5.864-5.864 5.864-15.371 0-21.233l-24.31-24.31c8.614-11.858 14.572-25.759 16.973-40.84h34.323c8.292 0 15.015-6.723 15.015-15.015s-6.723-15.015-15.015-15.015z"></path><path d="M732.479 801.835c8.292 0 15.015-6.723 15.015-15.015s-6.723-15.015-15.015-15.015h-0.136c-8.292 0-14.947 6.723-14.947 15.015s6.791 15.015 15.083 15.015z"></path><path d="M705.064 842.957c8.292 0 15.015-6.723 15.015-15.015s-6.723-15.015-15.015-15.015h-0.136c-8.292 0-14.947 6.723-14.947 15.015s6.789 15.015 15.083 15.015z"></path><path d="M677.649 771.805h-0.138c-8.292 0-14.947 6.723-14.947 15.015s6.793 15.015 15.085 15.015 15.015-6.723 15.015-15.015-6.723-15.015-15.015-15.015z"></path><path d="M705.074 577.226c-123.314 0-223.636 100.324-223.636 223.638s100.324 223.636 223.636 223.636c123.314 0 223.638-100.324 223.638-223.636 0-123.316-100.322-223.638-223.638-223.638zM705.074 994.471c-106.756 0-193.607-86.853-193.607-193.607 0-106.756 86.853-193.609 193.607-193.609 106.756 0 193.609 86.853 193.609 193.609 0 106.754-86.851 193.607-193.609 193.607z"></path><path d="M352.021 302.343c8.292 0 15.015-6.723 15.015-15.015v-16.048c0-8.292-6.723-15.015-15.015-15.015s-15.015 6.723-15.015 15.015v16.048c0 8.294 6.723 15.015 15.015 15.015z"></path><path d="M480.405 302.343c8.292 0 15.015-6.723 15.015-15.015v-16.048c0-8.292-6.723-15.015-15.015-15.015s-15.015 6.723-15.015 15.015v16.048c0 8.294 6.723 15.015 15.015 15.015z"></path><path d="M639.216 295.575c-1.742-10.702-7.405-20.12-15.415-27.066v-141.658c0.002-70.221-57.128-127.35-127.348-127.35h-126.616c-22.332 0-43.196 12.074-54.453 31.511-0.080 0.136-0.374 0.585-0.833 0.585h-10.674c-52.523 0-95.255 42.732-95.255 95.255v80.24c0 8.292 6.723 15.015 15.015 15.015s15.015-6.723 15.015-15.015v-80.24c0-35.965 29.261-65.226 65.226-65.226h10.674c10.983 0 21.259-5.964 26.818-15.565 5.994-10.35 16.636-16.53 28.466-16.53h126.616c53.662 0 97.321 43.659 97.321 97.321v129.538c-0.915-0.050-1.826-0.122-2.751-0.122h-14.33c-9.419 0-17.081-7.663-17.081-17.083v-48.143c0-34.826-28.332-63.158-63.158-63.158h-160.479c-34.826 0-63.158 28.332-63.158 63.158v48.143c0 9.419-7.663 17.083-17.083 17.083h-14.33c-23.829 0-44.549 16.898-48.195 39.308-2.246 13.803 1.61 27.767 10.578 38.311 8.973 10.55 22.058 16.6 35.897 16.6h1.67c4.122 48.439 28.027 91.303 63.556 120.53v65.422c0 7.545-4.845 14.106-12.058 16.326l-140.651 43.278c-33.445 10.29-55.913 40.714-55.913 75.704v145.166c0 8.292 6.723 15.015 15.015 15.015s15.015-6.723 15.015-15.015v-145.166c0-21.725 13.952-40.614 34.714-47.002l52.89-16.274c43.823 68.777 120.421 111.118 202.291 111.118 11.459 0 22.974-0.817 34.225-2.426 8.21-1.175 13.912-8.783 12.736-16.991-1.173-8.208-8.785-13.918-16.991-12.736-9.848 1.409-19.931 2.124-29.971 2.124-68.829 0-133.394-34.221-172.352-90.302l34.596-10.644c33.18 41.973 84.006 66.785 137.756 66.785 53.582 0 104.6-24.858 137.758-66.785l2.242 0.689c1.471 0.452 2.959 0.667 4.42 0.667 6.418 0 12.36-4.148 14.346-10.602 2.438-7.926-2.010-16.328-9.936-18.766l-25.471-7.838c-7.213-2.218-12.058-8.781-12.058-16.326v-65.424c35.527-29.225 59.434-72.088 63.556-120.528h1.67c13.842 0 26.924-6.050 35.897-16.6 8.969-10.542 12.823-24.506 10.578-38.309zM255.733 320.459h-16.048c-5.019 0-9.764-2.196-13.023-6.026-3.299-3.882-4.655-8.865-3.814-14.036 1.285-7.908 9.435-14.1 18.554-14.1h15.363v17.081c0 6.024 1.149 11.781 3.219 17.081zM286.796 274.56c9.828-8.64 16.048-21.291 16.048-35.375v-48.145c0-18.268 14.86-33.128 33.128-33.128h160.479c18.268 0 33.128 14.86 33.128 33.128v48.143c0 14.084 6.22 26.734 16.048 35.375v28.818c0 9.419-7.663 17.081-17.081 17.081h-224.667c-9.419 0-17.081-7.663-17.081-17.081v-28.816zM416.212 625.369c-40.832 0-79.63-17.279-107.004-46.95 15.659-7.92 25.731-23.919 25.731-41.979v-45.486c24.316 12.762 51.959 20.014 81.273 20.014s56.956-7.253 81.273-20.014v45.486c0 18.058 10.072 34.057 25.727 41.977-27.381 29.643-66.301 46.952-107 46.952zM416.212 480.938c-75.141 0-137.154-57.268-144.691-130.449h289.382c-7.537 73.179-69.55 130.449-144.691 130.449zM605.761 314.431c-3.257 3.83-8.004 6.026-13.023 6.026h-20.3c2.070-5.299 3.219-11.057 3.219-17.081v-17.081h15.363c9.117 0 17.267 6.194 18.554 14.1 0.843 5.171-0.512 10.156-3.814 14.036z"></path></g>
</svg>
