<?xml version="1.0" encoding="utf-8"?>
<!-- Generator: Adobe Illustrator 17.0.0, SVG Export Plug-In . SVG Version: 6.00 Build 0)  -->
<!DOCTYPE svg PUBLIC "-//W3C//DTD SVG 1.1//EN" "http://www.w3.org/Graphics/SVG/1.1/DTD/svg11.dtd">
<svg version="1.1" id="Layer_1" xmlns="http://www.w3.org/2000/svg" xmlns:xlink="http://www.w3.org/1999/xlink" x="0px" y="0px"
	 width="1025px" height="1024px" viewBox="0 0 1025 1024" enable-background="new 0 0 1025 1024" xml:space="preserve">
<g>
	<path d="M950.153 372.946c-1.167-8.21-8.759-13.938-16.979-12.75-8.21 1.167-13.92 8.769-12.752 16.977 58.661 413.507 55.802 390.171 56.715 401.326h-105.913c-1.872-11.413 2.052 8.582-73.922-341.781 0.655-8.53-4.458-68.383 23.189-143.434l37.066-100.618c4.39 5.716 8.23 11.81 11.463 18.246 15.533 31.503 28.101 64.627 37.358 98.456 1.826 6.673 7.874 11.055 14.472 11.055 1.311 0 2.647-0.174 3.972-0.537 7.998-2.19 12.708-10.448 10.518-18.446-9.76-35.667-23.012-70.595-39.438-103.909-16.57-32.978-45.987-59.938-83.73-72.935l-115.425-39.751-25.347-53.504c-8.949-18.89-28.342-31.839-50.311-31.839h-217.474c-21.205 0-41.030 12.246-50.313 31.837l-25.347 53.506-115.427 39.749c-37.761 13.007-67.164 39.961-83.782 73.037-27.293 55.358-45.526 114.344-54.195 175.317-58.173 414.206-57.652 393.912-57.652 420.46 0 0.018 0.002 0.034 0.002 0.052s-0.002 0.034-0.002 0.052v47.18c0 18.638 15.163 33.799 33.799 33.799h90.937c16.983 0 31.399-12.706 33.533-29.557 13.337-102.45-1.457-14.652 52.009-265.713-2.4 200.101-25.381 342.67-28.023 368.319l-2.889 22.59c-3.682 28.788 18.754 54.371 47.859 54.371h536.457c29.018 0 51.55-25.501 47.859-54.367l-2.889-22.59c-2.661-25.815-25.625-168.234-28.023-368.317 53.366 250.723 38.618 162.853 52.009 265.711 2.132 16.85 16.548 29.557 33.531 29.557h90.937c18.636 0 33.799-15.161 33.799-33.799 0.999-86.817 2.841-37.044-57.65-467.748zM834.062 169.576l-41.747 113.325c-30.009 81.459-24.308 145.928-25.040 155.534v107.036c0 214.323 24.642 371.821 26.328 388.961h-266.236v-596.912l96.722-83.339c5.215-4.496 8.891-10.68 10.348-17.409l8.929-41.248c0.134-0.619 0.567-1.121 1.155-1.343l35.817-13.621c12.294-4.677 20.552-16.654 20.552-29.807v-32.724l101.507 34.958c11.431 3.938 22.046 9.501 31.665 16.59zM512.352 292.28l-82.408-193.737h164.819zM670.863 100.34v50.411c0 0.769-0.482 1.465-1.197 1.738l-35.815 13.619c-10.126 3.852-17.539 12.47-19.831 23.060l-8.929 41.248c-0.084 0.392-0.3 0.755-0.603 1.017l-53.068 45.725c10.706-25.173 84.977-199.773 96.138-226.015zM624.037 29.717l-16.502 38.794h-190.364l-16.502-38.794c2.609-0.304 221.156-0.258 223.368 0zM353.843 100.34l23.307-49.198c14.436 33.937 85.173 200.237 97.653 229.578l-54.471-44.333c-0.334-0.272-0.567-0.657-0.651-1.079l-9.059-45.669c-2.152-10.849-9.609-19.669-19.943-23.601l-35.635-13.549c-0.717-0.274-1.199-0.971-1.199-1.74v-50.409zM145.376 841.167c-0.238 1.878-1.844 3.295-3.74 3.295h-90.937c-2.078 0-3.77-1.692-3.77-3.77v-32.165h102.576zM153.478 778.498h-105.911c0.915-11.163-1.856 11.565 56.715-401.326 8.22-57.822 25.515-113.761 51.348-166.162 3.261-6.488 7.115-12.612 11.515-18.344l37.064 100.616c27.731 75.277 22.534 134.904 23.189 143.434-76.018 350.58-72.052 330.392-73.92 341.781zM780.582 994.471h-536.457c-10.885 0-19.481-9.521-18.072-20.53l1.211-9.479h48.736c8.292 0 15.015-6.721 15.015-15.015s-6.723-15.015-15.015-15.015h-44.896c1.634-16.598 26.328-175.283 26.328-388.961v-106.942c0-0.032 0-0.062 0-0.094-0.727-9.525 4.929-74.18-25.040-155.534l-41.747-113.325c9.619-7.089 20.234-12.652 31.665-16.59l101.507-34.958v32.722c0 13.151 8.258 25.131 20.554 29.809l35.637 13.549c0.603 0.23 1.037 0.745 1.163 1.377l9.059 45.671c1.443 7.269 5.403 13.85 11.149 18.526l95.962 78.098v596.652h-151.117c-8.292 0-15.015 6.721-15.015 15.015s6.723 15.015 15.015 15.015h451.222l1.211 9.479c1.379 10.795-6.975 20.53-18.074 20.53zM977.776 840.695c0 2.078-1.692 3.77-3.77 3.77h-90.937c-1.894 0-3.501-1.417-3.74-3.295l-4.13-32.64h102.576z"/>
</g>
</svg>
