<?xml version="1.0" encoding="utf-8"?>
<!-- Generator: Adobe Illustrator 17.0.0, SVG Export Plug-In . SVG Version: 6.00 Build 0)  -->
<!DOCTYPE svg PUBLIC "-//W3C//DTD SVG 1.1//EN" "http://www.w3.org/Graphics/SVG/1.1/DTD/svg11.dtd">
<svg version="1.1" id="Layer_1" xmlns="http://www.w3.org/2000/svg" xmlns:xlink="http://www.w3.org/1999/xlink" x="0px" y="0px"
	 width="1025px" height="1024px" viewBox="0 0 1025 1024" enable-background="new 0 0 1025 1024" xml:space="preserve">
<g>
	<path d="M896.5 224v704c0 54.4-41.6 96-96 96h-576c-54.4 0-96-41.6-96-96v-704c0-54.4 41.6-96 96-96h176c0-6.4 0-9.6 0-16 0-60.8 51.2-112 112-112s112 51.2 112 112c0 6.4 0 9.6 0 16h176c54.4 0 96 41.6 96 96zM832.5 224c0-16-16-32-32-32h-96v41.6c0 12.8-9.6 22.4-22.4 22.4h-336c-16 0-25.6-9.6-25.6-22.4v-41.6h-96c-16 0-32 16-32 32v704c0 16 16 32 32 32h576c16 0 32-16 32-32v-704zM365.3 540.8l-73.6-73.6c-3.2-3.2-3.2-9.6 0-16l25.6-25.6c3.2-3.2 9.6-3.2 16 0l41.6 41.6 96-96c3.2-3.2 9.6-3.2 16 0l25.6 25.6c3.2 3.2 3.2 9.6 0 16l-128 128c-6.4 3.2-16 3.2-19.2 0zM400.5 704c0 25.6-22.4 48-48 48s-48-22.4-48-48 22.4-48 48-48 48 22.4 48 48zM704.5 688v32c0 9.6-6.4 16-16 16h-224c-9.6 0-16-6.4-16-16v-32c0-9.6 6.4-16 16-16h224c9.6 0 16 6.4 16 16zM464.5 112c0 25.6 22.4 48 48 48s48-22.4 48-48-22.4-48-48-48-48 22.4-48 48zM704.5 496v32c0 9.6-6.4 16-16 16h-220.8l64-64h156.8c9.6 0 16 6.4 16 16z"/>
</g>
</svg>
