<?xml version="1.0" encoding="utf-8"?>
<!-- Generator: Adobe Illustrator 17.0.0, SVG Export Plug-In . SVG Version: 6.00 Build 0)  -->
<!DOCTYPE svg PUBLIC "-//W3C//DTD SVG 1.1//EN" "http://www.w3.org/Graphics/SVG/1.1/DTD/svg11.dtd">
<svg version="1.1" id="Layer_1" xmlns="http://www.w3.org/2000/svg" xmlns:xlink="http://www.w3.org/1999/xlink" x="0px" y="0px"
	 width="1025px" height="1024px" viewBox="0 0 1025 1024" enable-background="new 0 0 1025 1024" xml:space="preserve">
<g>
	<path d="M180 512h-2.001c-7-0.333-12.75-3.25-17.25-8.75s-6.583-11.75-6.25-18.75c1.667-21.334 5.167-42.25 10.5-62.75s12.417-40.25 21.25-59.25 19.333-37.25 31.5-54.75 25.75-33.75 40.75-48.75c15.334-15.333 31.667-29.083 49-41.25s35.584-22.583 54.75-31.25 39-15.667 59.5-21 41.416-8.833 62.75-10.5c7-0.667 13.166 1.333 18.5 6s8.334 10.5 9 17.5c0.333 7-1.75 13.167-6.25 18.5s-10.25 8.333-17.25 9c-37.666 2.667-73 11.917-106 27.75s-62.166 36.333-87.5 61.5-45.834 54.333-61.5 87.5-25 68.417-28 105.75c-0.333 6.666-3 12.25-8 16.75s-10.834 6.75-17.5 6.75v0zM512 768c-35.334 0-68.5-6.667-99.5-20s-58.084-31.583-81.25-54.75-41.5-50.333-55-81.5-20.25-64.416-20.25-99.75c0-35 6.75-68.083 20.25-99.25s31.834-58.333 55-81.5 50.25-41.5 81.25-55 64.166-20.25 99.5-20.25 68.5 6.75 99.5 20.25 58.083 31.833 81.25 55 41.5 50.333 55 81.5 20.25 64.25 20.25 99.25c0 35.334-6.75 68.584-20.25 99.75s-31.833 58.333-55 81.5-50.25 41.417-81.25 54.75-64.167 20-99.5 20v0zM512 307.5c-28.334 0-54.917 5.333-79.75 16s-46.5 25.333-65 44-33.166 40.417-44 65.25-16.25 51.25-16.25 79.25c0 28.334 5.416 54.917 16.25 79.75s25.5 46.583 44 65.25 40.166 33.333 65 44 51.417 16 79.75 16 54.917-5.334 79.75-16 46.5-25.333 65-44 33.167-40.417 44-65.25 16.25-51.417 16.25-79.75c0-28-5.417-54.417-16.25-79.25s-25.5-46.583-44-65.25-40.167-33.333-65-44-51.417-16-79.75-16v0zM512 973c-30.666 0-60.833-2.917-90.5-8.75s-58.333-14.5-86-26-54-25.667-79-42.5-48.5-36.083-70.5-57.75c-21.666-21.667-40.916-45.083-57.75-70.25s-30.917-51.583-42.251-79.25-20-56.25-26-85.75-9-59.75-9-90.75c0-30.666 3-60.833 9-90.5s14.666-58.25 26-85.75 25.417-53.833 42.251-79 36.084-48.583 57.75-70.25c22-22 45.5-41.333 70.5-58s51.334-30.75 79-42.25 56.333-20.167 86-26 59.833-8.75 90.5-8.75 60.833 2.917 90.5 8.75 58.333 14.5 86 26 54 25.583 79 42.25 48.5 36 70.5 58c21.667 21.667 40.917 45.083 57.75 70.25s30.917 51.5 42.25 79 20 56.083 26 85.75 9 59.833 9 90.5c0 31-3 61.25-9 90.75s-14.667 58.083-26 85.75-25.417 54.083-42.25 79.25-36.083 48.583-57.75 70.25c-22 21.667-45.5 40.917-70.5 57.75s-51.333 31-79 42.5-56.333 20.167-86 26-59.833 8.75-90.5 8.75v0zM512 102.5c-56.334 0-109.417 10.75-159.25 32.25s-93.25 50.833-130.25 88-66.25 80.583-87.75 130.25-32.25 102.667-32.25 159c0 56.666 10.75 109.833 32.25 159.5s50.75 93.083 87.75 130.25 80.416 66.5 130.25 88 102.917 32.25 159.25 32.25 109.417-10.75 159.25-32.25 93.25-50.834 130.25-88 66.25-80.583 87.75-130.25 32.25-102.833 32.25-159.5c0-56.333-10.75-109.333-32.25-159s-50.75-93.083-87.75-130.25-80.417-66.5-130.25-88-102.917-32.25-159.25-32.25v0z"/>
</g>
</svg>
