<?xml version="1.0" encoding="utf-8"?>
<!-- Generator: Adobe Illustrator 17.0.0, SVG Export Plug-In . SVG Version: 6.00 Build 0)  -->
<!DOCTYPE svg PUBLIC "-//W3C//DTD SVG 1.1//EN" "http://www.w3.org/Graphics/SVG/1.1/DTD/svg11.dtd">
<svg version="1.1" id="Layer_1" xmlns="http://www.w3.org/2000/svg" xmlns:xlink="http://www.w3.org/1999/xlink" x="0px" y="0px"
	 width="1025px" height="1024px" viewBox="0 0 1025 1024" enable-background="new 0 0 1025 1024" xml:space="preserve">
<g><path d="M335.949 700.949c42.172 59.46 84.276 112.64 112.18 146.893 4.062 4.984 7.868 9.608 11.554 14.062h-84.206c-9.426 0-17.066 7.64-17.066 17.066s7.64 17.066 17.066 17.066h273.065c9.426 0 17.066-7.64 17.066-17.066s-7.64-17.066-17.066-17.066h-84.206c3.686-4.454 7.492-9.080 11.572-14.062 27.886-34.134 69.974-87.432 112.162-146.893 41.858-57.81 79.534-118.534 112.742-181.709 34.85-68.438 52.532-125.252 52.532-168.875 0.116-90.642-35.852-177.603-99.96-241.683-4.282-4.44-10.626-6.224-16.594-4.666s-10.632 6.214-12.198 12.18c-1.566 5.966 0.208 12.312 4.642 16.6 57.704 57.688 90.078 135.971 89.976 217.567 0 38.196-16.418 89.804-48.81 153.379-32.458 61.71-69.28 121.026-110.182 177.495-41.608 58.692-83.2 111.274-110.762 145.067-9.164 11.23-17.408 21.162-24.44 29.56-3.282 3.748-8.022 5.896-13.004 5.896s-9.722-2.15-13.004-5.896c-7.032-8.396-15.274-18.33-24.44-29.56-27.562-33.774-69.154-86.358-110.762-145.067-40.902-56.468-77.724-115.784-110.182-177.495-32.426-63.574-48.81-115.182-48.81-153.379-0.010-123.618 73.918-235.255 187.735-283.495 76.476-32.068 162.629-32.068 239.105 0 5.616 2.38 12.074 1.586 16.944-2.088 4.87-3.672 7.41-9.664 6.664-15.718s-4.664-11.25-10.28-13.63c-173.797-73.304-374.113 8.124-447.472 181.897-17.79 42.092-26.914 87.338-26.828 133.035 0 43.622 17.682 100.438 52.532 168.961 33.204 63.146 70.882 123.842 112.736 181.625z"></path><path d="M512.008 196.303c9.426 0 17.066-7.64 17.066-17.066s-7.64-17.066-17.066-17.066c-81.42-0.002-151.505 57.514-167.391 137.371s26.852 159.813 102.074 190.973c75.222 31.16 161.981 4.842 207.217-62.856s36.35-157.925-21.222-215.499c-4.286-4.436-10.63-6.216-16.598-4.654-5.966 1.562-10.626 6.222-12.188 12.188-1.562 5.968 0.218 12.312 4.654 16.598 46.060 46.058 53.17 118.236 16.984 172.397s-105.592 75.216-165.771 50.292c-60.178-24.924-94.37-88.888-81.666-152.775s68.77-109.9 133.907-109.902z"></path><path d="M1017.576 939.918l-104.96-187.735c-9.49-16.68-27.248-26.932-46.438-26.812h-121.634c-9.426 0-17.066 7.64-17.066 17.066s7.64 17.066 17.066 17.066h121.634c6.832-0.132 13.206 3.43 16.674 9.318l104.926 187.735c2.858 4.884 2.798 10.942-0.154 15.77-3.486 5.76-9.79 9.21-16.52 9.046h-918.19c-6.724 0.16-13.020-3.292-16.504-9.046-2.952-4.828-3.010-10.886-0.154-15.77l104.926-187.735c3.462-5.886 9.83-9.448 16.656-9.318h121.634c9.426 0 17.066-7.64 17.066-17.066s-7.64-17.066-17.066-17.066h-121.632c-19.2-0.126-36.972 10.126-46.472 26.812l-104.944 187.735c-8.75 15.456-8.548 34.416 0.53 49.682 9.564 16.256 27.102 26.142 45.96 25.908h918.19c18.852 0.228 36.384-9.656 45.944-25.908 9.078-15.268 9.28-34.226 0.528-49.682z"></path><path d="M836.277 810.705h-68.266c-3.37 0.006-6.664 1.002-9.472 2.868l-51.2 34.134c-7.842 5.232-9.958 15.83-4.728 23.672 5.232 7.842 15.83 9.958 23.672 4.728l46.848-31.266h63.146c9.426 0 17.066-7.642 17.066-17.066 0-9.43-7.64-17.070-17.066-17.070z"></path><path d="M733.877 930.172c0 9.426 7.64 17.066 17.066 17.066h136.535c9.426 0 17.066-7.64 17.066-17.066s-7.64-17.066-17.066-17.066h-136.535c-9.426 0-17.066 7.64-17.066 17.066z"></path><path d="M307.207 878.971c7.524 0.010 14.166-4.91 16.352-12.11s-0.602-14.982-6.862-19.156l-51.2-34.134c-2.812-1.868-6.114-2.866-9.49-2.868h-68.266c-9.426 0-17.066 7.642-17.066 17.066 0 9.426 7.642 17.066 17.066 17.066h63.146l46.9 31.266c2.79 1.864 6.068 2.862 9.42 2.87z"></path><path d="M136.541 913.106c-9.426 0-17.066 7.64-17.066 17.066s7.64 17.066 17.066 17.066h136.535c9.426 0 17.066-7.64 17.066-17.066s-7.64-17.066-17.066-17.066h-136.535z"></path></g>
</svg>
