<?xml version="1.0" encoding="utf-8"?>
<!-- Generator: Adobe Illustrator 17.0.0, SVG Export Plug-In . SVG Version: 6.00 Build 0)  -->
<!DOCTYPE svg PUBLIC "-//W3C//DTD SVG 1.1//EN" "http://www.w3.org/Graphics/SVG/1.1/DTD/svg11.dtd">
<svg version="1.1" id="Layer_1" xmlns="http://www.w3.org/2000/svg" xmlns:xlink="http://www.w3.org/1999/xlink" x="0px" y="0px"
	 width="1025px" height="1024px" viewBox="0 0 1025 1024" enable-background="new 0 0 1025 1024" xml:space="preserve">
<g>
	<path d="M896.5 384c0 153.6-51.2 198.4-345.6 620.8-19.2 25.6-57.6 25.6-76.8 0-294.4-422.4-345.6-467.2-345.6-620.8 0-211.2 172.8-384 384-384s384 172.8 384 384zM832.5 384c0-83.2-32-166.4-96-224s-140.8-96-224-96-166.4 32-224 96-96 140.8-96 224c0 128 38.4 160 320 563.2 281.6-403.2 320-435.2 320-563.2zM704.5 384c0 108.8-83.2 192-192 192s-192-83.2-192-192 83.2-192 192-192 192 83.2 192 192zM640.5 384c0-70.4-57.6-128-128-128s-128 57.6-128 128 57.6 128 128 128 128-57.6 128-128z"/>
</g>
</svg>
