<?xml version="1.0" encoding="utf-8"?>
<!-- Generator: Adobe Illustrator 17.0.0, SVG Export Plug-In . SVG Version: 6.00 Build 0)  -->
<!DOCTYPE svg PUBLIC "-//W3C//DTD SVG 1.1//EN" "http://www.w3.org/Graphics/SVG/1.1/DTD/svg11.dtd">
<svg version="1.1" id="Layer_1" xmlns="http://www.w3.org/2000/svg" xmlns:xlink="http://www.w3.org/1999/xlink" x="0px" y="0px"
	 width="1025px" height="1024px" viewBox="0 0 1025 1024" enable-background="new 0 0 1025 1024" xml:space="preserve">
<g><path d="M704 32h-384c-44.162 0.051-79.949 35.838-80 79.995l-0 0.005v800c0.051 44.162 35.838 79.949 79.995 80l384.005 0c44.162-0.051 79.949-35.838 80-79.995l0-0.005v-800c-0.051-44.162-35.838-79.949-79.995-80l-0.005-0zM320 64h384c20.764 0.028 38.441 13.214 45.142 31.665l0.106 0.335h-474.496c6.807-18.786 24.484-31.972 45.245-32l0.003-0zM704 960h-384c-20.764-0.028-38.441-13.214-45.142-31.665l-0.106-0.335h474.496c-6.807 18.786-24.484 31.972-45.245 32l-0.003 0zM752 896h-480v-768h480z"></path><path d="M336 663.4v184.6c0 8.837 7.163 16 16 16v0h320c8.837 0 16-7.163 16-16v0-184.6c19.254-11.271 31.985-31.847 32-55.398l0-0.002c-0-3.308-1.004-6.382-2.724-8.933l0.036 0.057-29.312-43.968v-27.156c-0.032-26.497-21.503-47.968-47.997-48l-69.959-0 31.89-63.55c33.077-26.611 54.066-67.086 54.066-112.463 0-79.529-64.471-144-144-144s-144 64.471-144 144c0 45.377 20.989 85.852 53.788 112.246l0.278 0.217 31.89 63.55h-69.956c-26.497 0.032-47.968 21.503-48 47.997l-0 0.003v27.156l-29.312 43.968c-1.684 2.494-2.688 5.568-2.688 8.876l-0 0c0.015 23.553 12.746 44.129 31.698 55.236l0.302 0.164zM496 832h-32v-96h32zM560 832h-32v-96h32zM656 832h-64v-112c0-8.837-7.163-16-16-16v0h-128c-8.837 0-16 7.163-16 16v0 112h-64v-160c0.006 0 0.014 0 0.021 0 19.085 0 36.215-8.37 47.919-21.64l0.060-0.070c11.772 13.34 28.909 21.71 48 21.71s36.228-8.37 47.94-21.641l0.060-0.069c11.772 13.34 28.909 21.71 48 21.71s36.228-8.37 47.94-21.641l0.060-0.069c11.764 13.34 28.894 21.71 47.979 21.71 0.007 0 0.015-0 0.022-0l-0.001 0zM640 512c8.832 0.010 15.99 7.168 16 15.999l0 0.001v16h-118.070l16.058-32zM449.048 398.872c-1.135-2.234-2.698-4.098-4.593-5.548l-0.039-0.028c-27.102-20.661-44.416-52.964-44.416-89.311 0-61.856 50.144-112 112-112s112 50.144 112 112c0 36.347-17.314 68.649-44.143 89.111l-0.273 0.2c-1.934 1.478-3.497 3.342-4.59 5.485l-0.042 0.091-62.952 125.452zM368 528c0.010-8.832 7.168-15.99 15.999-16l86.013-0 16.058 32h-118.070zM360.562 576h302.876l24.262 36.4c-2.225 15.692-15.569 27.629-31.7 27.629-17.673 0-32-14.327-32-32 0-0.010 0-0.020 0-0.030l-0 0.002c0-8.837-7.163-16-16-16s-16 7.163-16 16v0c0 17.673-14.327 32-32 32s-32-14.327-32-32v0c0-8.837-7.163-16-16-16s-16 7.163-16 16v0c0 17.673-14.327 32-32 32s-32-14.327-32-32v0c0-8.837-7.163-16-16-16s-16 7.163-16 16v0c0 0.008 0 0.019 0 0.029 0 17.673-14.327 32-32 32-16.131 0-29.475-11.936-31.68-27.458l-0.020-0.17z"></path><path d="M576 304c0-35.346-28.654-64-64-64s-64 28.654-64 64c0 35.346 28.654 64 64 64v0c35.33-0.041 63.959-28.67 64-63.996l0-0.004zM480 304c0-17.673 14.327-32 32-32s32 14.327 32 32c0 17.673-14.327 32-32 32v0c-17.664-0.022-31.978-14.336-32-31.998l-0-0.002z"></path></g>
</svg>
