<?xml version="1.0" encoding="utf-8"?>
<!-- Generator: Adobe Illustrator 17.0.0, SVG Export Plug-In . SVG Version: 6.00 Build 0)  -->
<!DOCTYPE svg PUBLIC "-//W3C//DTD SVG 1.1//EN" "http://www.w3.org/Graphics/SVG/1.1/DTD/svg11.dtd">
<svg version="1.1" id="Layer_1" xmlns="http://www.w3.org/2000/svg" xmlns:xlink="http://www.w3.org/1999/xlink" x="0px" y="0px"
	 width="1025px" height="1024px" viewBox="0 0 1025 1024" enable-background="new 0 0 1025 1024" xml:space="preserve">
<g>
	<path d="M896 1024h-409.5c-32.666 0-64.583-3.083-95.75-9.25s-61.333-15.25-90.5-27.25-57-26.917-83.5-44.75-51.25-38.25-74.25-61.25c-23-22.667-43.334-47.333-61-74s-32.583-54.5-44.749-83.5-21.333-59.166-27.5-90.5-9.25-63.167-9.25-95.5c0-32.666 3.083-64.583 9.25-95.75s15.333-61.333 27.5-90.5 27.083-57 44.749-83.5 38-51.25 61-74.25 47.75-43.333 74.25-61 54.334-32.583 83.5-44.75 59.333-21.333 90.5-27.5 63.083-9.25 95.75-9.25c32.333 0 64.167 3.083 95.5 9.25s61.583 15.333 90.75 27.5 57 27.083 83.5 44.75 51.25 38 74.25 61 43.333 47.75 61 74.25 32.5 54.333 44.5 83.5 21.167 59.333 27.5 90.5 9.5 63.083 9.5 95.75v409.5c0 21-7.5 39-22.5 54s-33.167 22.5-54.5 22.5v0zM486.5 102.5c-60 0-116.416 11.416-169.249 34.249s-99 54-138.5 93.5-70.666 85.667-93.5 138.5-34.25 109.25-34.25 169.25 11.416 116.417 34.25 169.25 54 98.917 93.5 138.25 85.666 70.417 138.5 93.25 109.25 34.25 169.25 34.25h409.5c7 0 13-2.5 18-7.5s7.5-11 7.5-18v-409.5c0-60-11.417-116.417-34.25-169.25s-53.917-99-93.25-138.5-85.417-70.667-138.25-93.5-109.25-34.25-169.25-34.25v0zM486.5 870.499c-46 0-89.166-8.75-129.5-26.25s-75.584-41.25-105.75-71.25-54-65.25-71.5-105.75-26.25-83.583-26.25-129.25c0-46 8.75-89.167 26.25-129.5s41.334-75.583 71.5-105.75 65.416-54 105.75-71.5 83.5-26.25 129.5-26.25c45.667 0 88.75 8.75 129.25 26.25s75.833 41.333 106 71.5 53.917 65.417 71.25 105.75 26 83.5 26 129.5c0 45.667-8.667 88.75-26 129.25s-41.083 75.75-71.25 105.75-65.5 53.75-106 71.25-83.583 26.25-129.25 26.25v0zM486.5 256c-39 0-75.584 7.417-109.75 22.25s-64 35-89.5 60.5-45.584 55.333-60.25 89.5-22 70.75-22 109.75c0 38.667 7.333 75.083 22 109.25s34.75 64 60.25 89.5 55.334 45.666 89.5 60.5 70.75 22.25 109.75 22.25c38.667 0 75.083-7.417 109.25-22.25s64-35 89.5-60.5 45.667-55.334 60.5-89.5 22.25-70.583 22.25-109.25c0-39-7.417-75.584-22.25-109.75s-35-64-60.5-89.5-55.333-45.667-89.5-60.5-70.583-22.25-109.25-22.25v0z"/>
</g>
</svg>
