<?xml version="1.0" encoding="utf-8"?>
<!-- Generator: Adobe Illustrator 17.0.0, SVG Export Plug-In . SVG Version: 6.00 Build 0)  -->
<!DOCTYPE svg PUBLIC "-//W3C//DTD SVG 1.1//EN" "http://www.w3.org/Graphics/SVG/1.1/DTD/svg11.dtd">
<svg version="1.1" id="Layer_1" xmlns="http://www.w3.org/2000/svg" xmlns:xlink="http://www.w3.org/1999/xlink" x="0px" y="0px"
	 width="1025px" height="1024px" viewBox="0 0 1025 1024" enable-background="new 0 0 1025 1024" xml:space="preserve">
<g>
	<path d="M966 981.5l-304.002-332c17-18 32.083-37.25 45.25-57.75s24.25-42 33.25-64.5 15.833-45.75 20.5-69.75 7-48.5 7-73.5c0-25.667-2.417-50.833-7.25-75.5s-12.083-48.5-21.75-71.5-21.5-44.917-35.5-65.75-30-40.417-48-58.75c-18-18-37.5-34-58.5-48s-43-25.75-66-35.25-46.834-16.75-71.5-21.75-49.833-7.5-75.5-7.5-50.833 2.5-75.5 7.5-48.5 12.25-71.5 21.75-45 21.25-66 35.25-40.5 30-58.5 48c-18 18.333-34 37.917-48 58.75s-25.834 42.75-35.5 65.75-16.916 46.833-21.75 71.5-7.25 49.833-7.25 75.5 2.417 50.833 7.25 75.5 12.084 48.5 21.75 71.5 21.5 45 35.5 66 30 40.5 48 58.5c18 18.334 37.5 34.5 58.5 48.5s43 25.75 66 35.25 46.834 16.666 71.5 21.5 49.833 7.25 75.5 7.25c22 0 43.75-1.833 65.25-5.5s42.334-9 62.5-16 39.667-15.75 58.5-26.25 36.75-22.584 53.75-36.25l304.5 332c2.333 2.667 5.167 4.667 8.5 6s6.667 2 10 2 6.5-0.5 9.5-1.5 5.667-2.667 8-5c5.333-4.667 8.083-10.583 8.25-17.75s-2.083-13.25-6.75-18.25v0zM50.998 384c0-45.667 8.75-88.75 26.25-129.25s41.334-75.75 71.5-105.75 65.417-53.75 105.75-71.25 83.5-26.25 129.5-26.25 89.166 8.75 129.5 26.25 75.583 41.25 105.75 71.25 54 65.25 71.5 105.75 26.25 83.583 26.25 129.25c0 46-8.75 89.166-26.25 129.5s-41.333 75.583-71.5 105.75-65.417 54-105.75 71.5-83.5 26.25-129.5 26.25-89.166-8.75-129.5-26.25-75.584-41.333-105.75-71.5-54-65.417-71.5-105.75-26.25-83.5-26.25-129.5v0z"/>
</g>
</svg>
