<?xml version="1.0" encoding="utf-8"?>
<!-- Generator: Adobe Illustrator 17.0.0, SVG Export Plug-In . SVG Version: 6.00 Build 0)  -->
<!DOCTYPE svg PUBLIC "-//W3C//DTD SVG 1.1//EN" "http://www.w3.org/Graphics/SVG/1.1/DTD/svg11.dtd">
<svg version="1.1" id="Layer_1" xmlns="http://www.w3.org/2000/svg" xmlns:xlink="http://www.w3.org/1999/xlink" x="0px" y="0px"
	 width="1025px" height="1024px" viewBox="0 0 1025 1024" enable-background="new 0 0 1025 1024" xml:space="preserve">
<g>
	<path d="M992.969 206.094c-0-96.408-78.155-174.563-174.563-174.563-48.204 0-91.845 19.538-123.434 51.128l-54.346 54.346-20.706-20.706c-2.899-2.897-6.903-4.689-11.326-4.689s-8.427 1.792-11.326 4.689l-171.48 171.482h-12.131c-0.001-0-0.001-0-0.002-0-69.242 0-125.375 56.132-125.375 125.375 0 0.001 0 0.001 0 0.002l-0-0v12.131l-171.482 171.48c-2.898 2.899-4.691 6.903-4.691 11.326s1.792 8.427 4.691 11.326l20.706 20.706-54.346 54.346c-31.59 31.59-51.128 75.231-51.128 123.435 0 96.409 78.155 174.563 174.563 174.563 48.204 0 91.845-19.539 123.435-51.128l54.346-54.346 20.706 20.706c2.899 2.898 6.903 4.69 11.326 4.69s8.427-1.792 11.326-4.69l480.469-480.469c2.898-2.899 4.691-6.903 4.691-11.326s-1.792-8.427-4.691-11.326l-20.706-20.706 54.346-54.346c31.583-31.417 51.129-74.907 51.129-122.963 0-0.166-0-0.332-0.001-0.498l0 0.026zM307.378 918.69c-25.795 25.807-61.437 41.769-100.807 41.769-78.717 0-142.53-63.813-142.53-142.53 0-39.37 15.963-75.012 41.769-100.807l54.346-54.346 201.568 201.568zM848.829 441.303l-196.879-196.879-22.651 22.651 20.944 20.944-357.511 373.055 23.128 22.162 357.039-372.562 25.391 25.391-357.511 373.055 23.128 22.162 357.039-372.562 25.391 25.391-357.511 373.055 23.128 22.162 357.039-372.562 57.185 57.185-409.772 409.772-265.632-265.632 164.848-164.846c2.898-2.899 4.69-6.903 4.69-11.325l0-0v-18.764c0.002-51.552 41.793-93.343 93.345-93.345l18.765-0c4.423-0 8.427-1.792 11.326-4.69l164.846-164.848 265.632 265.632zM864.844 361.224l-201.568-201.568 54.346-54.346c25.795-25.807 61.437-41.769 100.807-41.769 78.717 0 142.53 63.813 142.53 142.53 0 39.37-15.963 75.012-41.769 100.807l-0 0z"/>
</g>
</svg>
