<?xml version="1.0" encoding="utf-8"?>
<!-- Generator: Adobe Illustrator 17.0.0, SVG Export Plug-In . SVG Version: 6.00 Build 0)  -->
<!DOCTYPE svg PUBLIC "-//W3C//DTD SVG 1.1//EN" "http://www.w3.org/Graphics/SVG/1.1/DTD/svg11.dtd">
<svg version="1.1" id="Layer_1" xmlns="http://www.w3.org/2000/svg" xmlns:xlink="http://www.w3.org/1999/xlink" x="0px" y="0px"
	 width="1025px" height="1024px" viewBox="0 0 1025 1024" enable-background="new 0 0 1025 1024" xml:space="preserve">
<g>
	<path d="M896 307.5h-768c-7 0-13-2.5-18-7.5s-7.5-11-7.5-18c0-7.333 2.5-13.5 7.5-18.5s11-7.5 18-7.5h768c7 0 13 2.5 18 7.5s7.5 11.167 7.5 18.5c0 7-2.5 13-7.5 18s-11 7.5-18 7.5v0zM896 563.5h-768c-7 0-13-2.5-18-7.5s-7.5-11-7.5-18c0-7.333 2.5-13.5 7.5-18.5s11-7.5 18-7.5h768c7 0 13 2.5 18 7.5s7.5 11.167 7.5 18.5c0 7-2.5 13-7.5 18s-11 7.5-18 7.5v0zM896 819.5h-768c-7 0-13-2.5-18-7.5s-7.5-11-7.5-18c0-7.333 2.5-13.5 7.5-18.5s11-7.5 18-7.5h768c7 0 13 2.5 18 7.5s7.5 11.167 7.5 18.5c0 7-2.5 13-7.5 18s-11 7.5-18 7.5v0z"/>
</g>
</svg>
