<?xml version="1.0" encoding="utf-8"?>
<!-- Generator: Adobe Illustrator 17.0.0, SVG Export Plug-In . SVG Version: 6.00 Build 0)  -->
<!DOCTYPE svg PUBLIC "-//W3C//DTD SVG 1.1//EN" "http://www.w3.org/Graphics/SVG/1.1/DTD/svg11.dtd">
<svg version="1.1" id="Layer_1" xmlns="http://www.w3.org/2000/svg" xmlns:xlink="http://www.w3.org/1999/xlink" x="0px" y="0px"
	 width="1025px" height="1024px" viewBox="0 0 1025 1024" enable-background="new 0 0 1025 1024" xml:space="preserve">
<g>
	<path d="M1015 57.5c-3-2.667-6.334-4.416-10-5.25s-7.333-0.917-11-0.25l-563.5 102c-6 1.333-11 4.333-15 9s-6 10.167-6 16.5v583.5c-3.333-2.333-6.917-4.583-10.75-6.75l-12.25-6.75c-10.334-5-21.584-9.583-33.75-13.75s-24.833-7.583-38-10.25-26.833-4.75-41-6.25-28.583-2.25-43.25-2.25-29.083 0.75-43.25 2.25-27.833 3.583-41 6.25-25.833 6.083-37.999 10.25-23.583 8.75-34.249 13.75c-23.666 12-41.916 26.25-54.75 42.75s-19.25 34.083-19.25 52.75 6.417 36.25 19.25 52.75 31.084 30.75 54.75 42.75c10.666 5 22.083 9.583 34.249 13.75s24.833 7.583 37.999 10.25 26.833 4.75 41 6.25 28.583 2.25 43.25 2.25 29.083-0.75 43.25-2.25 27.833-3.583 41-6.25 25.833-6.083 38-10.25 23.416-8.75 33.75-13.75c24-12 42.416-26.25 55.25-42.75s19.25-34.083 19.25-52.75v-644l512-93.5v553c-3.667-2.333-7.417-4.583-11.25-6.75s-7.75-4.25-11.75-6.25c-10.667-5.333-22.083-10.083-34.25-14.25s-24.833-7.583-38-10.25-26.833-4.75-41-6.25-28.583-2.25-43.25-2.25-29.083 0.75-43.25 2.25-27.833 3.583-41 6.25-25.833 6.083-38 10.25-23.417 8.917-33.75 14.25c-24 11.667-42.417 25.75-55.25 42.25s-19.25 34.083-19.25 52.75c0 19 6.417 36.667 19.25 53s31.25 30.5 55.25 42.5c10.333 5.333 21.583 10 33.75 14s24.833 7.417 38 10.25 26.833 4.917 41 6.25 28.583 2 43.25 2 29.083-0.667 43.25-2 27.833-3.417 41-6.25 25.833-6.25 38-10.25 23.583-8.667 34.25-14c23.667-12 41.917-26.167 54.75-42.5s19.25-34 19.25-53v-665.5c0-3.667-0.833-7.25-2.5-10.75s-3.833-6.417-6.5-8.75v0zM230.5 922c-25.666 0-49.416-2.333-71.25-7s-40.75-10.666-56.75-18-28.584-15.583-37.75-24.75-13.75-18.25-13.75-27.25 4.583-18.083 13.75-27.25 21.75-17.416 37.75-24.75 34.916-13.334 56.75-18 45.584-7 71.25-7 49.416 2.333 71.25 7 40.75 10.666 56.75 18 28.5 15.584 37.5 24.75 13.5 18.25 13.5 27.25-4.5 18.083-13.5 27.25-21.5 17.417-37.5 24.75-34.916 13.333-56.75 18-45.584 7-71.25 7v0zM793.5 819.5c-25.667 0-49.417-2.333-71.25-7s-40.75-10.666-56.75-18-28.5-15.584-37.5-24.75-13.5-18.25-13.5-27.25 4.5-18.084 13.5-27.25 21.5-17.416 37.5-24.75 34.917-13.25 56.75-17.75 45.583-6.75 71.25-6.75 49.417 2.25 71.25 6.75 40.75 10.416 56.75 17.75 28.583 15.584 37.75 24.75 13.75 18.25 13.75 27.25-4.583 18.084-13.75 27.25-21.75 17.416-37.75 24.75-34.917 13.334-56.75 18-45.583 7-71.25 7v0z"/>
</g>
</svg>
