<?xml version="1.0" encoding="utf-8"?>
<!-- Generator: Adobe Illustrator 17.0.0, SVG Export Plug-In . SVG Version: 6.00 Build 0)  -->
<!DOCTYPE svg PUBLIC "-//W3C//DTD SVG 1.1//EN" "http://www.w3.org/Graphics/SVG/1.1/DTD/svg11.dtd">
<svg version="1.1" id="Layer_1" xmlns="http://www.w3.org/2000/svg" xmlns:xlink="http://www.w3.org/1999/xlink" x="0px" y="0px"
	 width="1025px" height="1024px" viewBox="0 0 1025 1024" enable-background="new 0 0 1025 1024" xml:space="preserve">
<g><path d="M1.134 507.511l50.734 273.315c6.303 32.702 35.025 56.255 68.329 56.036h784.592c33.304 0.227 62.034-23.326 68.337-56.036l50.75-273.315c3.652-19.768-1.689-40.139-14.576-55.567-13.059-15.639-32.319-24.757-52.697-24.945v-85.532c-0.094-84.867-68.868-153.65-153.744-153.744h-580.802c-84.867 0.094-153.65 68.876-153.744 153.744v85.532c-20.339 0.203-39.576 9.321-52.611 24.945-12.895 15.42-18.236 35.799-14.568 55.567zM102.477 341.467c0.078-66.006 53.573-119.501 119.579-119.579h580.802c66.006 0.086 119.493 53.573 119.579 119.579v85.415h-819.961zM41.976 473.769c6.78-8.117 16.836-12.777 27.416-12.723h886.131c10.588-0.055 20.644 4.606 27.439 12.723 6.443 7.601 9.102 17.704 7.241 27.486l-50.68 273.323c-3.284 16.523-17.892 28.346-34.735 28.12h-784.647c-16.844 0.219-31.451-11.597-34.743-28.12l-50.719-273.323c-1.853-9.79 0.829-19.901 7.296-27.486zM41.976 473.769z"></path><path d="M777.030 258.469c-0.821 0.477-84.742 48.834-264.573 48.834-177.656 0-244.992-47.129-245.985-47.833-7.546-5.654-18.259-4.129-23.913 3.417-5.661 7.554-4.137 18.259 3.417 23.921 2.971 2.236 75.155 54.66 266.481 54.66 190.457 0 278.445-51.501 282.12-53.69 7.96-4.903 10.502-15.295 5.701-23.318s-15.162-10.697-23.248-5.99zM777.030 258.469z"></path><path d="M409.965 683.119h51.25v51.243c0 18.869 15.295 34.172 34.164 34.172h34.164c18.869 0 34.164-15.303 34.164-34.172v-51.243h51.243c18.869 0 34.172-15.295 34.172-34.164v-34.164c0-18.869-15.303-34.164-34.172-34.164h-51.243v-51.25c0-18.869-15.295-34.164-34.164-34.164h-34.164c-18.869 0-34.164 15.295-34.164 34.164v51.25h-51.25c-18.869 0-34.164 15.295-34.164 34.164v34.164c0 18.869 15.295 34.164 34.164 34.164zM409.965 614.79h51.25c18.869 0 34.164-15.295 34.164-34.164v-51.25h34.164v51.25c0 18.869 15.295 34.164 34.164 34.164h51.243v34.164h-51.243c-18.869 0-34.164 15.295-34.164 34.164v51.243h-34.164v-51.243c0-18.869-15.295-34.164-34.164-34.164h-51.25zM409.965 614.79z"></path><path d="M136.65 768.534h85.407c9.438 0 17.086-7.656 17.086-17.086s-7.648-17.086-17.086-17.086h-85.407c-9.438 0-17.086 7.656-17.086 17.086s7.648 17.086 17.086 17.086zM136.65 768.534z"></path><path d="M290.385 768.534h17.086c9.431 0 17.078-7.656 17.078-17.086s-7.648-17.086-17.078-17.086h-17.086c-9.431 0-17.078 7.656-17.078 17.086s7.648 17.086 17.078 17.086zM290.385 768.534z"></path></g>
</svg>
