<?xml version="1.0" encoding="utf-8"?>
<!-- Generator: Adobe Illustrator 17.0.0, SVG Export Plug-In . SVG Version: 6.00 Build 0)  -->
<!DOCTYPE svg PUBLIC "-//W3C//DTD SVG 1.1//EN" "http://www.w3.org/Graphics/SVG/1.1/DTD/svg11.dtd">
<svg version="1.1" id="Layer_1" xmlns="http://www.w3.org/2000/svg" xmlns:xlink="http://www.w3.org/1999/xlink" x="0px" y="0px"
	 width="1025px" height="1024px" viewBox="0 0 1025 1024" enable-background="new 0 0 1025 1024" xml:space="preserve">
<g>
	<path d="M179 870.5c-3.333 0-6.5-0.583-9.5-1.75s-5.833-3.083-8.5-5.75c-3.333-3.333-5.583-7.417-6.75-12.25s-0.917-9.584 0.75-14.25l102.5-282c0.667-1.667 1.5-3.25 2.5-4.75s2.167-2.917 3.5-4.25l537.5-538c5-5 11.083-7.5 18.25-7.5s13.25 2.5 18.25 7.5l179 179.5c5 5 7.5 11 7.5 18s-2.5 13-7.5 18l-537.5 537.5c-1.333 1.333-2.833 2.5-4.5 3.5s-3.333 1.833-5 2.5l-281.5 102.5c-1.333 0.667-2.75 1.083-4.25 1.25s-3.083 0.25-4.75 0.25v0zM303.5 577.5l-81.5 224.5 224.5-81.5 515.5-515.5-143-143-515.5 515.5zM896 1024.001h-819c-21.334 0-39.5-7.5-54.5-22.5s-22.5-33-22.5-54v-819.5c0-21 7.5-39 22.5-54s33.166-22.5 54.5-22.5h512c7 0 13 2.5 18 7.5s7.5 11 7.5 18-2.5 13-7.5 18-11 7.5-18 7.5h-512c-7.334 0-13.5 2.5-18.5 7.5s-7.5 11-7.5 18v819.5c0 7 2.5 13 7.5 18s11.166 7.5 18.5 7.5h819c7 0 13-2.5 18-7.5s7.5-11 7.5-18v-512c0-7 2.5-13 7.5-18s11-7.5 18-7.5c7.333 0 13.5 2.5 18.5 7.5s7.5 11 7.5 18v512c0 21-7.5 39-22.5 54s-33.167 22.5-54.5 22.5v0z"/>
</g>
</svg>
