<?xml version="1.0" encoding="utf-8"?>
<!-- Generator: Adobe Illustrator 17.0.0, SVG Export Plug-In . SVG Version: 6.00 Build 0)  -->
<!DOCTYPE svg PUBLIC "-//W3C//DTD SVG 1.1//EN" "http://www.w3.org/Graphics/SVG/1.1/DTD/svg11.dtd">
<svg version="1.1" id="Layer_1" xmlns="http://www.w3.org/2000/svg" xmlns:xlink="http://www.w3.org/1999/xlink" x="0px" y="0px"
	 width="1025px" height="1024px" viewBox="0 0 1025 1024" enable-background="new 0 0 1025 1024" xml:space="preserve">
<g>
	<path d="M998.5 307.5c0-35.333-6.75-68.582-20.25-99.749s-31.833-58.333-55-81.5-50.25-41.417-81.25-54.75-64.167-20-99.5-20c-19.333 0-38.25 2.083-56.75 6.25s-36.417 10.417-53.75 18.75c-1.333 0.667-2.583 1.417-3.75 2.25s-2.25 1.75-3.25 2.75v0l-540.5 540.5c-2 2-3.667 4.25-5 6.75s-2.167 5.084-2.5 7.75l-51 358.5c-0.667 4-0.333 7.917 1 11.75s3.333 7.083 6 9.75c2.333 2.667 5.084 4.583 8.25 5.75s6.416 1.75 9.75 1.75h4l358-51.5c3-0.333 5.75-1.083 8.25-2.25s4.583-2.75 6.25-4.75l541-541c1-1 1.917-2.083 2.75-3.25s1.583-2.417 2.25-3.75c8.333-17.333 14.583-35.167 18.75-53.5s6.25-37.167 6.25-56.5v0zM947 307.5c0 14.667-1.499 29.083-4.499 43.25s-7.5 27.75-13.5 40.75l-59 59c-1.333-36.667-9.25-71.167-23.75-103.5s-33.917-60.667-58.25-85-52.667-43.833-85-58.5-67-22.667-104-24l59-59c13.333-6 27.083-10.5 41.25-13.5s28.583-4.5 43.25-4.5c28 0 54.5 5.417 79.5 16.25s46.75 25.5 65.25 44 33.083 40.167 43.75 65 16 51.417 16 79.75v0zM102.501 819.501l22-152.001c4.667-0.667 9.5-1.083 14.5-1.25s9.833-0.25 14.5-0.25c31.667 0 61.5 6 89.5 18s52.417 28.417 73.25 49.25 37.334 45.25 49.5 73.25 18.25 57.833 18.25 89.5c0 5-0.167 9.917-0.5 14.75s-0.833 9.75-1.5 14.75l-151.5 21.5c0-17.333-3.417-33.75-10.25-49.25s-16-29.083-27.5-40.75-25-20.833-40.5-27.5-32.084-10-49.75-10v0zM544 235c7.333-1.333 14.75-2.416 22.25-3.25s15.083-1.25 22.75-1.25c27 0 52.75 4.5 77.25 13.5s46.583 21.333 66.25 37l-399 399c-11.334-9.666-23.584-18.416-36.75-26.25s-26.916-14.5-41.25-20-29.167-9.916-44.5-13.25-31-5.167-47-5.5l380-380zM370.002 716.002l398.498-398.501c16 19.667 28.417 41.75 37.25 66.25s13.25 50.25 13.25 77.25c0 7.666-0.333 15.25-1 22.75s-1.667 14.916-3 22.25l-380 380c-0.667-16.333-2.583-32.167-5.75-47.5s-7.583-30.084-13.25-44.25-12.333-27.833-20-41-16.333-25.583-26-37.25v0zM95.499 871.001c1 0 2.083-0.083 3.25-0.25s2.417-0.25 3.75-0.25c21 0 39 7.5 54 22.5s22.5 33.167 22.5 54.5v7l-97.5 14 14-97.5z"/>
</g>
</svg>
