<?xml version="1.0" encoding="utf-8"?>
<!-- Generator: Adobe Illustrator 17.0.0, SVG Export Plug-In . SVG Version: 6.00 Build 0)  -->
<!DOCTYPE svg PUBLIC "-//W3C//DTD SVG 1.1//EN" "http://www.w3.org/Graphics/SVG/1.1/DTD/svg11.dtd">
<svg version="1.1" id="Layer_1" xmlns="http://www.w3.org/2000/svg" xmlns:xlink="http://www.w3.org/1999/xlink" x="0px" y="0px"
	 width="1025px" height="1024px" viewBox="0 0 1025 1024" enable-background="new 0 0 1025 1024" xml:space="preserve">
<g>
	<path d="M947 1024h-870c-21.334 0-39.5-7.5-54.5-22.5s-22.5-33-22.5-54v-870.5c0-21.333 7.5-39.5 22.5-54.5s33.166-22.5 54.5-22.5h870c21.333 0 39.5 7.5 54.5 22.5s22.5 33.167 22.5 54.5v870.5c0 21-7.5 39-22.5 54s-33.167 22.5-54.5 22.5v0zM77 51.5c-7.334 0-13.5 2.5-18.5 7.5s-7.5 11-7.5 18v870.5c0 7 2.5 13 7.5 18s11.166 7.5 18.5 7.5h870c7.333 0 13.5-2.5 18.5-7.5s7.5-11 7.5-18v-870.5c0-7-2.5-13-7.5-18s-11.167-7.5-18.5-7.5h-870zM665.5 461c-14 0-27.25-2.667-39.75-8s-23.333-12.667-32.5-22-16.5-20.167-22-32.5-8.25-25.667-8.25-40c0-14 2.75-27.25 8.25-39.75s12.833-23.333 22-32.5 20-16.5 32.5-22 25.75-8.25 39.75-8.25c14.333 0 27.667 2.75 40 8.25s23.167 12.833 32.5 22 16.667 20 22 32.5 8 25.75 8 39.75c0 14.333-2.667 27.667-8 40s-12.667 23.167-22 32.5-20.167 16.667-32.5 22-25.667 8-40 8v0zM665.5 307.5c-14 0-26 5-36 15s-15 22-15 36c0 14.333 5 26.5 15 36.5s22 15 36 15c14.333 0 26.5-5 36.5-15s15-22.167 15-36.5c0-14-5-26-15-36s-22.167-15-36.5-15v0zM896 102.5h-768c-7 0-13 2.5-18 7.5s-7.5 11-7.5 18v614.5c0 7 2.5 13 7.5 18s11 7.5 18 7.5h768c7 0 13-2.5 18-7.5s7.5-11 7.5-18v-614.5c0-7-2.5-13-7.5-18s-11-7.5-18-7.5v0zM153.5 598.5l164.5-184.5c2-2.333 4.333-4.167 7-5.5s5.5-2 8.5-2c2.667 0 5.416 0.583 8.25 1.75s5.25 2.917 7.25 5.25l283.5 303.5h-479v-118.5zM870.5 717h-168l-316-338.5c-7.334-7.667-15.584-13.5-24.75-17.5s-18.75-6-28.75-6c-10.334 0.333-20.084 2.583-29.25 6.75s-17.25 10.25-24.25 18.25l-126 141.5v-367.5h717v563z"/>
</g>
</svg>
