<?xml version="1.0" encoding="utf-8"?>
<!-- Generator: Adobe Illustrator 17.0.0, SVG Export Plug-In . SVG Version: 6.00 Build 0)  -->
<!DOCTYPE svg PUBLIC "-//W3C//DTD SVG 1.1//EN" "http://www.w3.org/Graphics/SVG/1.1/DTD/svg11.dtd">
<svg version="1.1" id="Layer_1" xmlns="http://www.w3.org/2000/svg" xmlns:xlink="http://www.w3.org/1999/xlink" x="0px" y="0px"
	 width="1025px" height="1024px" viewBox="0 0 1025 1024" enable-background="new 0 0 1025 1024" xml:space="preserve">
<g>
	<path d="M845 1024h-717c-21.334 0-39.5-7.5-54.5-22.5s-22.5-33-22.5-54v-665.5c0-21.333 7.5-39.5 22.5-54.5s33.166-22.5 54.5-22.5h717c21 0 39 7.5 54 22.5s22.5 33.167 22.5 54.5v665.5c0 21-7.5 39-22.5 54s-33 22.5-54 22.5v0zM128 256c-7 0-13 2.5-18 7.5s-7.5 11.167-7.5 18.5v665.5c0 7 2.5 13 7.5 18s11 7.5 18 7.5h717c7 0 13-2.5 18-7.5s7.5-11 7.5-18v-665.5c0-7.333-2.5-13.5-7.5-18.5s-11-7.5-18-7.5h-717zM845 154h-717c-7 0-13-2.5-18-7.5s-7.5-11.167-7.5-18.5c0-7 2.5-13 7.5-18s11-7.5 18-7.5h717c7 0 13 2.5 18 7.5s7.5 11 7.5 18c0 7.333-2.5 13.5-7.5 18.5s-11 7.5-18 7.5v0zM793.5 51.5h-614.5c-7 0-13-2.5-18-7.5s-7.5-11-7.5-18c0-7.333 2.5-13.5 7.5-18.5s11-7.5 18-7.5h614.5c7 0 13 2.5 18 7.5s7.5 11.167 7.5 18.5c0 7-2.5 13-7.5 18s-11 7.5-18 7.5v0zM589 666c-21.333 0-39.5-7.5-54.5-22.5s-22.5-33.167-22.5-54.5 7.5-39.5 22.5-54.5 33.167-22.5 54.5-22.5c21 0 39 7.5 54 22.5s22.5 33.167 22.5 54.5-7.5 39.5-22.5 54.5-33 22.5-54 22.5v0zM589 563.5c-7.333 0-13.5 2.5-18.5 7.5s-7.5 11-7.5 18 2.5 13 7.5 18 11.167 7.5 18.5 7.5c7 0 13-2.5 18-7.5s7.5-11 7.5-18-2.5-13-7.5-18-11-7.5-18-7.5v0zM742.5 410h-512c-7 0-13 2.5-18 7.5s-7.5 11-7.5 18v358.5c0 7 2.5 13 7.5 18s11 7.5 18 7.5h512c7 0 13-2.5 18-7.5s7.5-11 7.5-18v-358.5c0-7-2.5-13-7.5-18s-11-7.5-18-7.5v0zM256 700.5l64.999-81c1.667-2.333 3.667-4.167 6-5.5s4.667-2 7-2 4.667 0.583 7 1.75 4.5 2.75 6.5 4.75l133 149.5h-224.5v-67.5zM717 768l-168-0.001-163-183.5c-7-7.666-15.166-13.583-24.5-17.75s-19-6.083-29-5.75c-9.666 0-19.083 2.333-28.25 7s-16.916 11.166-23.25 19.5l-25 31v-157.5h461v307z"/>
</g>
</svg>
