<?xml version="1.0" encoding="utf-8"?>
<!-- Generator: Adobe Illustrator 17.0.0, SVG Export Plug-In . SVG Version: 6.00 Build 0)  -->
<!DOCTYPE svg PUBLIC "-//W3C//DTD SVG 1.1//EN" "http://www.w3.org/Graphics/SVG/1.1/DTD/svg11.dtd">
<svg version="1.1" id="Layer_1" xmlns="http://www.w3.org/2000/svg" xmlns:xlink="http://www.w3.org/1999/xlink" x="0px" y="0px"
	 width="1025px" height="1024px" viewBox="0 0 1025 1024" enable-background="new 0 0 1025 1024" xml:space="preserve">
<g>
	<path d="M486.5 1024c-32.666 0-64.583-3.083-95.75-9.25s-61.333-15.25-90.5-27.25-57-26.917-83.5-44.75-51.25-38.25-74.25-61.25c-23-22.667-43.334-47.333-61-74s-32.583-54.5-44.749-83.5-21.333-59.166-27.5-90.5-9.25-63.167-9.25-95.5c0-32.666 3.083-64.583 9.25-95.75s15.333-61.333 27.5-90.5 27.083-57 44.749-83.5 38-51.25 61-74.25 47.75-43.333 74.25-61 54.334-32.583 83.5-44.75 59.333-21.333 90.5-27.5 63.083-9.25 95.75-9.25c32.333 0 64.167 3.083 95.5 9.25s61.583 15.333 90.75 27.5 57 27.083 83.5 44.75 51.25 38 74.25 61 43.333 47.75 61 74.25 32.5 54.333 44.5 83.5 21.167 59.333 27.5 90.5 9.5 63.083 9.5 95.75c0 32.333-3.167 64.167-9.5 95.5s-15.5 61.5-27.5 90.5-26.833 56.834-44.5 83.5-38 51.333-61 74c-23 23-47.75 43.417-74.25 61.25s-54.333 32.75-83.5 44.75-59.417 21.083-90.75 27.25-63.167 9.25-95.5 9.25v0zM486.5 102.5c-60 0-116.416 11.417-169.25 34.25s-99 54-138.5 93.5-70.666 85.667-93.5 138.5-34.25 109.25-34.25 169.25 11.416 116.417 34.25 169.25 54 98.917 93.5 138.25 85.666 70.417 138.5 93.25 109.25 34.25 169.25 34.25 116.417-11.417 169.25-34.25 98.917-53.917 138.25-93.25 70.417-85.417 93.25-138.25 34.25-109.25 34.25-169.25-11.417-116.417-34.25-169.25-53.917-99-93.25-138.5-85.417-70.667-138.25-93.5-109.25-34.25-169.25-34.25v0zM333 819.5c-2.333 0-4.5-0.251-6.5-0.751s-4-1.417-6-2.75c-4-2-7.25-5-9.75-9s-3.75-8.333-3.75-13v-512c0-4.667 1.25-9 3.75-13s5.75-7.167 9.75-9.5 8.334-3.417 13-3.25 9 1.417 13 3.75l409.5 256c3.667 2.333 6.583 5.417 8.75 9.25s3.25 8.084 3.25 12.75c0 4.333-1.083 8.417-3.25 12.25s-5.083 6.917-8.75 9.25l-409.5 256c-2 1.333-4.167 2.333-6.5 3s-4.667 1-7 1v0zM358.5 328v419.5l335.5-209.5-335.5-210z"/>
</g>
</svg>
