<?xml version="1.0" encoding="utf-8"?>
<!-- Generator: Adobe Illustrator 17.0.0, SVG Export Plug-In . SVG Version: 6.00 Build 0)  -->
<!DOCTYPE svg PUBLIC "-//W3C//DTD SVG 1.1//EN" "http://www.w3.org/Graphics/SVG/1.1/DTD/svg11.dtd">
<svg version="1.1" id="Layer_1" xmlns="http://www.w3.org/2000/svg" xmlns:xlink="http://www.w3.org/1999/xlink" x="0px" y="0px"
	 width="1025px" height="1024px" viewBox="0 0 1025 1024" enable-background="new 0 0 1025 1024" xml:space="preserve">
<g>
	<path d="M1025 471.181v81.637c0 9.071-9.071 18.142-18.142 18.142h-435.398v426.327c0 9.071-9.071 18.142-18.142 18.142h-81.637c-9.071 0-18.142-9.071-18.142-18.142v-426.327h-435.398c-9.071 0-18.142-9.071-18.142-18.142v-81.637c0-18.142 9.071-27.212 18.142-27.212h426.327v-426.327c0-9.071 9.071-18.142 27.212-18.142h81.637c9.071 0 18.142 9.071 18.142 18.142v426.327h426.327c9.071 0 27.212 9.071 27.212 27.212z"/>
</g>
</svg>
