<?xml version="1.0" encoding="utf-8"?>
<!-- Generator: Adobe Illustrator 17.0.0, SVG Export Plug-In . SVG Version: 6.00 Build 0)  -->
<!DOCTYPE svg PUBLIC "-//W3C//DTD SVG 1.1//EN" "http://www.w3.org/Graphics/SVG/1.1/DTD/svg11.dtd">
<svg version="1.1" id="Layer_1" xmlns="http://www.w3.org/2000/svg" xmlns:xlink="http://www.w3.org/1999/xlink" x="0px" y="0px"
	 width="1025px" height="1024px" viewBox="0 0 1025 1024" enable-background="new 0 0 1025 1024" xml:space="preserve">
<g>
	<path d="M921.5 348l-270.999-271c-4.667-4.667-10.167-8.333-16.5-11s-12.833-4-19.5-4c-7 0-13.583 1.333-19.75 4s-11.75 6.333-16.75 11l-15 15c-7.333 7.333-13.417 16.833-18.25 28.5s-7.25 22.833-7.25 33.5v51c0 3.667-1.083 8.167-3.25 13.5s-4.583 9.333-7.25 12l-143 143c-2.667 2.667-6.666 5.083-12 7.25s-9.834 3.25-13.5 3.25h-51.5c-10.334 0-21.334 2.417-33 7.25s-21.166 11.083-28.5 18.75l-15 15c-10 10-15 22-15 36s5 26 15 36l79.5 79.5-253.5 329.5c-4 5.333-5.75 11.167-5.25 17.5s2.917 11.834 7.25 16.5c2.667 2.333 5.583 4.167 8.749 5.5s6.416 2 9.75 2c2.667 0 5.333-0.417 7.999-1.25s5.166-2.25 7.5-4.25l329.5-253.5 79.5 79.5c4.667 5 10.166 8.75 16.5 11.25s12.833 3.75 19.5 3.75c7 0 13.583-1.25 19.75-3.75s11.75-6.25 16.75-11.25l15-15c7.333-7.333 13.417-16.833 18.25-28.5s7.25-22.667 7.25-33v-51.5c0-3.667 1.083-8.167 3.25-13.5s4.583-9.333 7.25-12l143-143c2.667-2.667 6.667-5.083 12-7.25s9.833-3.25 13.5-3.25h51.5c10.333 0 21.333-2.417 33-7.25s21.167-10.917 28.5-18.25l15-15c5-5 8.75-10.583 11.25-16.75s3.75-12.75 3.75-19.75c0-6.667-1.25-13.167-3.75-19.5s-6.25-11.833-11.25-16.5v0zM217.001 782l129.5-169 39 39-168.5 130zM870.5 399c-2.667 2.667-6.667 5.166-12 7.499s-9.833 3.5-13.5 3.5h-51.5c-10.333 0-21.333 2.417-33 7.25s-21.167 10.917-28.5 18.25l-143 143c-7.667 7.334-13.917 16.834-18.75 28.5s-7.25 22.666-7.25 33v51.5c0 3.667-1.083 8.166-3.25 13.5s-4.583 9.334-7.25 12l-15 15-271-271 15-15c2.667-2.667 6.666-5.083 12-7.25s9.834-3.25 13.5-3.25h51.5c10.334 0 21.334-2.417 33-7.25s21.166-10.917 28.5-18.25l143-143c7.667-7.667 13.917-17.333 18.75-29s7.25-22.667 7.25-33v-51c0-3.667 1.083-8.25 3.25-13.75s4.583-9.583 7.25-12.25l15-15 271 271-15 15z"/>
</g>
</svg>
