<?xml version="1.0" encoding="utf-8"?>
<!-- Generator: Adobe Illustrator 17.0.0, SVG Export Plug-In . SVG Version: 6.00 Build 0)  -->
<!DOCTYPE svg PUBLIC "-//W3C//DTD SVG 1.1//EN" "http://www.w3.org/Graphics/SVG/1.1/DTD/svg11.dtd">
<svg version="1.1" id="Layer_1" xmlns="http://www.w3.org/2000/svg" xmlns:xlink="http://www.w3.org/1999/xlink" x="0px" y="0px"
	 width="1025px" height="1024px" viewBox="0 0 1025 1024" enable-background="new 0 0 1025 1024" xml:space="preserve">
<g><path d="M373.328 162.24c-8.224-11.424-21.52-18.24-35.6-18.24-16.496 0-31.696 9.392-39.12 24.048l-227.92 337.952c-35.776 53.056-54.688 114.944-54.688 178.928v3.072c0 176.448 143.552 320 320 320s320-143.552 320-320v-4.128c0-63.264-18.528-124.544-53.568-177.232zM624 688c0 158.8-129.2 288-288 288s-288-129.2-288-288v-3.072c0-57.6 17.024-113.28 49.232-161.024l228.544-338.88 1.232-2.176c1.936-4.16 6.144-6.848 10.72-6.848 3.808 0 7.392 1.84 9.28 4.432l228.784 343.92c31.536 47.424 48.208 102.592 48.208 159.52z"></path><path d="M492.128 465.808l-38.544-6.432c-40.496-6.752-77.248-25.664-106.288-54.688l-11.296-11.312-11.312 11.312c-29.024 29.024-65.776 47.936-106.288 54.688l-38.544 6.432-3.040 9.136c-2.64 7.936-64.816 195.216-64.816 261.056 0 55.584 101.024 121.2 185.76 166.448 11.696 6.24 24.912 9.552 38.24 9.552s26.544-3.312 38.24-9.552c84.736-45.248 185.76-110.864 185.76-166.448 0-65.84-62.176-253.12-64.816-261.056zM359.152 874.224c-14.336 7.664-31.968 7.664-46.304 0-100.992-53.92-168.848-109.488-168.848-138.224 0-52.96 47.648-203.184 60.192-241.808l19.488-3.248c42-7.008 80.528-25.248 112.336-53.040 31.792 27.792 70.336 46.032 112.336 53.040l19.488 3.248c12.512 38.608 60.16 188.832 60.16 241.808 0 28.736-67.856 84.304-168.848 138.224z"></path><path d="M288 745.376l-36.688-36.688-22.624 22.624 59.312 59.312 171.312-171.312-22.624-22.624z"></path><path d="M1008 336v-80c0-35.296-28.704-64-64-64h-32v-32c0-20.832-13.424-38.432-32-45.056v-50.944c0-26.464-21.536-48-48-48h-64c-26.464 0-48 21.536-48 48v50.944c-18.576 6.624-32 24.224-32 45.056v642.592l54.704 164.096c8.224 24.704 31.248 41.312 57.296 41.312s49.072-16.608 57.296-41.296l54.704-164.112v-578.592h32c17.648 0 32 14.352 32 32v80c0 17.648-14.352 32-32 32v32c17.648 0 32 14.352 32 32v128h32v-128c0-19.2-8.672-36.256-22.112-48 13.44-11.744 22.112-28.8 22.112-48zM720 784v-32h160v32zM720 720v-32h160v32zM720 656v-448h160v448zM768 48h64c8.816 0 16 7.184 16 16v48h-96v-48c0-8.816 7.184-16 16-16zM736 144h128c8.816 0 16 7.184 16 16v16h-160v-16c0-8.816 7.184-16 16-16zM826.944 956.592c-3.872 11.6-14.704 19.408-26.944 19.408s-23.072-7.808-26.944-19.424l-46.864-140.576h147.6z"></path></g>
</svg>
