<?xml version="1.0" encoding="utf-8"?>
<!-- Generator: Adobe Illustrator 17.0.0, SVG Export Plug-In . SVG Version: 6.00 Build 0)  -->
<!DOCTYPE svg PUBLIC "-//W3C//DTD SVG 1.1//EN" "http://www.w3.org/Graphics/SVG/1.1/DTD/svg11.dtd">
<svg version="1.1" id="Layer_1" xmlns="http://www.w3.org/2000/svg" xmlns:xlink="http://www.w3.org/1999/xlink" x="0px" y="0px"
	 width="1025px" height="1024px" viewBox="0 0 1025 1024" enable-background="new 0 0 1025 1024" xml:space="preserve">
<g>
	<path d="M830.5 194c-23-23-47.75-43.333-74.25-61s-54.333-32.583-83.5-44.75-59.417-21.333-90.75-27.5-63.167-9.25-95.5-9.25c-32.666 0-64.583 3.083-95.75 9.25s-61.333 15.333-90.5 27.5-57 27.083-83.5 44.75-51.25 38-74.25 61-43.334 47.75-61 74.25-32.583 54.333-44.749 83.5-21.333 59.333-27.5 90.5-9.25 63.083-9.25 95.75c0 32.333 3.083 64.167 9.25 95.5s15.333 61.5 27.5 90.5 27.083 56.834 44.749 83.5 38 51.333 61 74c23 23 47.75 43.417 74.25 61.25s54.334 32.75 83.5 44.75 59.333 21.083 90.5 27.25 63.083 9.25 95.75 9.25c32.333 0 64.167-3.083 95.5-9.25s61.583-15.25 90.75-27.25 57-26.917 83.5-44.75 51.25-38.25 74.25-61.25c23-22.667 43.333-47.333 61-74s32.5-54.5 44.5-83.5 21.167-59.166 27.5-90.5 9.5-63.167 9.5-95.5c0-32.666-3.167-64.583-9.5-95.75s-15.5-61.333-27.5-90.5-26.833-57-44.5-83.5-38-51.25-61-74.25v0zM486.5 973c-60 0-116.416-11.417-169.25-34.25s-99-53.917-138.5-93.25-70.666-85.417-93.5-138.25-34.25-109.25-34.25-169.25 11.416-116.417 34.25-169.25 54-99 93.5-138.5 85.666-70.667 138.5-93.5 109.25-34.25 169.25-34.25 116.417 11.417 169.25 34.25 98.917 54 138.25 93.5 70.417 85.667 93.25 138.5 34.25 109.25 34.25 169.25-11.417 116.417-34.25 169.25-53.917 98.917-93.25 138.25-85.417 70.417-138.25 93.25-109.25 34.25-169.25 34.25v0zM486.5 768c-7 0-13-2.5-18-7.5s-7.5-11-7.5-18v-102.5c0-7 2.5-13 7.5-18s11-7.5 18-7.5c24.666 0 47.833-4.667 69.5-14s40.667-22.167 57-38.5 29.167-35.333 38.5-57 14-44.833 14-69.5-4.667-47.917-14-69.75-22.167-40.833-38.5-57-35.333-29-57-38.5-44.833-14.25-69.5-14.25-47.916 4.75-69.75 14.25-40.834 22.333-57 38.5-29 35.167-38.5 57-14.25 45.083-14.25 69.75c0 7-2.5 13-7.5 18s-11 7.5-18 7.5-13-2.5-18-7.5-7.5-11-7.5-18c0-31.667 6.084-61.5 18.25-89.5s28.666-52.417 49.5-73.25 45.25-37.333 73.25-49.5 57.834-18.25 89.5-18.25 61.5 6.083 89.5 18.25 52.417 28.667 73.25 49.5 37.333 45.25 49.5 73.25 18.25 57.833 18.25 89.5c0 29.666-5.333 57.666-16 84s-25.167 49.667-43.5 70-40 37.083-65 50.25-51.833 21.417-80.5 24.75v78c0 7-2.5 13-7.5 18s-11 7.5-18 7.5v0zM486.5 922v0c-7 0-13-2.5-18-7.5s-7.5-11.167-7.5-18.5v-51c0-7 2.5-13 7.5-18s11-7.5 18-7.5v0 0c7 0 13 2.5 18 7.5s7.5 11 7.5 18v51c0 7.333-2.5 13.5-7.5 18.5s-11 7.5-18 7.5v0z"/>
</g>
</svg>
