<?xml version="1.0" encoding="utf-8"?>
<!-- Generator: Adobe Illustrator 17.0.0, SVG Export Plug-In . SVG Version: 6.00 Build 0)  -->
<!DOCTYPE svg PUBLIC "-//W3C//DTD SVG 1.1//EN" "http://www.w3.org/Graphics/SVG/1.1/DTD/svg11.dtd">
<svg version="1.1" id="Layer_1" xmlns="http://www.w3.org/2000/svg" xmlns:xlink="http://www.w3.org/1999/xlink" x="0px" y="0px"
	 width="1025px" height="1024px" viewBox="0 0 1025 1024" enable-background="new 0 0 1025 1024" xml:space="preserve">
<g>
	<path d="M1025 512c0 5.694 0 17.083-5.694 28.472-96.806 187.917-290.417 313.194-506.806 313.194s-410-125.278-506.806-313.194c-5.694-11.389-5.694-22.778-5.694-28.472s0-17.083 5.694-28.472c96.806-187.917 290.417-313.194 506.806-313.194s410 125.278 506.806 313.194c5.694 11.389 5.694 22.778 5.694 28.472zM968.056 512c-45.556-85.417-148.056-187.917-233.472-227.778 39.861 45.556 62.639 102.5 62.639 170.833 0 159.444-125.278 284.722-284.722 284.722s-284.722-125.278-284.722-284.722c0-68.333 22.778-125.278 62.639-170.833-85.417 39.861-187.917 142.361-233.472 227.778 91.111 176.528 261.944 284.722 455.556 284.722s364.444-108.194 455.556-284.722zM284.722 455.056c0 125.278 102.5 227.778 227.778 227.778s227.778-102.5 227.778-227.778-102.5-227.778-227.778-227.778c-125.278 0-227.778 102.5-227.778 227.778zM398.611 455.056c0 0 0-5.694 0 0 5.694 0 22.778 0 28.472 0 45.556 0 85.417-39.861 85.417-85.417 0-5.694 0-22.778-5.694-28.472 0 0 5.694 0 5.694 0 62.639 0 113.889 51.25 113.889 113.889s-51.25 113.889-113.889 113.889-113.889-51.25-113.889-113.889z"/>
</g>
</svg>
