<?xml version="1.0" encoding="utf-8"?>
<!-- Generator: Adobe Illustrator 17.0.0, SVG Export Plug-In . SVG Version: 6.00 Build 0)  -->
<!DOCTYPE svg PUBLIC "-//W3C//DTD SVG 1.1//EN" "http://www.w3.org/Graphics/SVG/1.1/DTD/svg11.dtd">
<svg version="1.1" id="Layer_1" xmlns="http://www.w3.org/2000/svg" xmlns:xlink="http://www.w3.org/1999/xlink" x="0px" y="0px"
	 width="1025px" height="1024px" viewBox="0 0 1025 1024" enable-background="new 0 0 1025 1024" xml:space="preserve">
<g>
	<path d="M127.5 230c20.666-20.667 42.833-38.916 66.5-54.75s48.5-29.083 74.5-39.75 53-18.833 81-24.5 56.5-8.5 85.5-8.5c29.334 0 57.917 2.833 85.75 8.5s54.833 13.833 81 24.5 51.083 23.917 74.75 39.75 45.833 34.083 66.5 54.75 38.917 42.833 54.75 66.5 29.083 48.583 39.75 74.75 18.833 53.167 24.5 81 8.5 56.417 8.5 85.75v66l110-110c5-5 11-7.5 18-7.5s13 2.5 18 7.5 7.5 11.084 7.5 18.25-2.5 13.25-7.5 18.25l-153.5 153.5c-2.667 2.333-5.583 4.167-8.75 5.5s-6.25 2-9.25 2c-3.333 0-6.583-0.667-9.75-2s-6.083-3.167-8.75-5.5l-153.5-153.5c-5-5-7.5-11.083-7.5-18.25s2.5-13.25 7.5-18.25 11.083-7.5 18.25-7.5 13.25 2.5 18.25 7.5l109.5 110v-66c0-53-10-102.833-30-149.5s-47.417-87.417-82.25-122.25-75.583-62.25-122.25-82.25-96.5-30-149.5-30c-52.666 0-102.333 10-149 30s-87.416 47.417-122.25 82.25-62.334 75.583-82.5 122.25-30.25 96.5-30.25 149.5c0 52.667 10.084 102.333 30.25 149s47.666 87.416 82.5 122.25 75.584 62.333 122.25 82.5 96.333 30.25 149 30.25c7.334 0 13.5 2.5 18.5 7.5s7.5 11 7.5 18-2.5 13-7.5 18-11.166 7.5-18.5 7.5c-29 0-57.5-2.75-85.5-8.25s-55-13.667-81-24.5-50.834-24.167-74.5-40-45.833-34.083-66.499-54.75-38.916-42.833-54.75-66.5-29.167-48.5-40.001-74.5-19-53-24.5-81-8.25-56.5-8.25-85.5c0-29.334 2.75-57.917 8.25-85.75s13.666-54.833 24.5-81 24.167-51.083 40.001-74.75 34.084-45.833 54.75-66.5v0z"/>
</g>
</svg>
