<?xml version="1.0" encoding="utf-8"?>
<!-- Generator: Adobe Illustrator 17.0.0, SVG Export Plug-In . SVG Version: 6.00 Build 0)  -->
<!DOCTYPE svg PUBLIC "-//W3C//DTD SVG 1.1//EN" "http://www.w3.org/Graphics/SVG/1.1/DTD/svg11.dtd">
<svg version="1.1" id="Layer_1" xmlns="http://www.w3.org/2000/svg" xmlns:xlink="http://www.w3.org/1999/xlink" x="0px" y="0px"
	 width="1025px" height="1024px" viewBox="0 0 1025 1024" enable-background="new 0 0 1025 1024" xml:space="preserve">
<g>
	<path d="M875.5 718c-7.667-17.333-16.001-34.333-25.001-51s-18.75-32.833-29.25-48.5-21.75-30.75-33.75-45.25-24.833-28.583-38.5-42.25c-13.333-13.333-27.333-26.084-42-38.25s-29.833-23.5-45.5-34-31.75-20.25-48.25-29.25-33.583-17.167-51.25-24.5c-18-7.667-36.417-14.417-55.25-20.25s-37.75-10.667-56.75-14.5-38.334-6.75-58-8.75-39.333-3-59-3h-169l212.5-212c5-5 7.5-11.083 7.5-18.25s-2.5-13.25-7.5-18.25-11-7.5-18-7.5-13 2.5-18 7.5l-256 256c-5 5-7.5 11.083-7.5 18.25s2.5 13.25 7.5 18.25l256 256c2.333 2.333 5.084 4.167 8.25 5.5s6.416 2 9.75 2 6.584-0.667 9.75-2 5.916-3.167 8.25-5.5c5-5 7.5-11.084 7.5-18.25s-2.5-13.25-7.5-18.25l-212.5-212h169c74 0 143.667 14.083 209 42.25s122.333 66.583 171 115.25 87.083 105.583 115.25 170.75 42.25 134.917 42.25 209.25c0 7 2.5 13 7.5 18s11 7.5 18 7.5 13-2.5 18-7.5 7.5-11 7.5-18c0-20-0.917-39.75-2.75-59.25s-4.75-38.833-8.75-58-8.833-38.083-14.5-56.75-12.333-37.167-20-55.5v0z"/>
</g>
</svg>
