<?xml version="1.0" encoding="utf-8"?>
<!-- Generator: Adobe Illustrator 17.0.0, SVG Export Plug-In . SVG Version: 6.00 Build 0)  -->
<!DOCTYPE svg PUBLIC "-//W3C//DTD SVG 1.1//EN" "http://www.w3.org/Graphics/SVG/1.1/DTD/svg11.dtd">
<svg version="1.1" id="Layer_1" xmlns="http://www.w3.org/2000/svg" xmlns:xlink="http://www.w3.org/1999/xlink" x="0px" y="0px"
	 width="1025px" height="1024px" viewBox="0 0 1025 1024" enable-background="new 0 0 1025 1024" xml:space="preserve">
<g>
	<path d="M1018.594 998.875l-19.219 19.219c-6.406 6.406-25.625 6.406-32.031 0l-256.25-256.25c-6.406-6.406-6.406-12.812-6.406-19.219v-19.219c-76.875 64.063-179.375 108.906-288.281 108.906-230.625 0-416.406-185.781-416.406-416.406s185.781-416.406 416.406-416.406 416.406 185.781 416.406 416.406c0 108.906-44.844 211.406-108.906 281.875h19.219c6.406 0 12.812 0 19.219 6.406l256.25 256.25c6.406 12.813 6.406 25.625-0 38.438zM768.75 415.906c0-192.188-160.156-352.344-352.344-352.344s-352.344 160.156-352.344 352.344 160.156 352.344 352.344 352.344 352.344-160.156 352.344-352.344z"/>
</g>
</svg>
