<?xml version="1.0" encoding="utf-8"?>
<!-- Generator: Adobe Illustrator 17.0.0, SVG Export Plug-In . SVG Version: 6.00 Build 0)  -->
<!DOCTYPE svg PUBLIC "-//W3C//DTD SVG 1.1//EN" "http://www.w3.org/Graphics/SVG/1.1/DTD/svg11.dtd">
<svg version="1.1" id="Layer_1" xmlns="http://www.w3.org/2000/svg" xmlns:xlink="http://www.w3.org/1999/xlink" x="0px" y="0px"
	 width="1025px" height="1024px" viewBox="0 0 1025 1024" enable-background="new 0 0 1025 1024" xml:space="preserve">
<g>
	<path d="M1024 513.889c0 283.395-230.494 513.889-513.889 513.889-279.616-3.779-510.111-230.494-510.111-513.889s230.494-513.889 513.889-513.889c283.395 0 510.111 230.494 510.111 513.889zM68.015 513.889c0 11.336 0 22.672 0 34.007h132.251l41.565-41.565c11.336-11.336 26.45-15.114 41.565-15.114 15.114 3.779 30.229 15.114 37.786 26.45l45.343 94.465h45.343v-18.893l-11.336-11.336c-7.557-7.557-15.114-22.672-15.114-34.007s3.779-26.45 15.114-34.007l11.336-11.336c11.336-11.336 30.229-18.893 45.343-18.893l37.786-60.458c7.557-11.336 22.672-18.893 37.786-18.893 3.779 0 7.557 0 11.336 3.779v-139.808l-22.672-11.336c-15.114-7.557-26.45-22.672-26.45-41.565s7.557-34.007 22.672-45.343l105.801-90.686c-37.786-11.336-75.572-15.114-113.358-15.114-245.609 3.779-442.096 200.266-442.096 449.653zM513.889 959.764c98.244 0 188.93-34.007 264.502-86.908-15.114-3.779-26.45-11.336-37.786-22.672l-22.672-22.672-37.786 11.336c-7.557 3.779-15.114 3.779-22.672 3.779h-22.672c-26.45 0-52.9-11.336-71.793-30.229l-26.45-26.45c-15.114-15.114-22.672-37.786-22.672-56.679v-22.672c0-34.007 18.893-64.236 52.9-75.572l79.351-30.229 49.122-34.007c15.114-11.336 30.229-15.114 49.122-15.114h26.45c11.336 0 26.45 3.779 34.007 7.557 11.336-3.779 18.893-7.557 34.007-7.557h11.336c41.565 0 75.572 34.007 75.572 75.572v7.557l11.336 11.336c3.779 3.779 3.779 7.557 7.557 11.336 15.114-41.565 22.672-86.908 22.672-136.030 0-181.373-105.801-336.295-260.723-404.31l-120.915 102.022c22.672 11.336 37.786 34.007 37.786 60.458v162.48c0 26.45-22.672 49.122-49.122 49.122-7.557 0-15.114 0-22.672-3.779l-22.672 37.786c-11.336 18.893-34.007 30.229-56.679 30.229v0c11.336 11.336 18.893 30.229 18.893 45.343v18.893c0 37.786-30.229 68.015-68.015 68.015h-56.679c-26.45 0-49.122-15.114-60.458-37.786l-37.786-71.793-22.672 22.672c-11.336 11.336-30.229 18.893-45.343 18.893h-120.915c45.343 188.93 222.937 340.074 434.539 340.074zM891.749 744.384v-37.786c0-7.557-3.779-18.893-11.336-22.672l-26.45-26.45c-3.779-3.779-3.779-7.557-3.779-11.336v-26.45c0-3.779-3.779-7.557-7.557-7.557h-11.336c-3.779 0-7.557 3.779-7.557 7.557l-7.557 30.229c0 3.779-3.779 7.557-7.557 7.557h-7.557c-3.779 0-7.557-3.779-7.557-3.779l-11.336-26.45c-3.779-7.557-7.557-11.336-15.114-11.336h-26.45c-3.779 0-7.557 0-11.336 3.779l-49.122 34.007c-3.779 3.779-7.557 3.779-11.336 7.557l-83.129 34.007c-7.557 3.779-11.336 7.557-11.336 15.114v22.672c0 3.779 3.779 7.557 3.779 11.336l26.45 26.45c7.557 7.557 15.114 11.336 22.672 11.336h22.672c3.779 0 3.779 0 7.557 0l45.343-11.336c3.779 0 11.336 0 15.114 0 11.336 0 30.229 7.557 37.786 15.114l26.45 26.45c7.557 7.557 15.114 11.336 22.672 11.336h30.229c0 0 3.779 0 3.779 0 22.672-30.229 41.565-60.458 52.9-79.351z"/>
</g>
</svg>
