<?xml version="1.0" encoding="utf-8"?>
<!-- Generator: Adobe Illustrator 17.0.0, SVG Export Plug-In . SVG Version: 6.00 Build 0)  -->
<!DOCTYPE svg PUBLIC "-//W3C//DTD SVG 1.1//EN" "http://www.w3.org/Graphics/SVG/1.1/DTD/svg11.dtd">
<svg version="1.1" id="Layer_1" xmlns="http://www.w3.org/2000/svg" xmlns:xlink="http://www.w3.org/1999/xlink" x="0px" y="0px"
	 width="1025px" height="1024px" viewBox="0 0 1025 1024" enable-background="new 0 0 1025 1024" xml:space="preserve">
<g>
	<path d="M960.5 256v610.133c0 89.6-72.533 162.133-162.133 162.133h-571.733c-89.6-4.267-162.133-76.8-162.133-162.133v-610.133h192c0-140.8 115.2-256 256-256s256 115.2 256 256h192zM896.5 320h-128v98.133c0 17.067-12.8 34.133-34.133 34.133s-29.867-17.067-29.867-34.133v-98.133h-384v98.133c0 17.067-12.8 34.133-34.133 34.133s-34.133-12.8-34.133-34.133v-98.133h-128v546.133c0 51.2 42.667 98.133 98.133 98.133h576c51.2 0 98.133-42.667 98.133-98.133v-546.133zM320.5 256h384c0-106.667-85.333-192-192-192s-192 85.333-192 192z"/>
</g>
</svg>
