<svg width="1025" height="1024" xmlns="http://www.w3.org/2000/svg">

 <g>
  <title>background</title>
  <rect fill="none" id="canvas_background" height="402" width="582" y="-1" x="-1"/>
 </g>
 <g>
  <title>Layer 1</title>
  <g stroke="null" id="svg_1">
   <path stroke="null" id="svg_2" d="m963.318218,510.136398l-0.001048,-53.478862c0,-2.097169 -0.26201,-4.194338 -0.786029,-6.291507s-1.135026,-4.019225 -1.834069,-5.767215l-107.424018,-214.959839c-2.445075,-4.543517 -5.764216,-8.12653 -9.956372,-10.747992s-8.908333,-3.932192 -14.148529,-3.932192l-321.748034,0c-7.336274,0 -13.62451,2.621461 -18.864706,7.864384s-7.860294,11.53443 -7.860294,18.874522l0,188.220932l-153.537742,0l18.340686,-74.449505c1.747081,-6.990913 0.699042,-13.718632 -3.144118,-20.185253s-9.25733,-10.572878 -16.244608,-12.320869c-7.336274,-1.74799 -14.148529,-0.699406 -20.436764,3.145754s-10.306417,9.437261 -12.052451,16.777353l-22.008823,87.03252l-150.393625,0l34.585294,-68.68229c3.144118,-6.640686 3.58115,-13.456486 1.310049,-20.447399s-6.725268,-12.233836 -13.3625,-15.728769c-6.637232,-3.145754 -13.450535,-3.583014 -20.436764,-1.310731s-12.226425,6.728767 -15.720588,13.369453l-53.449999,107.479919c-1.048039,1.74799 -1.834069,3.670046 -2.358088,5.767215s-0.786029,4.194338 -0.786029,6.291507l0,53.477814c0,22.020276 4.891199,42.380643 14.672549,61.080052s22.882888,34.166031 39.30147,46.399868l0,349.178665l-26.725,0c-7.686319,0 -14.148529,2.621461 -19.388725,7.864384s-7.860294,11.53443 -7.860294,18.874522s2.620098,13.6316 7.860294,18.874522s11.702406,7.864384 19.388725,7.864384l858.344103,0c7.336274,0 13.62451,-2.621461 18.864706,-7.864384s7.860294,-11.53443 7.860294,-18.874522s-2.620098,-13.6316 -7.860294,-18.874522s-11.528431,-7.864384 -18.864706,-7.864384l-26.725,0l0,-349.178665c16.069585,-12.233836 28.9961,-27.700459 38.77745,-46.399868s14.672549,-39.059776 14.672549,-61.080052l0,0l0.001048,0.001049zm-348.473033,80.739964c-22.35782,0 -41.397548,-7.864384 -57.118136,-23.593153s-23.580882,-34.777356 -23.580882,-57.14786l0,-26.738907l160.874017,0l0,26.738907c0,22.370503 -7.860294,41.419091 -23.580882,57.14786s-34.585294,23.593153 -56.594117,23.593153l0,0zm134.149017,-107.478871l160.874017,0l0,26.738907c0,22.370503 -7.860294,41.419091 -23.580882,57.14786s-34.760316,23.593153 -57.118136,23.593153c-22.008823,0 -40.873529,-7.864384 -56.594117,-23.593153s-23.580882,-34.777356 -23.580882,-57.14786l0,-26.738907zm144.10539,-53.477814l-150.393625,0l-39.82549,-161.482025l110.044116,0l80.174999,161.482025zm-358.953425,-161.482025l113.188233,0l40.349509,161.482025l-153.537742,0l0,-161.482025zm-53.451047,241.697697c0,22.370503 -7.860294,41.419091 -23.580882,57.14786s-34.759268,23.593153 -57.118136,23.593153s-41.397548,-7.864384 -57.118136,-23.593153s-23.580882,-34.777356 -23.580882,-57.14786l0,-26.738907l161.398036,0l0,26.738907zm-375.722052,0l0,-26.738907l160.874017,0l0,26.738907c0,22.370503 -7.860294,41.419091 -23.580882,57.14786s-34.760316,23.593153 -57.118136,23.593153c-22.008823,0 -40.873529,-7.864384 -56.594117,-23.593153s-23.580882,-34.777356 -23.580882,-57.14786l0,0zm53.449999,131.597365c4.541154,1.048585 8.99532,1.74799 13.3625,2.097169s8.821346,0.524292 13.3625,0.524292c22.008823,0 42.3586,-4.893744 61.048283,-14.680184s34.148261,-22.719682 46.375735,-38.797629c12.226425,16.077947 27.685003,29.01119 46.375735,38.797629s39.03946,14.680184 61.048283,14.680184s42.357552,-4.893744 61.048283,-14.680184s34.149309,-22.719682 46.375735,-38.797629c9.782398,12.932194 21.572839,23.855299 35.371323,32.768268s28.734091,14.94233 44.803676,18.088084l0,325.06122l-429.172052,0l0,-325.06122zm697.471134,325.062269l-214.324016,0l0,-325.06122c16.41963,-3.145754 31.528163,-9.175115 45.327695,-18.088084s25.414951,-19.836075 34.847303,-32.768268c12.227473,16.077947 27.686051,29.01119 46.375735,38.797629s39.03946,14.680184 61.048283,14.680184c4.541154,0 9.083356,-0.175114 13.62451,-0.524292s8.908333,-1.048585 13.10049,-2.097169l0,325.06122zm-106.899998,-188.221981c0,7.340092 -2.620098,13.6316 -7.860294,18.874522s-11.703454,7.864384 -19.388725,7.864384c-7.336274,0 -13.62451,-2.621461 -18.864706,-7.864384s-7.860294,-11.53443 -7.860294,-18.874522s2.620098,-13.6316 7.860294,-18.874522s11.528431,-7.864384 18.864706,-7.864384c7.685271,0 14.148529,2.621461 19.388725,7.864384s7.860294,11.53443 7.860294,18.874522l0,0zm-509.872118,26.738907c-3.493115,0 -6.899242,-0.611325 -10.218382,-1.835023s-6.201248,-3.232786 -8.646323,-6.029361c-5.240196,-5.242923 -7.860294,-11.53443 -7.860294,-18.874522s2.620098,-13.6316 7.860294,-18.874522l53.449999,-53.477814c5.240196,-5.242923 11.528431,-7.864384 18.864706,-7.864384s13.62451,2.621461 18.864706,7.864384s7.860294,11.53443 7.860294,18.874522s-2.620098,13.6316 -7.860294,18.874522l-53.449999,53.477814c-2.445075,2.796575 -5.327183,4.805663 -8.646323,6.029361s-6.725268,1.835023 -10.218382,1.835023l0,0zm53.449999,107.479919c-3.493115,0 -6.90029,-0.611325 -10.218382,-1.835023s-6.2002,-3.232786 -8.646323,-6.029361c-5.240196,-5.242923 -7.860294,-11.53443 -7.860294,-18.874522s2.620098,-13.6316 7.860294,-18.874522l160.874017,-160.957733c5.240196,-5.242923 11.616466,-7.864384 19.126715,-7.864384s13.886519,2.621461 19.126715,7.864384s7.860294,11.53443 7.860294,18.874522s-2.620098,13.6316 -7.860294,18.874522l-161.398036,160.957733c-2.445075,2.796575 -5.328231,4.805663 -8.646323,6.029361s-6.724219,1.835023 -10.218382,1.835023l0,0zm160.874017,0c-3.144118,0 -6.37627,-0.611325 -9.695411,-1.835023s-6.375222,-3.232786 -9.170343,-6.029361c-5.240196,-5.242923 -7.860294,-11.53443 -7.860294,-18.874522s2.620098,-13.6316 7.860294,-18.874522l53.974019,-54.002106c5.240196,-5.242923 11.528431,-7.864384 18.864706,-7.864384s13.62451,2.621461 18.864706,7.864384s7.860294,11.622511 7.860294,19.136669s-2.620098,13.893746 -7.860294,19.136669l-53.449999,53.477814c-2.795121,2.796575 -5.851203,4.805663 -9.170343,6.029361s-6.724219,1.835023 -10.218382,1.835023l0,0l0.001048,0zm-268.299083,-644.354176l-106.899998,0c-7.686319,0 -14.148529,-2.621461 -19.388725,-7.864384s-7.860294,-11.53443 -7.860294,-18.874522l0,-107.479919c0,-7.340092 2.620098,-13.6316 7.860294,-18.874522s11.702406,-7.864384 19.388725,-7.864384l80.174999,0l0,-53.477814l-80.174999,0c-7.686319,0 -14.148529,-2.621461 -19.388725,-7.864384s-7.860294,-11.53443 -7.860294,-18.874522c0,-7.689271 2.620098,-14.155892 7.860294,-19.398815s11.702406,-7.864384 19.388725,-7.864384l106.899998,0c7.685271,0 14.148529,2.621461 19.388725,7.864384s7.860294,11.709544 7.860294,19.398815l0,106.955627c0,7.689271 -2.620098,14.155892 -7.860294,19.398815s-11.702406,7.864384 -19.388725,7.864384l-80.174999,0l0,53.477814l80.174999,0c7.685271,0 14.148529,2.621461 19.388725,7.864384s7.860294,11.53443 7.860294,18.874522s-2.620098,13.6316 -7.860294,18.874522s-11.702406,7.864384 -19.388725,7.864384l0,0zm214.848036,-268.437653c-7.336274,0 -13.62451,2.621461 -18.864706,7.864384s-7.860294,11.709544 -7.860294,19.398815l0,80.21672l-53.974019,0l0,-80.21672c0,-7.689271 -2.620098,-14.155892 -7.860294,-19.398815s-11.528431,-7.864384 -18.864706,-7.864384s-13.62451,2.621461 -18.864706,7.864384s-7.860294,11.709544 -7.860294,19.398815l0,106.955627c0,7.689271 2.620098,14.155892 7.860294,19.398815s11.528431,7.864384 18.864706,7.864384l80.699018,0l0,80.21672c0,7.340092 2.620098,13.6316 7.860294,18.874522s11.528431,7.864384 18.864706,7.864384s13.62451,-2.621461 18.864706,-7.864384s7.860294,-11.53443 7.860294,-18.874522l0,-214.435547c0,-7.689271 -2.620098,-14.155892 -7.860294,-19.398815s-11.528431,-7.864384 -18.864706,-7.864384l0,0z"/>
  </g>
 </g>
</svg>