<svg width="1025" height="1024" xmlns="http://www.w3.org/2000/svg">

 <g>
  <title>background</title>
  <rect fill="none" id="canvas_background" height="402" width="582" y="-1" x="-1"/>
 </g>
 <g>
  <title>Layer 1</title>
  <g stroke="null" id="svg_1">
   <path stroke="null" id="svg_2" d="m1024.357395,377.905959l-0.001177,-62.383959c0,-2.44643 -0.29431,-4.89286 -0.882929,-7.339289s-1.274949,-4.688583 -2.060167,-6.727682l-120.666925,-250.759051c-2.746497,-5.30019 -6.474811,-9.479915 -11.183764,-12.537953s-10.006526,-4.587056 -15.892717,-4.587056l-723.412932,0c-5.494171,0 -10.692855,1.529019 -15.598407,4.587056s-8.534978,7.237762 -10.889454,12.537953l-120.666925,250.759051c-1.177238,2.039099 -2.060167,4.281252 -2.648786,6.727682s-0.882929,4.89286 -0.882929,7.339289l0,62.383959c0,25.687513 5.494171,49.438676 16.481336,71.252267s25.703821,39.856011 44.146436,54.127259l0,407.330557l-30.019577,0c-8.633866,0 -15.892717,3.058037 -21.778908,9.174112s-8.829287,13.455364 -8.829287,22.017868s2.943096,15.901794 8.829287,22.017868s13.145043,9.174112 21.778908,9.174112l964.158163,0c8.240668,0 15.304098,-3.058037 21.190289,-9.174112s8.829287,-13.455364 8.829287,-22.017868s-2.943096,-15.901794 -8.829287,-22.017868s-12.949621,-9.174112 -21.190289,-9.174112l-30.019577,0l0,-407.330557c18.050595,-14.271248 32.570652,-32.313668 43.557817,-54.127259s16.481336,-45.564754 16.481336,-71.252267l0,0l0.001177,0zm-391.431733,94.187546c-25.114025,0 -46.500913,-9.174112 -64.159487,-27.522335s-26.487862,-40.569145 -26.487862,-66.665211l0,-31.19198l180.706078,0l0,31.19198c0,26.096066 -8.829287,48.316988 -26.487862,66.665211s-38.848864,27.522335 -63.570868,27.522335l0,0zm-572.727607,-94.187546l0,-31.19198l180.706078,0l0,31.19198c0,26.096066 -8.829287,48.316988 -26.487862,66.665211s-39.045463,27.522335 -64.159487,27.522335c-24.722004,0 -45.912293,-9.174112 -63.570868,-27.522335s-26.487862,-40.569145 -26.487862,-66.665211l0,0zm422.039929,-281.951031l0,188.375092l-172.46541,0l45.323674,-188.375092l127.141736,0zm187.182066,0l45.323674,188.375092l-172.46541,0l0,-188.375092l127.141736,0zm-368.476763,250.759051l181.294697,0l0,31.19198c0,26.096066 -8.829287,48.316988 -26.487862,66.665211s-39.044285,27.522335 -64.159487,27.522335s-46.500913,-9.174112 -64.159487,-27.522335s-26.487862,-40.569145 -26.487862,-66.665211l0,-31.19198zm482.668878,0l180.706078,0l0,31.19198c0,26.096066 -8.829287,48.316988 -26.487862,66.665211s-39.045463,27.522335 -64.159487,27.522335c-24.722004,0 -45.912293,-9.174112 -63.570868,-27.522335s-26.487862,-40.569145 -26.487862,-66.665211l0,-31.19198zm161.870265,-62.383959l-168.933695,0l-44.735055,-188.375092l123.610021,0l90.05873,188.375092zm-776.389832,-188.375092l123.610021,0l-45.323674,188.375092l-168.933695,0l90.647349,-188.375092zm-48.855389,435.464499c5.100974,1.223215 10.104236,2.039099 15.009788,2.44643s9.908815,0.611607 15.009788,0.611607c24.722004,0 47.58044,-5.708744 68.574131,-17.125008s38.357955,-26.503397 52.092795,-45.258951c13.733662,18.755554 31.097927,33.842686 52.092795,45.258951s43.852126,17.125008 68.574131,17.125008s47.579263,-5.708744 68.574131,-17.125008s38.359133,-26.503397 52.092795,-45.258951c10.988342,15.085909 24.232273,27.828139 39.731792,38.225465s32.276342,17.430812 50.326937,21.100457l0,379.196614l-482.079082,0l0,-379.196614zm783.453262,379.196614l-240.745231,0l0,-379.196614c18.443792,-3.669645 35.41486,-10.70313 50.915556,-21.100457s28.548029,-23.139556 39.143173,-38.225465c13.734839,18.755554 31.099104,33.842686 52.092795,45.258951s43.852126,17.125008 68.574131,17.125008c5.100974,0 10.203124,-0.204277 15.304098,-0.611607s10.006526,-1.223215 14.715479,-2.44643l0,379.196614zm-120.078306,-219.567072c0,8.562504 -2.943096,15.901794 -8.829287,22.017868s-13.14622,9.174112 -21.778908,9.174112c-8.240668,0 -15.304098,-3.058037 -21.190289,-9.174112s-8.829287,-13.455364 -8.829287,-22.017868s2.943096,-15.901794 8.829287,-22.017868s12.949621,-9.174112 21.190289,-9.174112c8.632688,0 15.892717,3.058037 21.778908,9.174112s8.829287,13.455364 8.829287,22.017868l0,0zm-572.727607,31.19198c-3.923735,0 -7.74976,-0.713134 -11.478073,-2.140626s-6.965719,-3.771171 -9.712216,-7.033486c-5.886191,-6.116074 -8.829287,-13.455364 -8.829287,-22.017868s2.943096,-15.901794 8.829287,-22.017868l60.039153,-62.383959c5.886191,-6.116074 12.949621,-9.174112 21.190289,-9.174112s15.304098,3.058037 21.190289,9.174112s8.829287,13.455364 8.829287,22.017868s-2.943096,15.901794 -8.829287,22.017868l-60.039153,62.383959c-2.746497,3.262314 -5.983902,5.605994 -9.712216,7.033486s-7.554338,2.140626 -11.478073,2.140626l0,0zm60.039153,125.379526c-3.923735,0 -7.750937,-0.713134 -11.478073,-2.140626s-6.964542,-3.771171 -9.712216,-7.033486c-5.886191,-6.116074 -8.829287,-13.455364 -8.829287,-22.017868s2.943096,-15.901794 8.829287,-22.017868l180.706078,-187.763485c5.886191,-6.116074 13.048509,-9.174112 21.484599,-9.174112s15.598407,3.058037 21.484599,9.174112s8.829287,13.455364 8.829287,22.017868s-2.943096,15.901794 -8.829287,22.017868l-181.294697,187.763485c-2.746497,3.262314 -5.985079,5.605994 -9.712216,7.033486s-7.553161,2.140626 -11.478073,2.140626l0,0zm180.706078,0c-3.531715,0 -7.162318,-0.713134 -10.890631,-2.140626s-7.161141,-3.771171 -10.300835,-7.033486c-5.886191,-6.116074 -8.829287,-13.455364 -8.829287,-22.017868s2.943096,-15.901794 8.829287,-22.017868l60.627772,-62.995567c5.886191,-6.116074 12.949621,-9.174112 21.190289,-9.174112s15.304098,3.058037 21.190289,9.174112s8.829287,13.558114 8.829287,22.323672s-2.943096,16.207597 -8.829287,22.323672l-60.039153,62.383959c-3.139695,3.262314 -6.572521,5.605994 -10.300835,7.033486s-7.553161,2.140626 -11.478073,2.140626l0,0l0.001177,0z"/>
  </g>
 </g>
</svg>