<?xml version="1.0" encoding="utf-8"?>
<!-- Generator: Adobe Illustrator 17.0.0, SVG Export Plug-In . SVG Version: 6.00 Build 0)  -->
<!DOCTYPE svg PUBLIC "-//W3C//DTD SVG 1.1//EN" "http://www.w3.org/Graphics/SVG/1.1/DTD/svg11.dtd">
<svg version="1.1" id="Layer_1" xmlns="http://www.w3.org/2000/svg" xmlns:xlink="http://www.w3.org/1999/xlink" x="0px" y="0px"
	 width="1025px" height="1024px" viewBox="0 0 1025 1024" enable-background="new 0 0 1025 1024" xml:space="preserve">
<g>
	<path d="M940.739 265.126c-9.822 9.822-20.035 17.799-30.796 24.133l-174.718-174.725c6.334-10.753 14.303-20.966 24.133-30.796 18.784-18.784 18.784-49.353-0.008-68.145-18.784-18.784-49.353-18.792-68.145 0-78.201 78.201-79.343 172.731-65.658 258.080-99.355-20.481-209.189-29.193-296.868 58.479-39.632 39.64-62.42 86.194-69.662 142.334-1.064 8.235 4.755 15.773 12.989 16.837 8.211 1.064 15.773-4.755 16.829-12.989 6.366-49.298 26.346-90.158 61.107-124.919 80.782-80.782 182.835-69.153 281.392-47.781 2.94 14.725 5.544 26.276 8.414 38.968-97.924-22.272-192.766-38.014-264.289 34.542-159.875 160.102 111.789 433.236-66.925 611.949-7.062 7.062-18.557 7.062-25.619 0-7.069-7.062-7.069-18.557 0-25.619 113.322-113.329 12.066-276.129 4.129-431.992-0.43-8.289-7.429-14.686-15.781-14.248-8.297 0.422-14.678 7.492-14.256 15.781 1.65 32.328 7.14 64.727 13.185 94.006-85.349-13.677-179.871-12.536-258.072 65.658-18.831 18.823-18.839 49.314 0 68.145 18.831 18.839 49.314 18.839 68.153 0 9.822-9.822 20.035-17.791 30.788-24.125l174.725 174.718c-6.342 10.761-14.311 20.974-24.133 30.796-18.792 18.784-18.792 49.361 0 68.145 18.784 18.792 49.353 18.792 68.145 0 78.201-78.201 79.343-172.731 65.658-258.080 113.408 23.374 214.749 23.64 296.868-58.479 87.679-87.679 78.952-197.529 58.471-296.884 28.528 4.536 57.181 7.281 86.029 6.373 8.297-0.266 14.811-7.21 14.553-15.507-0.266-8.297-7.195-14.843-15.5-14.553-26.948 0.845-56.375-1.681-91.988-7.961-2.893-12.692-5.709-24.649-8.876-38.397 83.402 16.79 162.784 21.724 226.987-42.479 7.062-7.062 18.549-7.062 25.619 0 7.085 7.077 7.085 18.542 0 25.619-28.129 28.137-59.902 46.405-97.126 55.844-8.047 2.041-12.919 10.213-10.878 18.268 2.041 8.047 10.221 12.919 18.268 10.878 42.62-10.807 78.929-31.648 110.999-63.726 9.103-9.103 14.115-21.2 14.115-34.072 0-42.8-52.082-64.25-82.26-34.072zM59.011 741.56c-7.085 7.085-18.542 7.085-25.627 0-7.077-7.077-7.085-18.534 0-25.619 48.696-48.696 105.783-63.343 162.557-63.343 27.457 0 54.85 3.425 81.181 8.086 2.87 12.622 5.795 25.032 8.876 38.405-83.402-16.798-162.784-21.732-226.987 42.471zM140.598 725.701c40.798-12.536 89.595-7.742 152.579 5.599 13.349 62.983 18.143 111.781 5.599 152.579zM373.724 650.761c-11.464-49.509-21.607-95.679-21.161-137.455l158.608 158.608c-41.775 0.446-87.945-9.689-137.447-21.153zM549.74 667.965l-193.228-193.228c4.778-22.804 14.217-43.98 30.186-63.312l226.346 226.354c-19.324 15.977-40.493 25.408-63.304 30.186zM634.315 616.524l-226.354-226.354c19.324-15.969 40.501-25.408 63.304-30.186l193.228 193.228c-4.778 22.804-14.209 43.98-30.178 63.312zM647.289 377.189c11.464 49.509 21.599 95.679 21.161 137.455l-158.608-158.608c41.767-0.446 87.945 9.689 137.447 21.153zM671.062 674.534c-80.782 80.782-182.827 69.153-281.392 47.781-2.119-10.573-4.426-21.466-8.414-38.968 99.183 22.561 192.070 37.677 264.188-34.44 158.811-158.804-110.663-434.362 67.034-612.051 7.062-7.062 18.549-7.069 25.619 0 7.062 7.062 7.062 18.557 0 25.619-159.719 159.719 111.625 433.408-67.034 612.059zM727.836 296.649c-13.349-62.983-18.143-111.781-5.599-152.579l158.178 158.178c-40.798 12.544-89.595 7.75-152.579-5.599zM727.836 296.649z"/>
</g>
</svg>
