<?xml version="1.0" encoding="utf-8"?>
<!-- Generator: Adobe Illustrator 17.0.0, SVG Export Plug-In . SVG Version: 6.00 Build 0)  -->
<!DOCTYPE svg PUBLIC "-//W3C//DTD SVG 1.1//EN" "http://www.w3.org/Graphics/SVG/1.1/DTD/svg11.dtd">
<svg version="1.1" id="Layer_1" xmlns="http://www.w3.org/2000/svg" xmlns:xlink="http://www.w3.org/1999/xlink" x="0px" y="0px"
	 width="1025px" height="1024px" viewBox="0 0 1025 1024" enable-background="new 0 0 1025 1024" xml:space="preserve">
<g>
	<path d="M960.967 960.467c0 33.635-29.898 63.533-63.533 63.533h-769.869c-33.635 0-63.533-29.898-63.533-63.533 0-142.015 115.854-257.869 257.869-257.869h11.212c22.423 0 48.584 7.474 71.007 14.949 29.898 11.212 78.482 18.686 112.117 18.686 29.898 0 82.219-7.474 112.117-18.686 22.423-7.474 48.584-14.949 71.007-14.949h11.212c134.54 3.737 250.394 115.854 250.394 257.869zM127.566 414.832v-33.635c0-209.285 171.912-381.197 384.934-381.197s384.934 171.912 384.934 384.934v33.635c0 123.328-100.905 224.234-224.234 224.234h-190.599c-33.635 0-63.533-29.898-63.533-63.533s29.898-63.533 63.533-63.533h63.533c33.635 0 63.533 29.898 63.533 63.533h63.533c89.693 0 160.701-71.007 160.701-160.701v-33.635c0-175.65-142.015-321.401-321.401-321.401s-321.401 142.015-321.401 321.401v33.635c-0 14.949-14.949 29.898-29.898 29.898-18.686 0-33.635-14.949-33.635-33.635zM897.434 960.467c0-104.642-85.956-190.599-190.599-190.599h-11.212c-14.949 0-29.898 3.737-52.321 11.212-37.372 11.212-93.431 22.423-130.803 22.423s-97.168-11.212-130.803-22.423c-18.686-7.474-37.372-11.212-48.584-11.212h-11.212c-104.642 0-190.599 85.956-190.599 190.599l766.131-0zM512.5 190.599c-104.642 0-190.599 85.956-190.599 190.599 0 41.109 22.423 97.168 48.584 130.803-11.212 14.949-18.686 44.847-18.686 63.533 0 3.737 0 3.737 0 7.474-59.796-48.584-97.168-119.591-97.168-198.073 0-142.015 115.854-257.869 257.869-257.869s257.869 115.854 257.869 257.869c0 29.898-7.474 56.058-14.949 82.219-14.949 26.161-52.321 44.847-82.219 44.847h-18.686c0 0 0 0 0 0 26.161-29.898 48.584-85.956 48.584-127.066-0-108.38-85.956-194.336-190.599-194.336 0 0 0 0 0 0s0 0 0 0z"/>
</g>
</svg>
