<?xml version="1.0" encoding="utf-8"?>
<!-- Generator: Adobe Illustrator 17.0.0, SVG Export Plug-In . SVG Version: 6.00 Build 0)  -->
<!DOCTYPE svg PUBLIC "-//W3C//DTD SVG 1.1//EN" "http://www.w3.org/Graphics/SVG/1.1/DTD/svg11.dtd">
<svg version="1.1" id="Layer_1" xmlns="http://www.w3.org/2000/svg" xmlns:xlink="http://www.w3.org/1999/xlink" x="0px" y="0px"
	 width="1025px" height="1024px" viewBox="0 0 1025 1024" enable-background="new 0 0 1025 1024" xml:space="preserve">
<g>
	<path d="M1016.5 443c-5-5-11.001-7.499-18.001-7.499s-13 2.5-18 7.5l-59 58.5c-0.667-26.334-3.75-52.167-9.25-77.5s-13.333-49.833-23.5-73.5-22.583-46.25-37.25-67.75-31.333-41.583-50-60.25c-19.333-19.333-40.167-36.417-62.5-51.25s-45.75-27.333-70.25-37.5-49.917-17.917-76.25-23.25-53.167-8-80.5-8c-38 0-74.916 5.083-110.75 15.25s-69.417 24.667-100.75 43.5-59.834 41.75-85.5 68.75-47.5 57.333-65.5 91c-3.333 6.333-3.917 12.833-1.75 19.5s6.417 11.667 12.75 15c6 3.333 12.416 4 19.25 2s11.917-6.167 15.25-12.5c15.666-29.667 34.75-56.25 57.25-79.75s47.416-43.5 74.75-60 56.667-29.167 88-38 63.667-13.25 97-13.25c48.667 0 94.417 9 137.25 27s80.333 42.75 112.5 74.25 57.917 68.333 77.25 110.5 29.667 87.417 31 135.75l-58.5-58.5c-5-5-11-7.5-18-7.5s-13 2.5-18 7.5-7.5 11-7.5 18 2.5 13 7.5 18l102.5 102.5c2.333 2.667 5.083 4.583 8.25 5.75s6.417 1.75 9.75 1.75 6.583-0.583 9.75-1.75 5.917-3.083 8.25-5.75l102.5-102.5c5-5 7.5-11 7.5-18s-2.5-13-7.5-18v0zM863.5 669.001c-6-3.333-12.416-4-19.25-2s-11.917 6.166-15.25 12.5c-15.667 29.334-34.667 55.834-57 79.5s-47.25 43.75-74.75 60.25-56.917 29.167-88.25 38-63.667 13.25-97 13.25c-48.666 0-94.416-9.083-137.25-27.25s-80.334-42.916-112.5-74.25-57.916-68.167-77.25-110.5-29.667-87.5-31-135.5l58.5 58.5c2.333 2.667 5.083 4.583 8.25 5.75s6.417 1.75 9.75 1.75 6.583-0.583 9.75-1.75 5.917-3.083 8.25-5.75c5-5 7.5-11 7.5-18s-2.5-13-7.5-18l-102.5-102.5c-5-5-11-7.5-18-7.5s-13 2.5-18 7.5l-102.5 102.5c-5 5-7.5 11-7.5 18s2.5 13 7.5 18 11 7.5 18 7.5 13-2.5 18-7.5l59-59c0.667 26.333 3.75 52.25 9.25 77.75s13.334 50 23.5 73.5 22.583 46 37.25 67.5 31.333 41.75 50 60.75c19.334 19.333 40.167 36.417 62.5 51.25s45.75 27.334 70.25 37.5 49.916 17.917 76.25 23.25 53.167 8 80.5 8c38 0 74.917-5.083 110.75-15.25s69.417-24.666 100.75-43.5 59.833-41.75 85.5-68.75 47.5-57.334 65.5-91c3.333-6.334 3.917-12.917 1.75-19.75s-6.417-11.75-12.75-14.75v0z"/>
</g>
</svg>
