<?xml version="1.0" encoding="utf-8"?>
<!-- Generator: Adobe Illustrator 17.0.0, SVG Export Plug-In . SVG Version: 6.00 Build 0)  -->
<!DOCTYPE svg PUBLIC "-//W3C//DTD SVG 1.1//EN" "http://www.w3.org/Graphics/SVG/1.1/DTD/svg11.dtd">
<svg version="1.1" id="Layer_1" xmlns="http://www.w3.org/2000/svg" xmlns:xlink="http://www.w3.org/1999/xlink" x="0px" y="0px"
	 width="1025px" height="1024px" viewBox="0 0 1025 1024" enable-background="new 0 0 1025 1024" xml:space="preserve">
<g>
	<path d="M939.5 366l-153.5-153.5c-5-5-11-7.5-18-7.5s-13 2.5-18 7.5-7.5 11-7.5 18 2.5 13 7.5 18l110 110h-732c-7 0-13 2.5-18 7.5s-7.5 11-7.5 18c0 7.333 2.5 13.5 7.5 18.5s11 7.5 18 7.5h732l-110 109.5c-5 5-7.5 11.083-7.5 18.25s2.5 13.25 7.5 18.25c2.333 2.333 5.083 4.167 8.25 5.5s6.417 2 9.75 2 6.583-0.667 9.75-2 5.917-3.167 8.25-5.5l153.5-153.5c5-5 7.5-11.083 7.5-18.25s-2.5-13.25-7.5-18.25v0zM896 666h-732l110-110c5-5 7.5-11.083 7.5-18.25s-2.5-13.25-7.5-18.25-11-7.5-18-7.5-13 2.5-18 7.5l-153.5 154c-5 5-7.5 11-7.5 18s2.5 13 7.5 18l153.5 153.5c2.333 2.667 5.083 4.583 8.25 5.75s6.417 1.75 9.75 1.75 6.584-0.583 9.75-1.75 5.916-3.083 8.25-5.75c5-5 7.5-11 7.5-18s-2.5-13-7.5-18l-110-110h732c7 0 13-2.5 18-7.5s7.5-11 7.5-18-2.5-13-7.5-18-11-7.5-18-7.5v0z"/>
</g>
</svg>
