<?xml version="1.0" encoding="utf-8"?>
<!-- Generator: Adobe Illustrator 17.0.0, SVG Export Plug-In . SVG Version: 6.00 Build 0)  -->
<!DOCTYPE svg PUBLIC "-//W3C//DTD SVG 1.1//EN" "http://www.w3.org/Graphics/SVG/1.1/DTD/svg11.dtd">
<svg version="1.1" id="Layer_1" xmlns="http://www.w3.org/2000/svg" xmlns:xlink="http://www.w3.org/1999/xlink" x="0px" y="0px"
	 width="1025px" height="1024px" viewBox="0 0 1025 1024" enable-background="new 0 0 1025 1024" xml:space="preserve">
<g>
	<path d="M384 977.5c-10.334 0-20.164-1.999-29.498-5.999s-17.667-9.5-25-16.5l-260-260.5c-7.334-7.333-12.917-15.667-16.751-25s-5.75-19.167-5.75-29.5c0-10 1.917-19.75 5.75-29.25s9.417-17.75 16.751-24.75l439.5-439.5c12.334-12.667 28.584-23.167 48.75-31.5s39.083-12.5 56.75-12.5h230.5c21 0 39 7.5 54 22.5s22.5 33.167 22.5 54.5v230.5c0 17.333-4.167 36.083-12.5 56.25s-18.667 36.583-31 49.25l-439.5 439.5c-7.334 7-15.667 12.5-25 16.5s-19.167 6-29.5 6v0zM614.505 154c-10.667 0-23 2.834-37 8.5s-24.833 12.333-32.5 20l-439.5 439.5c-2.333 2.333-4.167 5.083-5.501 8.25s-2 6.417-2 9.75c0 3.667 0.667 7 2 10s3.167 5.833 5.501 8.5l260.5 260c2.333 2.667 5.084 4.583 8.25 5.75s6.416 1.75 9.75 1.75 6.584-0.583 9.75-1.75 5.916-3.083 8.25-5.75l439.5-439.5c7.667-7.334 14.417-18.083 20.25-32.25s8.75-26.417 8.75-36.75v-230.5c0-7-2.5-13-7.5-18s-11-7.5-18-7.5h-230.5zM742.505 358.5c-21.333 0-39.5-7.5-54.5-22.5s-22.5-33-22.5-54c0-21.333 7.5-39.5 22.5-54.5s33.167-22.5 54.5-22.5c21 0 39 7.5 54 22.5s22.5 33.167 22.5 54.5c0 21-7.5 39-22.5 54s-33 22.5-54 22.5v0zM742.505 256c-7 0-13 2.5-18 7.5s-7.5 11.167-7.5 18.5c0 7 2.5 13 7.5 18s11 7.5 18 7.5 13-2.5 18-7.5 7.5-11 7.5-18c0-7.333-2.5-13.5-7.5-18.5s-11-7.5-18-7.5v0z"/>
</g>
</svg>
