<?xml version="1.0" encoding="utf-8"?>
<!-- Generator: Adobe Illustrator 17.0.0, SVG Export Plug-In . SVG Version: 6.00 Build 0)  -->
<!DOCTYPE svg PUBLIC "-//W3C//DTD SVG 1.1//EN" "http://www.w3.org/Graphics/SVG/1.1/DTD/svg11.dtd">
<svg version="1.1" id="Layer_1" xmlns="http://www.w3.org/2000/svg" xmlns:xlink="http://www.w3.org/1999/xlink" x="0px" y="0px"
	 width="1025px" height="1024px" viewBox="0 0 1025 1024" enable-background="new 0 0 1025 1024" xml:space="preserve">
<g>
	<path d="M1025 108.406c0 506.094-410 916.094-916.094 916.094-32.031 0-57.656-19.219-64.063-51.25l-44.844-198.594c-6.406-32.031 6.406-57.656 38.438-70.469l217.813-96.094c25.625-12.813 57.656-6.406 70.469 19.219l89.688 108.906c140.938-70.469 249.844-179.375 320.313-320.313l-108.906-89.688c-19.219-19.219-25.625-44.844-19.219-70.469l96.094-217.813c12.813-25.625 44.844-44.844 70.469-38.438l198.594 44.844c32.031 12.813 51.25 32.031 51.25 64.063zM960.938 108.406l-198.594-44.844-89.688 217.813 147.344 121.719c-96.094 205-211.406 320.312-416.406 416.406l-121.719-147.344-217.813 89.688 44.844 198.594c467.656 0 852.031-377.969 852.031-852.031z"/>
</g>
</svg>
