<?xml version="1.0" encoding="utf-8"?>
<!-- Generator: Adobe Illustrator 17.0.0, SVG Export Plug-In . SVG Version: 6.00 Build 0)  -->
<!DOCTYPE svg PUBLIC "-//W3C//DTD SVG 1.1//EN" "http://www.w3.org/Graphics/SVG/1.1/DTD/svg11.dtd">
<svg version="1.1" id="Layer_1" xmlns="http://www.w3.org/2000/svg" xmlns:xlink="http://www.w3.org/1999/xlink" x="0px" y="0px"
	 width="1025px" height="1024px" viewBox="0 0 1025 1024" enable-background="new 0 0 1025 1024" xml:space="preserve">
<g>
	<path d="M947 102.5h-294l-69.5-92c-2.333-3.333-5.333-5.917-9-7.75s-7.5-2.75-11.5-2.75h-102c-4 0-7.834 0.917-11.5 2.75s-6.666 4.417-9 7.75l-69.5 92h-294c-7.334 0-13.5 2.5-18.5 7.5s-7.5 11-7.5 18c0 7.333 2.5 13.5 7.5 18.5s11.166 7.5 18.5 7.5h870c7.333 0 13.5-2.5 18.5-7.5s7.5-11.167 7.5-18.5c0-7-2.5-13-7.5-18s-11.167-7.5-18.5-7.5v0zM473.5 51.5h77l38.5 51h-154l38.5-51zM900 205.5c-6.667-1.333-12.917 0.083-18.75 4.25s-9.417 9.75-10.75 16.75l-119.5 717.5c-1.333 7.667-5.417 14.417-12.25 20.25s-14.083 8.75-21.75 8.75h-410c-7.666 0-14.916-2.917-21.75-8.75s-10.917-12.583-12.25-20.25l-119.5-717.5c-1.333-7-4.833-12.583-10.5-16.75s-12-5.583-19-4.25c-7 1-12.584 4.417-16.75 10.25s-5.75 12.25-4.75 19.25l120 717.5c3.333 20 13.167 36.917 29.5 50.75s34.667 20.75 55 20.75h410c20.333 0 38.667-6.917 55-20.75s26.167-30.75 29.5-50.75l120-717.5c1-7-0.583-13.417-4.75-19.25s-9.75-9.25-16.75-10.25v0z"/>
</g>
</svg>
