<?xml version="1.0" encoding="utf-8"?>
<!-- Generator: Adobe Illustrator 17.0.0, SVG Export Plug-In . SVG Version: 6.00 Build 0)  -->
<!DOCTYPE svg PUBLIC "-//W3C//DTD SVG 1.1//EN" "http://www.w3.org/Graphics/SVG/1.1/DTD/svg11.dtd">
<svg version="1.1" id="Layer_1" xmlns="http://www.w3.org/2000/svg" xmlns:xlink="http://www.w3.org/1999/xlink" x="0px" y="0px"
	 width="1025px" height="1024px" viewBox="0 0 1025 1024" enable-background="new 0 0 1025 1024" xml:space="preserve">
<g>
	<path d="M793.5 102.5h-179v-25.5c0-21.333-7.5-39.5-22.5-54.5s-33.167-22.5-54.5-22.5h-102.5c-21 0-39 7.5-54 22.5s-22.5 33.167-22.5 54.5v25.5h-179.5c-21 0-39 7.5-54 22.5s-22.5 33.167-22.5 54.5v51c0 16.667 4.833 31.583 14.5 44.75s21.833 22.417 36.5 27.75v644.5c0 21 7.5 39 22.5 54s33.166 22.5 54.5 22.5h512c21 0 39-7.5 54-22.5s22.5-33 22.5-54v-644.5c15-5.333 27.333-14.583 37-27.75s14.5-28.083 14.5-44.75v-51c0-21.333-7.5-39.5-22.5-54.5s-33.167-22.5-54.5-22.5v0zM409.5 77c0-7 2.5-13 7.5-18s11-7.5 18-7.5h102.5c7 0 13 2.5 18 7.5s7.5 11 7.5 18v25.5h-153.5v-25.5zM742.5 973h-512c-7 0-13-2.5-18-7.5s-7.5-11-7.5-18v-640h563v640c0 7-2.5 13-7.5 18s-11 7.5-18 7.5v0zM819 230.5c0 7-2.5 13-7.5 18s-11 7.5-18 7.5h-614.5c-7 0-13-2.5-18-7.5s-7.5-11-7.5-18v-51c0-7 2.5-13 7.5-18s11-7.5 18-7.5h614.5c7 0 13 2.5 18 7.5s7.5 11 7.5 18v51zM640 358.5c-7 0-13 2.5-18 7.5s-7.5 11-7.5 18v512c0 7.333 2.5 13.5 7.5 18.5s11 7.5 18 7.5 13-2.5 18-7.5 7.5-11.167 7.5-18.5v-512c0-7-2.5-13-7.5-18s-11-7.5-18-7.5v0zM486.5 358.5c-7 0-13 2.5-18 7.5s-7.5 11-7.5 18v512c0 7.333 2.5 13.5 7.5 18.5s11 7.5 18 7.5 13-2.5 18-7.5 7.5-11.167 7.5-18.5v-512c0-7-2.5-13-7.5-18s-11-7.5-18-7.5v0zM333 358.5c-7.334 0-13.5 2.5-18.5 7.5s-7.5 11-7.5 18v512c0 7.333 2.5 13.5 7.5 18.5s11.166 7.5 18.5 7.5c7 0 13-2.5 18-7.5s7.5-11.167 7.5-18.5v-512c0-7-2.5-13-7.5-18s-11-7.5-18-7.5v0z"/>
</g>
</svg>
