<?xml version="1.0" encoding="utf-8"?>
<!-- Generator: Adobe Illustrator 17.0.0, SVG Export Plug-In . SVG Version: 6.00 Build 0)  -->
<!DOCTYPE svg PUBLIC "-//W3C//DTD SVG 1.1//EN" "http://www.w3.org/Graphics/SVG/1.1/DTD/svg11.dtd">
<svg version="1.1" id="Layer_1" xmlns="http://www.w3.org/2000/svg" xmlns:xlink="http://www.w3.org/1999/xlink" x="0px" y="0px"
	 width="1025px" height="1024px" viewBox="0 0 1025 1024" enable-background="new 0 0 1025 1024" xml:space="preserve">
<g>
	<path d="M896 973h-819c-21.334 0-39.5-7.5-54.5-22.5s-22.5-33.167-22.5-54.5v-102c0-7.333 2.5-13.5 7.5-18.5s11-7.5 18-7.5 13 2.5 18 7.5 7.5 11.167 7.5 18.5v102c0 7.333 2.5 13.5 7.5 18.5s11.166 7.5 18.5 7.5h819c7 0 13-2.5 18-7.5s7.5-11.167 7.5-18.5v-102c0-7.333 2.5-13.5 7.5-18.5s11-7.5 18-7.5c7.333 0 13.5 2.5 18.5 7.5s7.5 11.167 7.5 18.5v102c0 21.333-7.5 39.5-22.5 54.5s-33.167 22.5-54.5 22.5v0zM760.5 443l-256-256c-5-5-11-7.5-18-7.5s-13 2.5-18 7.5l-256 256c-5 5-7.5 11-7.5 18s2.5 13 7.5 18 11 7.5 18 7.5 13-2.5 18-7.5l212.5-212v527c0 7 2.5 13 7.5 18s11 7.5 18 7.5 13-2.5 18-7.5 7.5-11 7.5-18v-527l212.5 212c2.333 2.667 5.083 4.583 8.25 5.75s6.417 1.75 9.75 1.75 6.583-0.583 9.75-1.75 5.917-3.083 8.25-5.75c5-5 7.5-11 7.5-18s-2.5-13-7.5-18v0z"/>
</g>
</svg>
