<?xml version="1.0" encoding="utf-8"?>
<!-- Generator: Adobe Illustrator 17.0.0, SVG Export Plug-In . SVG Version: 6.00 Build 0)  -->
<!DOCTYPE svg PUBLIC "-//W3C//DTD SVG 1.1//EN" "http://www.w3.org/Graphics/SVG/1.1/DTD/svg11.dtd">
<svg version="1.1" id="Layer_1" xmlns="http://www.w3.org/2000/svg" xmlns:xlink="http://www.w3.org/1999/xlink" x="0px" y="0px"
	 width="1025px" height="1024px" viewBox="0 0 1025 1024" enable-background="new 0 0 1025 1024" xml:space="preserve">
<g>
	<path d="M486.5 563.5c-39 0-75.584-7.417-109.75-22.25s-64-35-89.5-60.5-45.584-55.333-60.25-89.5-22-70.583-22-109.25c0-39 7.333-75.583 22-109.75s34.75-64 60.25-89.5 55.334-45.667 89.5-60.5 70.75-22.25 109.75-22.25c38.667 0 75.083 7.417 109.25 22.25s64 35 89.5 60.5 45.667 55.333 60.5 89.5 22.25 70.75 22.25 109.75c0 38.667-7.417 75.083-22.25 109.25s-35 64-60.5 89.5-55.333 45.667-89.5 60.5-70.583 22.25-109.25 22.25v0zM486.5 51.5c-31.666 0-61.5 6-89.5 18s-52.416 28.417-73.25 49.25-37.334 45.25-49.5 73.25-18.25 58-18.25 90c0 31.667 6.084 61.5 18.25 89.5s28.666 52.417 49.5 73.25 45.25 37.25 73.25 49.25 57.834 18 89.5 18 61.5-6 89.5-18 52.417-28.416 73.25-49.25 37.333-45.25 49.5-73.25 18.25-57.833 18.25-89.5c0-32-6.083-62-18.25-90s-28.667-52.417-49.5-73.25-45.25-37.25-73.25-49.25-57.833-18-89.5-18v0zM896 1024h-819c-21.334 0-39.5-7.5-54.5-22.5s-22.5-33-22.5-54c0-1 0.333-6.5 1-16.5s3-22.833 7-38.5 10.25-33.417 18.75-53.25 20.416-40.083 35.75-60.75c9.334-12 19.334-23.417 30-34.25s22.083-21 34.249-30.5 25.166-18.333 39-26.5 28.417-15.583 43.75-22.25c18.666-8.334 38.5-15.667 59.5-22s43.084-11.583 66.25-15.75 47.333-7.333 72.5-9.5 51.416-3.25 78.75-3.25c27 0 53.167 1.083 78.5 3.25s49.5 5.333 72.5 9.5 45 9.417 66 15.75 40.833 13.667 59.5 22c15.333 6.666 29.917 14.083 43.75 22.25s26.917 17 39.25 26.5 23.833 19.667 34.5 30.5 20.5 22.25 29.5 34.25c15.667 20.667 27.667 40.917 36 60.75s14.5 37.583 18.5 53.25 6.417 28.5 7.25 38.5 1.25 15.5 1.25 16.5c0 21-7.5 39-22.5 54s-33.167 22.5-54.5 22.5v0zM486.5 666c-44.666 0-86.334 3-125.001 9s-74 14.917-106 26.75-60.584 26.583-85.75 44.25-46.583 38-64.249 61c-13.334 17.333-23.667 34.333-31.001 51s-12.75 31.583-16.25 44.75-5.584 23.833-6.25 32-1 12.416-1 12.75c0 7 2.5 13 7.5 18s11.166 7.5 18.5 7.5h819c7 0 13-2.5 18-7.5s7.5-11 7.5-18c0-0.333-0.333-4.583-1-12.75s-2.75-18.833-6.25-32-8.833-28.083-16-44.75-17.417-33.667-30.75-51c-17.667-23-39.083-43.333-64.25-61s-53.833-32.417-86-44.25-67.5-20.75-106-26.75-80.083-9-124.75-9v0z"/>
</g>
</svg>
