<?xml version="1.0" encoding="utf-8"?>
<!-- Generator: Adobe Illustrator 17.0.0, SVG Export Plug-In . SVG Version: 6.00 Build 0)  -->
<!DOCTYPE svg PUBLIC "-//W3C//DTD SVG 1.1//EN" "http://www.w3.org/Graphics/SVG/1.1/DTD/svg11.dtd">
<svg version="1.1" id="Layer_1" xmlns="http://www.w3.org/2000/svg" xmlns:xlink="http://www.w3.org/1999/xlink" x="0px" y="0px"
	 width="1025px" height="1024px" viewBox="0 0 1025 1024" enable-background="new 0 0 1025 1024" xml:space="preserve">
<g>
	<path d="M301.094 114.813v160.156c0 25.625-25.625 44.844-51.25 44.844h-198.594c-32.031 0-51.25-19.219-51.25-44.844v-160.156c0-32.031 19.219-51.25 51.25-51.25h205c19.219 0 44.844 19.219 44.844 51.25zM301.094 595.281c0 25.625-25.625 44.844-51.25 44.844h-198.594c-32.031 0-51.25-19.219-51.25-44.844v-160.156c0-32.031 19.219-51.25 51.25-51.25h205c25.625 0 51.25 19.219 51.25 51.25v160.156zM51.25 704.188h205c25.625 0 51.25 19.219 51.25 51.25v160.156c0 25.625-19.219 51.25-51.25 51.25h-205c-32.031-6.406-51.25-25.625-51.25-51.25v-160.156c0-32.031 19.219-51.25 51.25-51.25zM410 63.563h563.75c32.031 0 51.25 19.219 51.25 51.25v160.156c0 25.625-19.219 44.844-44.844 44.844h-570.156c-25.625 0-44.844-19.219-44.844-44.844v-160.156c0-32.031 19.219-51.25 44.844-51.25zM365.156 595.281v-160.156c0-32.031 19.219-51.25 44.844-51.25h563.75c32.031 0 51.25 19.219 51.25 51.25v160.156c0 25.625-19.219 44.844-44.844 44.844h-570.156c-25.625 0-44.844-19.219-44.844-44.844zM365.156 915.594v-160.156c0-32.031 19.219-51.25 44.844-51.25h563.75c25.625 0 51.25 19.219 51.25 51.25v160.156c0 25.625-19.219 51.25-51.25 51.25h-563.75c-25.625-6.406-44.844-25.625-44.844-51.25z"/>
</g>
</svg>
