<?xml version="1.0" encoding="utf-8"?>
<!-- Generator: Adobe Illustrator 17.0.0, SVG Export Plug-In . SVG Version: 6.00 Build 0)  -->
<!DOCTYPE svg PUBLIC "-//W3C//DTD SVG 1.1//EN" "http://www.w3.org/Graphics/SVG/1.1/DTD/svg11.dtd">
<svg version="1.1" id="Layer_1" xmlns="http://www.w3.org/2000/svg" xmlns:xlink="http://www.w3.org/1999/xlink" x="0px" y="0px"
	 width="1025px" height="1024px" viewBox="0 0 1025 1024" enable-background="new 0 0 1025 1024" xml:space="preserve">
<g>
	<path d="M896 461l-25.5 0v-128c0-21.333-7.5-39.5-22.5-54.5s-33.167-22.5-54.5-22.5h-128v-230c0-7.333-2.5-13.5-7.5-18.5s-11-7.5-18-7.5h-512c-7 0-13 2.5-18 7.5s-7.5 11.167-7.5 18.5v233c-14.666 2.667-28.25 7.833-40.75 15.5s-23.334 17.083-32.5 28.25-16.333 23.667-21.5 37.5-7.75 28.417-7.75 43.75v563.5c0 21 7.5 39 22.5 54s33.166 22.5 54.5 22.5h819c21.333 0 39.5-7.5 54.5-22.5s22.5-33 22.5-54v-409.5c0-21.333-7.5-39.5-22.5-54.5s-33.167-22.5-54.5-22.5v0zM153.5 51.5h461v307h-461v-307zM102.499 312v72c0 7.333 2.5 13.5 7.5 18.5s11 7.5 18 7.5h614.5c7 0 13-2.5 18-7.5s7.5-11.167 7.5-18.5c0-7-2.5-13-7.5-18s-11-7.5-18-7.5h-77v-51h128c7 0 13 2.5 18 7.5s7.5 11 7.5 18v128h-691c-21.334 0-39.5-7.5-54.5-22.5s-22.5-33.167-22.5-54.5c0-16.667 4.833-31.583 14.5-44.75s22-22.25 37-27.25v0zM921.5 947.5c0 7-2.5 13-7.5 18s-11 7.5-18 7.5h-819c-7.334 0-13.5-2.5-18.5-7.5s-7.5-11-7.5-18v-461c11 8 23 14.25 36 18.75s26.666 6.75 41 6.75h768c7 0 13 2.5 18 7.5s7.5 11.167 7.5 18.5v409.5zM537.5 154h-25.5v-26c0-7-2.5-13-7.5-18s-11-7.5-18-7.5h-102.5c-7 0-13 2.5-18 7.5s-7.5 11-7.5 18v77h-51.5v-77c0-7-2.5-13-7.5-18s-11-7.5-18-7.5-13 2.5-18 7.5-7.5 11-7.5 18v26h-25.5c-7 0-13 2.5-18 7.5s-7.5 11-7.5 18 2.5 13 7.5 18 11 7.5 18 7.5h25.5v25.5c0 7 2.5 13 7.5 18s11 7.5 18 7.5h102.5c7 0 13-2.5 18-7.5s7.5-11 7.5-18v-76.5h51.5v76.5c0 7 2.5 13 7.5 18s11 7.5 18 7.5 13-2.5 18-7.5 7.5-11 7.5-18v-25.5h25.5c7 0 13-2.5 18-7.5s7.5-11 7.5-18-2.5-13-7.5-18-11-7.5-18-7.5v0zM845 922h-205c-7 0-13-2.5-18-7.5s-7.5-11.167-7.5-18.5c0-7 2.5-13 7.5-18s11-7.5 18-7.5h205c7 0 13 2.5 18 7.5s7.5 11 7.5 18c0 7.333-2.5 13.5-7.5 18.5s-11 7.5-18 7.5v0z"/>
</g>
</svg>
